<?xml version="1.0" encoding="utf-8"?>
<!-- Generator: Adobe Illustrator 19.0.0, SVG Export Plug-In . SVG Version: 6.00 Build 0)  -->
<svg version="1.1" id="Calque_1" xmlns="http://www.w3.org/2000/svg" xmlns:xlink="http://www.w3.org/1999/xlink" x="0px" y="0px"
	 viewBox="0 0 212 175" style="enable-background:new 0 0 212 175;" xml:space="preserve">
<style type="text/css">
	.st0{fill:#E42332;}
	.st1{fill:#C61620;}
	.st2{fill:#FC324B;}
</style>
<g id="XMLID_166_">
	<path id="XMLID_236_" class="st0" d="M169.2,64.3c3.3-10.7-3.2-22.7-12.8-28.4c-9.6-5.7-21.5-6.3-32.6-4.8
		C115.3,17.2,99.4,8,83,7.7c-16.3-0.3-32.6,8.2-41.6,21.8c-2.3,3.5-4.2,7.3-7.3,10.2c-3.1,2.8-7.1,4.4-10.7,6.6
		C-3.5,62.7,8.6,92,22.9,112c17.4,24.4,38,32.6,64.6,14.3c1.4,10.5,4.7,21.1,12.1,28.7c7.4,7.6,19.5,11.1,28.9,6.3
		c3-1.6,5.7-3.9,9-4.7c3.4-0.7,6.9,0.4,10.3,1.1c24.3,5.2,51.1-12,56.6-36.2C210,97.3,193.3,70.2,169.2,64.3z M146.5,103.8
		c-8.4-3.6-19.2-0.4-24.2,7.2c1.4-7.4-1.2-15.4-6.6-20.5c-5.4-5.2-13.6-7.3-20.8-5.5c4.4-6.6,2.1-16.4-4.1-21.4
		c-6.2-5.1-15.1-5.8-22.7-3.4C64.2,49.1,79.1,44,86.9,46.2c10.7,3,13.9,15.7,27.5,16.1c1.8,0,3.7-0.1,5.3,0.8
		c1.5,0.8,2.6,2.2,3.6,3.6c5.8,7.5,14.2,12.9,23.4,15C142.7,88.3,142.7,97.1,146.5,103.8z"/>
	<g id="XMLID_184_">
		<path id="XMLID_235_" class="st1" d="M96.8,80.3c1.2-5.9-1.2-12.7-6-16.7c-3.9-3.2-8.9-4.7-14-4.7c2.9,5.1,3.3,11.7,0.1,16.6
			C83.7,73.8,91.4,75.7,96.8,80.3z"/>
		<path id="XMLID_234_" class="st1" d="M105.7,21.6c3.2-0.4,6.4-0.7,9.6-0.7c-5.7-5.2-12.6-9.2-20.1-11.3
			C99.3,13,102.9,17,105.7,21.6z"/>
		<path id="XMLID_233_" class="st1" d="M151.2,54.8c6.7,1.6,12.8,4.9,18.1,9.3c3.1-10.7-3.3-22.5-12.9-28.2
			c-3.7-2.2-7.7-3.6-11.8-4.5C150.5,37.8,153.7,46.7,151.2,54.8z"/>
		<path id="XMLID_232_" class="st1" d="M118,93.1c-0.7-0.9-1.5-1.8-2.3-2.6c-4-3.8-9.6-6-15.1-6.1c3.4,4.9,4.9,11.2,3.8,17.1
			C107.4,96.9,112.5,93.9,118,93.1z"/>
		<path id="XMLID_231_" class="st1" d="M128.4,72c0.1,0.1,0.1,0.1,0.2,0.2c0,0,0-0.1,0.1-0.1C128.6,72.1,128.5,72.1,128.4,72z"/>
		<path id="XMLID_230_" class="st1" d="M101.7,53.5c-1.4-0.7-3.1-0.7-4.7-0.7c3.6,3.4,7,7.1,12.2,8.7c-1.4-1.4-2.7-2.8-3.9-4.3
			C104.2,55.8,103.2,54.3,101.7,53.5z"/>
		<path id="XMLID_229_" class="st1" d="M169.6,64.4c13.4,11.4,20.8,30.2,16.9,47.6c-5.5,24.2-32.3,41.3-56.6,36.2
			c-3.4-0.7-6.9-1.8-10.3-1.1c-3.3,0.7-6,3.1-9,4.7c-3.7,1.9-7.8,2.5-11.9,2.1c0.3,0.4,0.7,0.8,1.1,1.1c7.4,7.6,19.5,11.1,28.9,6.3
			c3-1.6,5.7-3.9,9-4.7c3.4-0.7,6.9,0.4,10.3,1.1c24.3,5.2,51.1-12,56.6-36.2C210,97.5,193.5,70.6,169.6,64.4z"/>
		<path id="XMLID_228_" class="st1" d="M69.5,116.8c-12.7,8.7-24,11.4-34.2,9.2c11.3,9.8,24,13,38.6,7.6
			C71.7,128.3,70.3,122.5,69.5,116.8z"/>
		<path id="XMLID_227_" class="st1" d="M69.1,51.7c2.6-3.6,7.7-5.6,12.4-6c-3.8-3.6-7.3-7.6-12.7-9.1c-7.8-2.2-22.6,3-18.8,14.1
			C56.2,48.7,63.3,48.9,69.1,51.7z"/>
	</g>
	<path id="XMLID_170_" class="st2" d="M36.6,79.9c4.4,1.2,9.1,1.9,13,4.4c3,1.9,5.4,4.7,8.4,6.5c3,1.9,7.3,2.6,9.9,0.2
		c1.2-1.1,1.9-2.7,2.3-4.3c1.8-7.1-1.7-14.7-6.7-20c-7.9-8.3-23.5-14.5-34.8-9.5C14.9,63.6,26.9,77.4,36.6,79.9z"/>
	<path id="XMLID_167_" class="st2" d="M137.3,122c-0.4,0.7-0.7,1.5-1.4,2c-0.4,0.3-1,0.4-1.5,0.6c-2.1,0.5-4.3,1.3-5.9,2.9
		c-1.5,1.6-2.3,4.1-1.2,6c0.5,0.8,1.2,1.5,2,2c5.6,3.9,14.3,2.3,18.2-3.3c0.4-0.6,0.8-1.2,1.4-1.3c0.6-0.1,1.2,0.1,1.7,0.3
		c3.5,1.3,7.5,0.3,10.8-1.6c3.2-1.9,5.8-4.7,8.3-7.5c6.5-7.2,6.4-22.3-6.6-19.3C153.7,104.9,141.5,113.3,137.3,122z"/>
</g>
</svg>
