<?xml version="1.0" encoding="utf-8"?>
<!-- Generator: Adobe Illustrator 19.0.0, SVG Export Plug-In . SVG Version: 6.00 Build 0)  -->
<svg version="1.1" id="Calque_1" xmlns="http://www.w3.org/2000/svg" xmlns:xlink="http://www.w3.org/1999/xlink" x="0px" y="0px"
	 viewBox="0 0 156 114" style="enable-background:new 0 0 156 114;" xml:space="preserve">
<style type="text/css">
	.st0{fill:#E42332;}
	.st1{fill:#C61620;}
	.st2{fill:#FC324B;}
</style>
<g id="XMLID_166_">
	<path id="XMLID_232_" class="st0" d="M137.6,61.3c12.6-3.8,16.2-22.3,7.9-32.6c-8.3-10.2-24.1-11.9-36.2-6.7
		c-3.6-9.8-14.1-16.7-24.5-15.9c-10.4,0.8-19.9,9-22,19.3c-7.1-3-15.2-4.4-22.7-2.6c-7.5,1.8-14.5,6.9-17.3,14.2
		c-2,5.3-1.4,9.8,3.3,12.4c-3.3,0.6-6.9,1.7-9.7,3.8c-5.3,3.9-8.1,11.4-5.7,17.5c2.4,6.2,10.5,9.7,16.3,6.5
		c-4.7,8.2-2,19.5,5.2,25.7c7.2,6.2,17.7,7.6,26.8,4.8c9.1-2.8,16.7-9.2,22.4-16.8c14.7,15.6,42.6,15.7,57.5,0.2
		c4.1-4.3,7.3-9.7,7.5-15.6C146.5,69.5,143.2,63.3,137.6,61.3z M75.3,67.4c0.6-0.7-8.5-4.3-9.3-4.5c-3.8-0.8-7.1-0.1-10.8,0.2
		c-6.6,0.4-10.1-3.8-11.1-10.6c7.8,2.3,17.3-1.1,20-9.3c2.7,3.2,8,3.9,11.4,1.5c0.9-0.6,1.7-1.5,2.8-1.5c1-0.1,1.9,0.5,2.8,1.1
		c7.7,4.7,18.7,2.8,24.5-4.1c-2.7,6.1-2.2,13.5,1.3,19.1C96,54.9,82.7,58.5,75.3,67.4z"/>
	<path id="XMLID_231_" class="st1" d="M145.5,28.8c-7.9-9.7-22.4-11.7-34.2-7.5c4.2,0.2,8.2,3.3,9.4,7.3c1.3,4.1-0.2,8.9-3.6,11.5
		c5,0.8,9.3,4.7,10.7,9.5c1.4,4.8-0.2,10.4-4,13.7c-0.9,0.8-1.9,1.5-2.5,2.5c-0.8,1.2-0.9,2.8-1.2,4.2c-1.7,8.7-10.9,14.3-19.7,14.9
		c-8.9,0.6-17.4-2.8-25.6-6.2c-4.1,9.3-14,15.6-24.1,15.6c-4,0-8.2-1.1-11.2-3.8c-5.4-4.9-5-13.3-4.3-20.6
		c-5.1,0.9-10.2,1.8-15.3,1.2c-3.6-0.4-7.3-1.8-10-4.1c0.1,1.2,0.4,2.5,0.8,3.6c2.4,6.2,10.5,9.7,16.3,6.5c-4.7,8.2-2,19.5,5.2,25.7
		c7.2,6.2,17.7,7.6,26.8,4.8c9.1-2.8,16.7-9.2,22.4-16.8c14.7,15.6,42.6,15.7,57.5,0.2c4.1-4.3,7.3-9.7,7.5-15.6
		c0.2-5.9-3.1-12.2-8.7-14.1C150.2,57.5,153.8,39,145.5,28.8z"/>
	<path id="XMLID_184_" class="st2" d="M80.5,17.2c-3.1,1.1-6,3.4-7.2,6.5c-1.1,3.1,0,7.1,2.9,8.7c1.1,0.5,2.3,0.7,3.5,0.9
		c4.4,0.5,9-0.1,13.2-1.6c3.4-1.2,7.1-4,6.7-7.6C98.9,16.9,85.5,15.4,80.5,17.2z"/>
	<path id="XMLID_170_" class="st2" d="M41.5,28.7c-3.2,1.3-6.1,3.2-8.4,5.7c-0.9,0.9-1.8,2.1-1.7,3.4c0.1,1.6,1.8,2.8,3.4,2.9
		c1.6,0.1,3.1-0.7,4.5-1.6c1.6-1.1,3.1-2.4,4.3-3.9c0.5-0.5,0.9-1.1,1-1.8c0.2-1.3-0.9-2.5-2.1-2.9c-1.2-0.4-2.6-0.3-3.8-0.1
		L41.5,28.7z"/>
</g>
</svg>
