<?xml version="1.0" encoding="utf-8"?>
<!-- Generator: Adobe Illustrator 19.0.0, SVG Export Plug-In . SVG Version: 6.00 Build 0)  -->
<svg version="1.1" id="Calque_1" xmlns="http://www.w3.org/2000/svg" xmlns:xlink="http://www.w3.org/1999/xlink" x="0px" y="0px"
	 viewBox="0 0 283 217.3" style="enable-background:new 0 0 283 217.3;" xml:space="preserve">
<style type="text/css">
	.st0{fill:#E42332;}
	.st1{fill:#C61620;}
	.st2{fill:#FC324B;}
</style>
<g id="XMLID_36_">
	<path id="XMLID_274_" class="st0" d="M273.4,118.4c-3.5-16.6-20.3-29.4-37.3-28.3c-0.1-16-14.7-29-30.3-32.1
		c-15.7-3.1-31.8,1.6-46.5,7.7C149,33,114.3,9.8,80.2,12.8s-64.2,32-68.5,66c-2.2,17.1,2.7,36.4,16.8,46.3
		c-8.2,16.2,5.2,38.7,23.3,39.3c-12.3,6.4-13.2,25.4-4.5,36.2c8.7,10.9,23.3,15,37.2,16.3h135.6c11.9,3.2,25.6-12.6,32.3-23
		c6.7-10.4,5.9-25-1.9-34.6C266.6,153.5,276.9,135,273.4,118.4z"/>
	<g id="XMLID_127_">
		<path id="XMLID_273_" class="st1" d="M135.7,65.7c6.8-2.8,16.4,1.6,23.5,0c-8.7-42.2-47.3-55.7-79-52.9c-1.9,0.2-3.8,0.4-5.6,0.7
			C102.2,18.2,127.3,38.7,135.7,65.7z"/>
		<path id="XMLID_272_" class="st1" d="M273.4,118.4c-3.5-16.6-20.3-29.4-37.3-28.3c-0.1-16-14.7-29-30.3-32.1
			c-7.5-1.5-15.1-1.2-22.6,0.2c15.3,3.4,29.4,16.3,29.4,31.9c17-1.1,33.8,11.6,37.3,28.3c3.5,16.6-6.8,35.1-22.8,40.9
			c7.8,9.6,8.6,24.2,1.9,34.6c-5.5,8.5-15.7,20.6-25.7,23h17c11.9,3.2,25.6-12.6,32.3-23c6.7-10.4,5.9-25-1.9-34.6
			C266.6,153.5,276.9,135,273.4,118.4z"/>
	</g>
	<path id="XMLID_93_" class="st1" d="M101.1,216.5c-0.2,0.1-0.4,0.3-0.6,0.4h69.4c3.6-8.1,5-17.3,2.8-25.8
		c-2.4-10-9.6-18.7-18.9-23.1c5-2.1,8.5-7.2,8.7-12.6c0.2-5.4-3-10.7-7.8-13.2c10.4-1.6,19.9-9.1,23.1-19.1c3.2-10-0.3-22-8.8-28.2
		c2.4,5.8,2.6,13.4-2.2,17.4c-1.6,1.3-3.5,2.1-5.4,2.9c-11.2,4.6-23.8,9.2-34.9,4.6c6,6.4,5.6,17.1,0.7,24.4
		c-4.8,7.3-13.1,11.8-21.6,14.2c11.6,3.5,18.1,17.3,16.1,29.3C119.8,199.7,111.2,209.7,101.1,216.5z"/>
	<path id="XMLID_92_" class="st2" d="M39.9,67.3c0.2,4.8,1.5,9.8,4.7,13.4c3.2,3.6,8.5,5.6,13.1,4c3.9-1.4,6.5-5.1,8.2-8.9
		c1.7-3.8,2.8-7.8,5.1-11.3c2.5-3.9,6.4-6.8,10.7-8.2c2.5-0.8,5.2-1.2,7.4-2.6c15-10-10-24.6-20.2-22.3
		C52.2,35.1,39.2,50.1,39.9,67.3z"/>
	<path id="XMLID_41_" class="st2" d="M59.5,122.3c6.8-6.6,16.2-10.5,25.7-10.7c4.5-0.1,9.1,0.6,12.9,3c3.8,2.4,6.5,6.7,6.2,11.2
		c-0.2,2.1-1,4.2-2.8,5.4c-1.9,1.3-4.5,1.1-6.7,0.4c-2.2-0.8-4.2-2-6.3-2.9c-5.9-2.4-13.1-1.5-18.2,2.3c-2.9,2.2-5.3,5.3-8.6,6.8
		c-3.3,1.6-8.7,0.7-9.2-3.6C52,130.8,57.3,124.3,59.5,122.3z"/>
</g>
</svg>
