<?xml version="1.0" encoding="utf-8"?>
<!-- Generator: Adobe Illustrator 19.0.0, SVG Export Plug-In . SVG Version: 6.00 Build 0)  -->
<svg version="1.1" id="Calque_1" xmlns="http://www.w3.org/2000/svg" xmlns:xlink="http://www.w3.org/1999/xlink" x="0px" y="0px"
	 viewBox="0 0 182 152" style="enable-background:new 0 0 182 152;" xml:space="preserve">
<style type="text/css">
	.st0{fill:#E42332;}
	.st1{fill:#C61620;}
	.st2{fill:#FC324B;}
</style>
<g id="XMLID_376_">
	<path id="XMLID_166_" class="st0" d="M16.3,79.3c-0.5,4.5,0.6,9.3,3.7,12.6c3.1,3.3,8.1,4.9,12.3,3.4c-1.9,11.5,4.9,23.9,15.6,28.4
		c10.7,4.5,24.4,0.7,31.2-8.7c2.6,7.3,10.4,11.7,18.1,12.4c7.7,0.6,15.3-1.9,22.3-5.2c7.9-3.8,16-9.4,17.9-18c0.2-1,0.4-2.2,1.1-2.9
		c0.7-0.7,1.7-0.9,2.7-1.2c10.4-2.8,16.4-14.2,16.9-24.9c0.5-9.9-2.8-20.1-9.7-27.2c-6.9-7.1-17.4-10.8-27.1-8.7
		c2.3-2.7,1.7-6.9-0.5-9.7c-2.2-2.7-5.6-4.2-8.9-5.2c-14.1-4.2-30.5-1.4-41.1,8.8c-7.9-6.7-20.6-5.2-28.4,1.5
		c-8.7,7.4-8,16.4-12.6,25.6C25.9,67.7,17.5,69.7,16.3,79.3z"/>
	<g id="XMLID_379_">
		<path id="XMLID_382_" class="st1" d="M103.8,30.4c6.3-1.4,12.9-0.3,18.6,2.6c-0.3-1.2-0.9-2.4-1.7-3.4c-2.2-2.7-5.6-4.2-8.9-5.2
			c-2.4-0.7-4.8-1.2-7.3-1.5C105.6,25.3,105.6,28.3,103.8,30.4z"/>
		<path id="XMLID_381_" class="st1" d="M148.4,47.9c-4.7-4.9-11.1-8.1-17.7-9c0.1,0.1,0.2,0.2,0.2,0.2c6.9,7.1,10.2,17.3,9.7,27.2
			c-0.5,10.7-6.5,22.1-16.9,24.9c-1,0.3-2,0.5-2.7,1.2c-0.7,0.8-0.9,1.9-1.1,2.9c-1.9,8.6-10,14.2-17.9,18c-6.6,3.1-13.7,5.6-21,5.3
			c3.5,5.1,9.9,8.2,16.2,8.7c7.7,0.6,15.3-1.9,22.3-5.2c7.9-3.8,16-9.4,17.9-18c0.2-1,0.4-2.2,1.1-2.9c0.7-0.7,1.7-0.9,2.7-1.2
			c10.4-2.8,16.4-14.2,16.9-24.9C158.6,65.3,155.3,55.1,148.4,47.9z"/>
		<path id="XMLID_380_" class="st1" d="M61.7,106.2c-5.2,7.2-14.3,11.1-23.1,10.6c2.6,3,5.7,5.4,9.4,7c9.5,4,21.2,1.5,28.6-5.7
			C70,116.6,63.9,112.4,61.7,106.2z"/>
	</g>
	<path id="XMLID_378_" class="st2" d="M38.6,84.3c-1.9-7.2,3.1-15.4,10.4-17c-3-2.3-4.1-6.5-3.3-10.2c0.8-3.7,3.2-6.9,6-9.5
		c5.1-4.8,11.9-8,18.8-7.2c6.9,0.8,13.3,6.5,13.5,13.5c-5.3-2.4-12-2.4-16.7,1c-4.7,3.4-6.7,10.7-3.4,15.5c-1.5-2.2-10,2.1-11.4,3.2
		c-4.1,3.4-4.5,7.1-4,12c0.2,2.5,2.8,6.6-0.1,7.9C44.7,95.3,39.2,86.7,38.6,84.3z"/>
	<path id="XMLID_377_" class="st2" d="M80,73.2c2.7-6.8,10.3-10.4,15.6-7.4c-0.6-3.6,1-7.6,3.5-10.1c2.5-2.5,5.7-3.6,8.8-4
		c5.7-0.8,11.7,0.7,15.5,5.4c3.8,4.7,4.7,13.1,1,18.8c-2-5.1-6.1-9-10.9-9.1s-9.9,4.5-10.5,10.3c0.3-2.6-7.3-4.2-8.8-4.2
		c-4.3,0.3-6.7,3-9,7.2c-1.2,2.1-1.9,6.9-4.4,6.3C77.9,85.6,79.1,75.5,80,73.2z"/>
</g>
</svg>
