<?xml version="1.0" encoding="utf-8"?>
<!-- Generator: Adobe Illustrator 19.0.0, SVG Export Plug-In . SVG Version: 6.00 Build 0)  -->
<svg version="1.1" id="Calque_1" xmlns="http://www.w3.org/2000/svg" xmlns:xlink="http://www.w3.org/1999/xlink" x="0px" y="0px"
	 viewBox="0 0 111 93" style="enable-background:new 0 0 111 93;" xml:space="preserve">
<style type="text/css">
	.st0{fill:#E42332;}
	.st1{fill:#C61620;}
	.st2{fill:#FC324B;}
</style>
<g id="XMLID_166_">
	<path id="XMLID_281_" class="st0" d="M14.2,30.9c-1.5,2.5-2.1,5.5-1.2,8.3c0.9,2.7,3.4,5,6.2,5.2c-4.1,6.1-3.4,15.1,1.6,20.5
		s13.9,6.8,20.3,3.1c-0.4,4.9,3,9.5,7.2,11.9c4.3,2.4,9.4,2.9,14.3,2.8c5.6-0.1,11.7-1.3,15.1-5.7c0.4-0.5,0.8-1.1,1.4-1.4
		c0.6-0.2,1.2-0.1,1.9,0c6.7,1.1,13.2-4,16.3-10c2.9-5.6,3.6-12.4,1.5-18.3c-2.1-5.9-7.3-10.8-13.4-12.1c2-1,2.8-3.6,2.2-5.7
		c-0.6-2.2-2.1-3.9-3.8-5.3c-7-6.1-17.3-8.8-26.1-5.6c-2.8-5.9-10.6-8.4-16.9-6.5c-7,2-8.9,7.4-14,11.5
		C22.8,26.7,17.4,25.6,14.2,30.9z"/>
	<g id="XMLID_277_">
		<path id="XMLID_280_" class="st1" d="M77.6,25.4c4,0.8,7.5,3.2,10.1,6.3c0.1-0.8,0.1-1.6-0.1-2.4c-0.6-2.2-2.1-3.9-3.8-5.3
			c-1.2-1-2.5-2-3.8-2.8C80,22.9,79.2,24.7,77.6,25.4z"/>
		<path id="XMLID_279_" class="st1" d="M98.9,47.2c-1.4-4-4.3-7.6-7.9-9.8c0,0.1,0,0.1,0.1,0.2c2.1,5.9,1.4,12.7-1.5,18.3
			c-3.1,6.1-9.6,11.1-16.3,10c-0.6-0.1-1.3-0.2-1.9,0c-0.6,0.2-1,0.9-1.4,1.4c-3.3,4.5-9.5,5.6-15.1,5.7c-4.6,0.1-9.4-0.3-13.5-2.4
			c0.7,3.9,3.6,7.3,7.1,9.3c4.3,2.4,9.4,2.9,14.3,2.8c5.6-0.1,11.7-1.3,15.1-5.7c0.4-0.5,0.8-1.1,1.4-1.4c0.6-0.2,1.2-0.1,1.9,0
			c6.7,1.1,13.2-4,16.3-10C100.3,59.9,101,53.1,98.9,47.2z"/>
		<path id="XMLID_278_" class="st1" d="M33.5,58.3c-4.9,2.8-11.2,2.7-16.1,0.1c0.7,2.4,1.9,4.6,3.6,6.5c4.5,4.8,11.9,6.4,18,4.2
			C35.5,66.5,33.1,62.5,33.5,58.3z"/>
	</g>
	<path id="XMLID_276_" class="st2" d="M32.9,39.2c3.2-3.5,9.3-3.6,12.6-0.3c0.2-2.4,2.1-4.4,4.4-5.3c2.3-0.8,4.8-0.6,7.1-0.1
		c4.3,1.1,8.4,3.6,10.3,7.6c1.9,4,1.1,9.4-2.6,11.8c-0.5-3.7-2.8-7.2-6.3-8.6c-3.5-1.4-8,0.1-9.5,3.5c0.7-1.6-4.6-4.6-5.6-5
		c-3.2-1-5.4,0-7.8,2c-1.2,1-2.6,3.7-4.3,2.7C29.1,46.2,31.8,40.4,32.9,39.2z"/>
	<path id="XMLID_275_" class="st0" d="M52.7,44c3.3-3.3,8.7-3.4,10.9-0.2c0.6-2.3,2.6-4.2,4.7-4.9c2.1-0.8,4.2-0.6,6.2,0
		c3.5,1,6.6,3.4,7.6,7.2c1,3.7-0.7,8.8-4.3,11.1c0.2-3.5-1.2-6.8-3.9-8.1s-6.9,0-8.8,3.2c0.9-1.5-3.1-4.4-4-4.7
		c-2.6-1-4.6,0-7.1,1.8c-1.2,0.9-2.9,3.5-4.2,2.5C48.2,50.6,51.5,45.1,52.7,44z"/>
</g>
</svg>
