<?xml version="1.0" encoding="utf-8"?>
<!-- Generator: Adobe Illustrator 19.0.0, SVG Export Plug-In . SVG Version: 6.00 Build 0)  -->
<svg version="1.1" id="Calque_1" xmlns="http://www.w3.org/2000/svg" xmlns:xlink="http://www.w3.org/1999/xlink" x="0px" y="0px"
	 viewBox="0 0 662 372" style="enable-background:new 0 0 662 372;" xml:space="preserve">
<style type="text/css">
	.st0{fill:#FBDDBA;}
	.st1{fill:#5E110E;}
	.st2{fill:#440608;}
	.st3{fill:#FDF4E0;}
	.st4{fill:#A03A2B;}
	.st5{fill:#110404;}
	.st6{fill:#FDE8C7;}
	.st7{fill:#FBD5AD;}
	.st8{fill:#CE5C3D;}
	.st9{fill:#C63B27;}
	.st10{fill:#FDC99B;}
	.st11{fill:#DBAC84;}
	.st12{fill:#D78C77;}
	.st13{fill:#E87855;}
	.st14{fill:#370404;}
	.st15{fill:#892119;}
	.st16{fill:#FAAC7F;}
	.st17{fill:#FC8C5A;}
	.st18{fill:#7C0A07;}
	.st19{fill:#2A0202;}
	.st20{fill:#AF291D;}
</style>
<g id="XMLID_166_">
	<polygon id="XMLID_382_" class="st0" points="131.9,307.7 215.2,272.3 227.2,266.8 217.6,279.6 143.8,312.3 	"/>
	<polygon id="XMLID_381_" class="st1" points="401.1,202.8 404.9,213 396.9,213.1 396.5,207.3 	"/>
	<polygon id="XMLID_380_" class="st1" points="386.4,178.8 387.3,179.2 388.8,181.1 387.2,184.7 384.7,185.5 	"/>
	<path id="XMLID_379_" class="st2" d="M384.4,212.5c23.2-10.2,221.8-141.9,223.2-142.9l0.2-0.1l0.2,0c15-3.2,20.4-11,21-11.9
		c2.9-8.6,5.3-18.9,3.9-20.5c-0.6-0.7-5.5-2.3-19.9-3.7c-0.6,0.1-4.2,1.8-23.6,19.8c-0.5,0.4-0.8,0.7-0.9,0.8
		c-18.4,16.6-196.4,127.8-201.3,130.7l-0.1,0c-2,1-4.7,12.6-6.2,23L384.4,212.5z"/>
	<path id="XMLID_1146_" class="st3" d="M42.2,352.2c-4.6-2.7-9.2-5.4-13.8-8c-1.1-1.4-2.3-2.8-3.8-4.6c8.3-1.9,16.6-3.9,24.9-5.8
		c17.4-4.9,34.9-9.8,52.3-14.8l0.1,0.3c2.9,0.7,5.9,1.3,8.8,2c-24.3,7.4-48.5,14.8-72.6,22.1c0.4,0.4,1.3,1.2,2.1,2
		C37,348.7,41.5,350,42.2,352.2z"/>
	<path id="XMLID_1144_" class="st4" d="M122.9,309.6c-0.2,0.1-0.3,0.2-0.5,0.3c0.1,0,0.2,0.1,0.3,0
		C122.9,309.9,122.9,309.7,122.9,309.6z"/>
	<path id="XMLID_1143_" class="st5" d="M40.3,345.4c-0.8-0.8-1.7-1.6-2.1-2c24.1-7.3,48.3-14.7,72.6-22.1c11.8-4.5,23.6-9,35.5-13.5
		l0,0c0.4-0.1,0.8-0.2,1.2-0.3c15-6.4,30-12.8,45-19.2c0.3,0,0.6,0.1,0.9,0c30.4-15.3,60.7-30.6,91.1-45.9c0.5-0.3,1-0.7,1.5-1
		c0.7-0.4,1.5-0.9,2.2-1.3c0.8-0.3,1.7-0.5,2.4-0.9c11.1-6.3,22.2-12.5,33.2-19c12.3-7.2,24.4-14.7,36.6-22c0.8,1.1,1.7,2.3,2.5,3.4
		c2.6,4.4,5.1,8.8,7.7,13.3c-1.5,1-2.9,2.1-4.4,3c-25.8,15.1-51.7,30.2-77.6,45.3c-0.4,0.5-0.8,1.1-1.1,1.6
		c-0.9,0.6-1.9,1.2-2.8,1.8c-0.5-0.2-1.1-0.6-1.4-0.5c-6.9,3.7-13.7,7.6-20.5,11.4c-3.5,1.8-7,3.6-10.5,5.4c-1.3,0.7-2.7,1.4-4,2.1
		l-0.2,0.1c-19.5,9.1-38.9,18.3-58.4,27.2c-11,5-22.2,9.7-33.3,14.5c-3.5,1.3-7,2.6-10.4,4c-4.5,1.6-9.1,3.2-13.6,4.8
		c-8.8,3.2-17.7,6.3-26.5,9.5c-1.4,0.3-2.9,0.6-4.3,1c-8.9,2.7-17.8,5.5-26.8,8.3c-3.2,0.6-6.4,1.2-9.5,1.8c0,0,0,0.2,0,0.2
		l-0.2-0.1l0.1,0c-6-2.3-12.1-4.6-18.1-6.9C44.6,347.9,42.5,346.7,40.3,345.4z"/>
	<path id="XMLID_1142_" class="st0" d="M46.8,349.2c6,2.3,12.1,4.6,18.1,6.9c-5.4,1.9-10.6,1.1-15.8-0.7
		C48.3,353.4,47.5,351.3,46.8,349.2z"/>
	<path id="XMLID_1141_" class="st6" d="M46.8,349.2c0.8,2.1,1.5,4.2,2.3,6.3c-2.3-1.1-4.6-2.1-6.9-3.2c-0.7-2.3-5.2-3.5-1.9-6.9
		C42.5,346.7,44.6,347.9,46.8,349.2z"/>
	<path id="XMLID_1140_" class="st0" d="M64.8,356.1l0.2,0.1c0,0,0-0.2,0-0.2c0,0-0.1-0.1-0.1-0.1L64.8,356.1z"/>
	<path id="XMLID_1139_" class="st0" d="M146.2,307.7c-11.8,4.5-23.6,9-35.5,13.5c-2.9-0.7-5.9-1.3-8.8-2c1.4-0.6,2.8-1.3,4.2-1.9
		c6.9-2.6,13.8-5.1,20.6-7.7c4.8-1.7,9.5-3.4,14.3-5.1c0.9-0.3,1.8-0.7,2.7-1l0,0c1.8-0.1,3.6-0.2,5.5-0.3
		C148.3,304.8,147.2,306.3,146.2,307.7z"/>
	<path id="XMLID_1130_" class="st7" d="M143.8,303.7c-0.9,0.3-1.8,0.7-2.7,1C142,304.3,142.9,304,143.8,303.7z"/>
	<path id="XMLID_1129_" class="st8" d="M167.7,292.8c-0.9,0.4-1.8,0.7-2.8,1.1C165.9,293.5,166.8,293.1,167.7,292.8z"/>
	<path id="XMLID_1128_" class="st9" d="M122.9,309.6c0,0.1-0.1,0.2-0.2,0.3c-0.1,0-0.2,0-0.3,0C122.6,309.8,122.8,309.7,122.9,309.6
		z"/>
	<path id="XMLID_1127_" class="st10" d="M243.9,256.4c1-0.7,2.3-0.2,3.3-0.9c0.5-0.3,4.4-1,3.1-2.2c3-1.9,5.1-2.1,8.2-4
		c5.5-2.6,11-6.6,15.6-9.2c6.4-3.3,12.8-6.5,19.2-9.8c3.4,1.4,0.8,3.1-0.1,4.3c-1.5,2-3.4,3.6-5.1,5.4c-0.7,0.4-1.5,0.9-2.2,1.3
		c-0.8-0.1-1.6-0.2-2.4-0.3c-0.6,0.2-1.1,0.3-1.7,0.5c0.1,0.2,0.1,0.3,0.2,0.5c0.5-0.3,1-0.6,1.5-0.8c0.3,0.4,0.6,0.8,0.9,1.2
		c-30.4,15.3-60.7,30.6-91.1,45.9c-0.2,0.1-0.6,0-0.9,0c7-4.5,14.1-8.9,21-13.6c1.1-0.7,1.6-2.4,2.4-3.6c1.3-0.7,2.7-1.4,4-2.1
		c6.3-3.5,12.6-6.9,18.9-10.4C240.5,257.8,242.2,257.1,243.9,256.4z"/>
	<path id="XMLID_1126_" class="st11" d="M288.2,240c1.7-1.8,3.6-3.4,5.1-5.4c0.9-1.2,3.5-2.8,0.1-4.3c3.4-2.1,6.8-4.2,10.2-6.2
		c17.6-10.6,35.1-21.1,52.7-31.7c1.4,1.9,2.7,3.8,4.1,5.6c-12.2,7.3-24.3,14.8-36.6,22c-11,6.5-22.1,12.7-33.2,19
		C289.9,239.5,289,239.7,288.2,240z"/>
	<path id="XMLID_1125_" class="st10" d="M360.4,198.1c-1.4-1.9-2.7-3.8-4.1-5.6c-0.2-3.3-0.5-6.6-0.7-9.9c0.7,1.3,1.4,2.6,2.1,3.9
		c0.6,0.8,1.1,1.6,1.7,2.5c0,1.1,0,2.1,0,3.2c1.5,3.2,3,6.5,4.5,9.7c-0.3-0.1-0.7-0.2-1-0.3C362.1,200.4,361.2,199.2,360.4,198.1z"
		/>
	<path id="XMLID_1124_" class="st12" d="M362.9,201.5c0.3,0.1,0.7,0.2,1,0.3c3.4,4.8,5.1,11,11.1,13.7l0.1,0c-0.6,0.5-1.2,1-1.8,1.6
		c-0.9-0.8-1.8-1.6-2.8-2.4C368,210.3,365.4,205.9,362.9,201.5z"/>
	<path id="XMLID_1123_" class="st13" d="M252.2,282.7c-1.3,0.7-2.7,1.4-4,2.1C249.5,284.1,250.9,283.4,252.2,282.7z"/>
	<path id="XMLID_1122_" class="st11" d="M284.4,242.3c-0.3-0.4-0.6-0.8-0.9-1.2l0-0.1c0.8,0.1,1.6,0.2,2.4,0.3
		C285.5,241.6,284.9,241.9,284.4,242.3z"/>
	<path id="XMLID_1121_" class="st7" d="M288.6,263c-0.4,0.5-0.8,1.1-1.1,1.6C287.8,264.1,288.2,263.6,288.6,263z"/>
	<path id="XMLID_1120_" class="st0" d="M146.3,307.7c0.4-0.1,0.8-0.2,1.2-0.3C147.1,307.5,146.7,307.6,146.3,307.7z"/>
	<path id="XMLID_1109_" class="st1" d="M548.7,97.3c0.6,3.2,1.3,6.5,2.2,11c-4.3-2.5-7.2-4.2-10.1-5.9c-0.4,0.4-0.7,0.7-1.1,1.1
		c0,1.7,0.1,3.5,0.1,5.2c-0.1,1.1-0.3,3.1-0.6,3.2c-1.3,0.1-3.1,0.1-4-0.6c-3-2.4-5.3-0.8-6.7,1.5c-0.7,1.2,0.3,3.5,0.6,6.3
		c-1.7-1.5-2.7-2.4-3.4-3c-2.9,0.4-5.4,0.7-8,1c0,0-0.1-0.4-0.1-0.4c2.8-1.6,1.7-3.5,0.5-5.4c3,2.5,5.1,0.9,7.1-1.4
		c3,1.2,4.8,0.4,4.8-3.1c1.8-1.2,3.7-2.4,5.5-3.5c1.7-0.6,3.3-1.3,5-1.9c0-0.4,0-0.8-0.1-1.2c-0.3-0.4-0.6-0.8-0.9-1.2
		c1.8-0.2,4.1,2.2,5.2-1.1C546,97.4,547.4,97.3,548.7,97.3z"/>
	<path id="XMLID_1106_" class="st4" d="M576.8,78.2c0.5,1.3,1.4,2.7,1.5,4.1c0.1,0.8-1,2.4-1.5,2.4c-2.6-0.2-5.3-0.9-7.9-1.4
		c0.1-1.1,0.5-2.9,0.1-3.1c-2.1-1.1-4.2-3.7-6.9-0.9c-1.4-0.8-2.8-1.5-4.2-2.3c0.3-0.8,0.5-1.5,0.9-2.5c1.3,1,2.4,1.9,3.4,2.6
		c0.9-1.8,1.7-3.3,2.5-4.8c2.7,0.1,5.4,0.2,8,0.3c-1.6,1.3-2.1,2.5,0.1,3.6C574.2,76.9,575.5,77.5,576.8,78.2z"/>
	<path id="XMLID_1103_" class="st4" d="M583.1,77.4c-1.6,0-3.2-0.1-4.8-0.1c0.5-2.7,1.1-5.5-3.1-5.6c-0.1-0.7-0.1-1.3-0.2-2
		c1.2-3.1,2.5-6.2,3.7-9.4c2.3,1.7,3.7,2.8,5.2,3.8c-1.8,2.3-3.3,4.5,0.5,6.3C586.4,73.1,583.8,75.1,583.1,77.4z"/>
	<path id="XMLID_1102_" class="st1" d="M583.1,77.4c0.7-2.3,3.2-4.2,1.3-7c1.5-0.3,4,2.4,4.5-1.4c3.3-0.5,6.6-1.1,9.8-1.6
		c0.9,2.3,1.8,4.5,2.8,6.8c0.2,0.3,0.4,0.5,0.5,0.8c0,0.3-0.1,0.6-0.1,0.9c-1.3-0.1-2.8,0.2-3.8-0.4c-1.3-0.7-2.3-2-3.4-3.1
		c-1.1-0.6-2.2-1.1-4-2c-0.5,2.2-0.8,4-1.2,5.8C587.6,77.2,586,80.7,583.1,77.4z"/>
	<path id="XMLID_1101_" class="st2" d="M501.3,136.6c0.5,0.9,1,1.7,1.6,2.7c-4.1,2.5-8.1,4.8-12,7.1c0.9-1.4,1.8-2.8,2.7-4.2
		c0.8-1.3,1.6-2.6,2.3-3.9c-1.3-1.8-2.6-3.5-4-5.3c1.7-0.7,3.3-1.5,5-2.2C498.4,132.8,499.8,134.7,501.3,136.6z"/>
	<path id="XMLID_1099_" class="st14" d="M495.9,138.3c-0.8,1.3-1.5,2.6-2.3,3.9c-0.9,1.4-1.8,2.8-2.7,4.2c-1,0.7-1.9,1.4-2.9,2.2
		c-0.4-0.5-0.7-1-1.1-1.5c-1.6-2.1-3.1-4.3-4.7-6.4c1.2-1.3,2.5-2.6,3.7-3.9c1,2,2,4,3.2,6.5C491.4,141.6,493.7,140,495.9,138.3z"/>
	<path id="XMLID_1098_" class="st15" d="M551.5,96.5c-0.6,0.1-1.3,0.1-1.9,0.2c-0.4-1.9-0.8-3.8-1.2-5.7c1.6-0.4,3.1-0.8,4.7-1.2
		c1.4,0.5,2.9,0.9,4.3,1.4c0.1,0.6,0.2,1.3,0.3,1.9c-1.3,1.7-2.7,3.3-4,5c0,0,0,0,0,0C553,97.5,552.3,97,551.5,96.5z"/>
	<path id="XMLID_1097_" class="st12" d="M548.4,90.9c0.4,1.9,0.8,3.8,1.2,5.7c-0.3,0.2-0.6,0.4-0.9,0.6c-1.3,0.1-2.7,0.2-4,0.3
		c0,0-0.1,0.1-0.1,0.1c-0.3-0.4-0.6-0.8-0.9-1.3c-2.5-2.4-1.6-4.2,1-5.8C546,90.7,547.2,90.8,548.4,90.9z"/>
	<path id="XMLID_1096_" class="st1" d="M566.2,83.2c0.5,1.2,1.3,2.4,1.3,3.6c0,1.4-0.3,3.5-1.3,4c-0.9,0.5-2.7-0.5-4.1-1
		c-0.9-0.4-1.6-1.1-2.4-1.7c-0.3-0.9-0.6-1.8-0.9-2.6c3.9,1.9,5.9,1,6.8-2.8C565.9,82.7,566.1,82.9,566.2,83.2z"/>
	<path id="XMLID_1095_" class="st12" d="M558.8,85.5c0.3,0.9,0.6,1.8,0.9,2.6c-0.8,1-1.5,2-2.3,3c-1.4-0.5-2.9-0.9-4.3-1.4
		c-1.3-4.2-0.6-5.1,4-5.2C557.7,84.8,558.3,85.2,558.8,85.5z"/>
	<path id="XMLID_1094_" class="st5" d="M501.3,136.6c-1.4-1.9-2.9-3.8-4.3-5.7c-0.8-4.3,2.5-2.7,4.5-3.1c0.5,0.6,1,1.3,1.5,1.9
		C504.9,132.5,501.9,134.3,501.3,136.6z"/>
	<path id="XMLID_1093_" class="st15" d="M517.7,116.9c-0.3,2.1-0.6,4.2-0.8,6c-2.4-0.8-5-1.6-7.7-2.4c-0.3-0.4-0.6-0.7-0.9-1.1
		c-0.1-0.3-0.3-0.7-0.4-1c1.9-1,5.8,1.3,5.5-3.3c1.4,0.5,2.8,1,4.1,1.5L517.7,116.9z"/>
	<path id="XMLID_1092_" class="st15" d="M502.9,129.6c-0.5-0.6-1-1.3-1.5-1.9c-0.1-2.5-0.2-5-0.3-7.6c1.5,0.7,3,1.5,4.5,2.2
		c1.1-0.3,2.1-0.7,3.2-1c-0.6,2.1-1.3,4.2-1.9,6.2C505.9,128,504.4,128.8,502.9,129.6z"/>
	<path id="XMLID_1091_" class="st5" d="M589.6,76.1c0.4-1.8,0.7-3.6,1.2-5.8c1.7,0.9,2.8,1.5,4,2c-0.3,1.7-0.7,3.5-1,5.2
		C592.4,77.1,591,76.6,589.6,76.1z"/>
	<path id="XMLID_1090_" class="st11" d="M575.2,71.6c4.2,0.2,3.6,2.9,3.1,5.6c-0.5,0.3-1,0.6-1.5,0.9c-1.3-0.6-2.6-1.3-3.9-1.9
		c-2.2-1.1-1.7-2.4-0.1-3.6C573.6,72.3,574.4,72,575.2,71.6z"/>
	<path id="XMLID_1089_" class="st11" d="M566.2,83.2c-0.1-0.2-0.3-0.4-0.6-0.5c-1.1-1.1-2.3-2.3-3.4-3.4c2.7-2.8,4.8-0.2,6.9,0.9
		c0.4,0.2-0.1,2-0.1,3.1C568.1,83.2,567.1,83.2,566.2,83.2z"/>
	<path id="XMLID_1088_" class="st2" d="M553.8,98c1.3-1.7,2.7-3.3,4-5c0.8,1.9,1.6,3.8,2.3,5.8c-0.3,0.4-0.7,0.8-1,1.2
		C557.3,99.3,555.6,98.6,553.8,98z"/>
	<path id="XMLID_1087_" class="st8" d="M508.7,121.3c-1.1,0.3-2.1,0.7-3.2,1c0.9-1,1.9-2,2.8-3c0.3,0.4,0.6,0.7,0.9,1.1
		C509.1,120.7,508.9,121,508.7,121.3z"/>
	<path id="XMLID_1086_" class="st2" d="M551.5,96.5c0.8,0.5,1.5,1,2.3,1.5C553,97.5,552.3,97,551.5,96.5z"/>
	<path id="XMLID_1076_" class="st10" d="M199.1,279.6c1.4-0.9,2.9-1.9,4.3-2.9c0.2,0.2,0.3,0.3,0.5,0.5
		C202.3,278.1,200.7,278.9,199.1,279.6z"/>
	<path id="XMLID_1075_" class="st16" d="M203.9,277.3c-0.1-0.2-0.3-0.4-0.5-0.5c0.4,0,0.8,0,1.3-0.1
		C204.4,276.9,204.2,277.1,203.9,277.3z"/>
	<path id="XMLID_1074_" class="st17" d="M243.9,256.4c-1.7,0.7-3.4,1.4-5.1,2.1C240.5,257.8,242.2,257.1,243.9,256.4z"/>
	<path id="XMLID_1073_" class="st2" d="M391.4,203.9c4.2,2.8,8.4,5.6,12.7,8.3c1.4,3.4,3.1,6.7,4,10.2c0.8,2.8,1.4,5.9,0.9,8.6
		c-1.2,6.6-7.9,9.2-14.2,6.1c-1.7-0.9-3.2-2.1-4.8-3.1c0.2-0.5,0.3-1.1,0.6-1.4c0.8-0.8,1.8-1.4,2.7-2.1c0-0.8,0.1-1.7,0.1-2.5
		c-0.1-0.3-0.2-0.6-0.3-0.8c2.2,0.4,4.4,0.9,6.6,1.3c1.9,0.3,3.8,0.5,5.7,0.7c0.5-0.8,1.7-1.8,1.5-2.4c-0.8-2.3-2-4.4-3.1-6.6
		c0,0-0.3,0-0.4,0.1c-3.4,2.9-2-1.4-3.7-1.7c1.4-0.7,2.2-1.1,3.4-1.7c-2.1-2.6-3.6-5.5-5.9-6.9c-1.1-0.7-3.9,1.4-6.6,2.5
		C390.8,209.2,391.1,206.5,391.4,203.9z"/>
	<path id="XMLID_1072_" class="st18" d="M380.5,225.1c-0.9-1-1.9-2.1-2.8-3.1c-0.9-2.2-1.8-4.3-2.6-6.5c0,0-0.1,0-0.1,0
		c1.7-0.4,3.4-0.8,5.1-1.1c0.6,0.5,1.2,1,1.8,1.5c0.3-0.2,0.6-0.5,0.9-0.7c-1.9-2.6-3.8-5.2-5.7-7.7c-0.6-1.2-1.2-2.4-1.8-3.5
		c3.4,4.4,6.7,8.9,10.1,13.3c0.9,2.6,1.8,5.1,3.1,8.7C385.4,225.6,383,225.4,380.5,225.1z"/>
	<path id="XMLID_1071_" class="st15" d="M380.5,225.1c2.4,0.2,4.8,0.5,7.9,0.8c-1.3-3.6-2.2-6.1-3.1-8.7c1.5,1.8,2.9,3.6,4.4,5.5
		c1.1,1.5,2.2,3,3.3,4.5c0.1,0.3,0.2,0.5,0.3,0.8c-0.8-0.4-1.5-1-2.3-1.2c-1-0.2-2.2-0.4-3.2-0.1c-0.5,0.2-1.2,1.7-1,2.1
		c0.6,0.9,1.6,1.7,2.5,1.9c1.2,0.3,2.5-0.1,3.8-0.2c-0.9,0.7-1.9,1.4-2.7,2.1c-0.3,0.3-0.4,0.9-0.6,1.4
		C386.8,231,383.7,228.1,380.5,225.1z"/>
	<path id="XMLID_1070_" class="st4" d="M375.1,215.6c0.9,2.2,1.8,4.3,2.6,6.5c-1.5-1.6-3-3.3-4.4-4.9
		C373.9,216.6,374.5,216.1,375.1,215.6z"/>
	<path id="XMLID_1069_" class="st11" d="M283.5,241.1c-0.5,0.3-1,0.6-1.5,0.8c-0.1-0.2-0.1-0.3-0.2-0.5c0.6-0.2,1.1-0.3,1.7-0.5
		L283.5,241.1z"/>
	<path id="XMLID_1068_" class="st4" d="M380.2,214.4c-1.7,0.4-3.4,0.8-5.1,1.1c-6-2.7-7.7-8.9-11.1-13.7c-1.5-3.2-3-6.5-4.5-9.7
		c0.6,0.3,1.2,0.6,1.8,0.9c2.9,8,4.4,9.8,8.1,9.1c-1.2-1.2-3.4-2.8-3.2-3.5c1.5-4.5-1.8-5.1-4.5-6.3c1.1-1.1,2.2-2.2,3.3-3.3
		c2.8,5,5.5,9.9,8.3,14.9c0.2,0.6,0.4,1.3,0.6,1.9c0.2,0.2,0.4,0.4,0.4,0.7c0.2,0.3,0.5,0.5,0.7,0.8c0.2,0.1,0.4,0.2,0.5,0.4
		C377,209.9,378.6,212.1,380.2,214.4z"/>
	<path id="XMLID_1067_" class="st11" d="M374.2,206.5c-0.1-0.3-0.2-0.5-0.4-0.7c-0.2-0.6-0.4-1.3-0.6-1.9c-2.8-5-5.5-9.9-8.3-14.9
		c-0.5-1.2-1-2.3-1.5-3.5c-1.2,0.9-2.3,1.8-3.5,2.7c0,0.3-0.2,0.5-0.5,0.6c-0.6-0.8-1.1-1.6-1.7-2.5c0.6-1.1,1.1-2.3,1.7-3.4
		c0,0,0.4-0.2,0.4-0.2l0.3-0.3c1.4-0.2,2.8-0.5,4.2-0.7c3.7,7.4,7.4,14.7,11.1,22.1c0.6,1.2,1.2,2.4,1.8,3.5
		c-0.6,0.1-1.2,0.1-1.8,0.2c-0.1-0.2-0.3-0.3-0.5-0.4C374.7,207,374.5,206.7,374.2,206.5z"/>
	<path id="XMLID_1066_" class="st1" d="M363.4,185.6c0.5,1.2,1,2.3,1.5,3.5c-1.1,1.1-2.2,2.2-3.3,3.3c-0.1,0.2-0.3,0.4-0.4,0.7
		c-0.6-0.3-1.2-0.6-1.8-0.9c0-1.1,0-2.1,0-3.2c0.3-0.1,0.5-0.3,0.5-0.6C361.1,187.4,362.3,186.5,363.4,185.6z"/>
	<path id="XMLID_1065_" class="st13" d="M359.4,183c-0.6,1.1-1.1,2.3-1.7,3.4c-0.7-1.3-1.4-2.6-2.1-3.9c0.1-0.8,0.1-1.6,0.2-2.4
		C357,181.1,358.2,182.1,359.4,183z"/>
	<path id="XMLID_1063_" class="st5" d="M587.4,53.5c6.7-6,13.3-12.1,20-18c1.4-1.2,3.3-1.8,5-2.6c0.5,1.4,1,2.8,1.5,4.2
		c0.3,5.3,3.4,9.2,6.6,13c2.9,2.8,5.7,5.5,8.6,8.3c-0.9,1.4-1.5,3.1-2.8,4c-5.6,4.2-11.7,7.2-18.7,8.3c-1.9,0.3-3.6,1.9-5.4,2.9
		c-0.3,0.2-0.6,0.4-0.8,0.6c-0.9-2.3-1.8-4.5-2.8-6.8c0-1.2,0.1-2.3,0.1-3.5c-0.7-2.6-1.5-5.2-2.2-7.8c1.7,0,2.3,0.3,2.9,0.8
		c0.5,0.4,1,0.9,1.5,1.3c-2.1-4.4-2.1-4-6-3.5C592.5,54.9,589.9,53.9,587.4,53.5z"/>
	<path id="XMLID_1062_" class="st8" d="M613.9,37.1c-0.5-1.4-1-2.8-1.5-4.2c5.8,0.6,11.6,1.1,17.4,1.7c3.3,1.6,4.4,4.2,3.6,7.7
		c-1.3,5.4-2.9,10.8-4.3,16.1c-2.9-2.8-5.7-5.5-8.6-8.3c0.3-0.8,1.2-1.8,0.9-2.3c-1.6-3.5-3.3-6.9-5.2-10.3
		C616,37.1,614.7,37.3,613.9,37.1z"/>
	<path id="XMLID_1061_" class="st19" d="M601.5,74.2c0.3-0.2,0.6-0.4,0.8-0.6c-0.1,0.4-0.2,0.9-0.3,1.3
		C601.8,74.7,601.7,74.4,601.5,74.2z"/>
	<path id="XMLID_1053_" class="st1" d="M560,107c0.9-0.3,1.9-0.6,2.8-0.8C561.9,106.4,561,106.7,560,107z"/>
	<path id="XMLID_1050_" class="st4" d="M544.6,97.6C544.6,97.6,544.7,97.5,544.6,97.6c-1,3.3-3.4,0.9-5.2,1c-2.4,0-4.9,0-7.3,0
		c-1.5,0-3-0.1-4.5-0.1c0,1-0.1,2.9,0,2.9c1.5,0.2,3,0.2,4.5,0.2c1.1,0.5,2.2,0.9,3.3,1.4c-1.8,1.2-3.7,2.4-5.5,3.5
		c-1.7-1-3.3-1.9-5-2.9c0.2-1.2,0.3-2.5,0.5-3.7c0.3-1,0.3-2.2,0.9-2.8c1.5-1.5,4.5-4.1,4.9-3.9c3.4,2.8,3.6-0.2,4.5-2.1
		c2.6-5.8,3.2-6,8-1.7c0.3,0.3,0.7,0.5,1.1,0.7l0,0.4c-2.6,1.5-3.5,3.4-1,5.8C544.1,96.8,544.3,97.2,544.6,97.6z"/>
	<path id="XMLID_1049_" class="st4" d="M525.1,109.7c-2,2.3-4.1,3.9-7.1,1.4c-2.4-0.2-5.1-2.7-7.1,0.9c-1.9,1.5-3.8,3-5.7,4.6
		c-1.1,0-2.2,0-3.3-0.1c-0.8-0.1-1.6-0.3-2.3-0.4c5.9-3.8,11.8-7.6,17.8-11.3c0.4-0.2,1.3,0.5,2,0.8
		C521.3,106.9,523.2,108.3,525.1,109.7z"/>
	<path id="XMLID_1048_" class="st12" d="M525.1,109.7c-1.9-1.4-3.8-2.8-5.7-4.2c1.8-0.6,3.7-1.2,5.5-1.8c1.7,1,3.3,1.9,5,2.9
		C529.9,110,528.1,110.8,525.1,109.7z"/>
	<path id="XMLID_1047_" class="st11" d="M510.9,111.9c2-3.6,4.7-1.1,7.1-0.9c1.3,1.9,2.4,3.9-0.5,5.4c-1.4-0.5-2.8-1-4.1-1.5
		C512.6,114,511.7,113,510.9,111.9z"/>
	<path id="XMLID_1046_" class="st11" d="M532.1,98.7c2.4,0,4.9,0,7.3,0c0.3,0.4,0.6,0.8,0.9,1.2c0,0.4,0,0.8,0.1,1.2
		c-1.7,0.6-3.3,1.3-5,1.9c-1.1-0.5-2.2-0.9-3.3-1.4C532.1,100.7,532.1,99.7,532.1,98.7z"/>
	<path id="XMLID_1045_" class="st4" d="M540.4,101.1c0-0.4,0-0.8-0.1-1.2C540.3,100.3,540.4,100.7,540.4,101.1z"/>
	<path id="XMLID_1042_" class="st5" d="M483.3,149.7c-4.3,0.4-4.4-3.5-5.9-5.9c-0.1-0.2-0.1-0.4-0.2-0.7c1.4-1,2.9-2,4.3-3.1
		c0.2,0.2,0.4,0.4,0.7,0.6c1.6,2.1,3.1,4.3,4.7,6.4C485.7,148,484.5,148.9,483.3,149.7z"/>
	<path id="XMLID_1040_" class="st8" d="M557.6,77.7c0.1-0.2,0.2-0.5,0.4-0.7c1.4,0.8,2.8,1.5,4.2,2.3c1.1,1.1,2.3,2.3,3.4,3.4
		c-0.9,3.9-2.9,4.7-6.8,2.8c-0.6-0.3-1.1-0.6-1.7-0.9c-0.1-1.7-0.2-3.3-0.2-5c0,0,0-0.2,0-0.2C557.2,78.8,557.4,78.2,557.6,77.7z"/>
	<path id="XMLID_1039_" class="st15" d="M564.8,72.3c1.1-1.6,2.1-3.2,3.2-4.8c0.2,0.3,0.5,0.6,0.7,0.8c0.4,0.1,0.8,0.2,1.1,0.2l0,0
		c0.9-0.2,1.8-0.4,2.7-0.6c0.8,0.5,1.7,1.1,2.5,1.6c0.1,0.7,0.1,1.3,0.2,2c-0.8,0.3-1.6,0.7-2.4,1C570.1,72.5,567.4,72.4,564.8,72.3
		z"/>
	<path id="XMLID_1037_" class="st12" d="M583.9,64.1c0.4,0,0.8-0.1,1.2-0.1c1.2,1.7,2.5,3.3,3.7,5c-0.5,3.8-2.9,1.1-4.5,1.4
		C580.6,68.6,582.1,66.3,583.9,64.1z"/>
	<path id="XMLID_1036_" class="st4" d="M588.9,69c-1.2-1.7-2.5-3.3-3.7-5c0.1-0.9,0.2-1.8,0.3-2.6c4.7-5.9,9.3-5.4,12.3,1.3
		c-0.7-0.7-1.4-1.9-2.2-2c-1.3-0.3-2.8,0.1-4.2,0.2c0.7,1.1,1.1,2.8,2.1,3.2c1.5,0.6,3.3,0.2,5,0.2l0.2-0.2l0.2-0.2
		c0,1.2-0.1,2.3-0.1,3.5C595.4,67.9,592.2,68.4,588.9,69z"/>
	<path id="XMLID_1033_" class="st4" d="M482.2,140.7c-0.2-0.2-0.4-0.4-0.7-0.6c-1,0-2,0-3.1,0c2-4.2-0.3-5.1-3.9-5.1
		c0-1-0.5-2.3,0-2.9c2.5-3.2,5.1-6.2,7.7-9.3c2.3,1.2,4.9,3,5.4-1.7c2.3-1.4,4.7-2.7,7-4.1c1.9,0.5,3.7,1,5.6,1.6
		c0.3,0.5,0.5,1,0.8,1.6c0.1,2.5,0.2,5,0.3,7.6c-2,0.4-5.2-1.2-4.5,3.1c-1.7,0.7-3.3,1.5-5,2.2c-2.1,1-4.3,2-6.4,3
		c0,0,0.2,0.5,0.3,0.7C484.6,138.1,483.4,139.4,482.2,140.7z M488.5,133c0.1-0.9,0.2-1.7,0.3-2.6c-1.9-0.3-3.7-0.6-5.6-0.7
		c-0.2,0-0.4,1.7-0.6,2.6C484.6,132.5,486.6,132.8,488.5,133z"/>
	<path id="XMLID_1032_" class="st5" d="M485.9,136.8c-0.1-0.3-0.3-0.7-0.3-0.7c2.1-1,4.2-2,6.4-3c1.3,1.8,2.6,3.5,4,5.3
		c-2.2,1.6-4.4,3.2-6.8,5C487.9,140.9,486.9,138.8,485.9,136.8z"/>
	<path id="XMLID_1031_" class="st4" d="M556.9,79.5c0.1,1.7,0.2,3.3,0.2,5c-4.7,0.2-5.3,1-4,5.2c-1.6,0.4-3.1,0.8-4.7,1.2
		c-1.2-0.1-2.5-0.2-3.7-0.3l0-0.4c1.4-3.5,2.8-7,4.1-10.5c0.7,1.1,1.3,2.2,2.2,3.6C553,82,555,80.8,556.9,79.5z"/>
	<path id="XMLID_1030_" class="st1" d="M544.6,97.6c-0.3-0.4-0.6-0.8-0.9-1.3C544.1,96.8,544.3,97.2,544.6,97.6z"/>
	<path id="XMLID_1029_" class="st8" d="M510.9,111.9c0.8,1,1.7,2.1,2.5,3.1c0.3,4.6-3.6,2.4-5.5,3.3c-0.9-0.6-1.8-1.3-2.7-1.9
		C507.1,115,509,113.5,510.9,111.9z"/>
	<path id="XMLID_1028_" class="st11" d="M505.2,116.5c0.9,0.6,1.8,1.3,2.7,1.9c0.1,0.3,0.3,0.6,0.4,1c-0.9,1-1.9,2-2.8,3
		c-1.5-0.7-3-1.5-4.5-2.2c-0.3-0.5-0.5-1-0.8-1.6c0.5-0.7,1.1-1.4,1.6-2.2C503,116.5,504.1,116.5,505.2,116.5z"/>
	<path id="XMLID_957_" class="st19" d="M493.9,105.5c0.4,0,0.8,0.1,1.2,0.1C494.8,105.6,494.3,105.6,493.9,105.5z"/>
	<path id="XMLID_954_" class="st14" d="M375.4,203.9c-3.7-7.4-7.4-14.7-11.1-22.1c-0.2-2.8-0.4-5.6-0.6-8.4c3,0.6,4.9,1.9,5.4,5.3
		c0.2,1.3,2.6,2.2,4,3.3l0,0c2.5,4.3,4.9,8.7,7.5,12.9c0.3,0.5,1.7,0.5,2.6,0.7c0.2,0.2,0.4,0.4,0.6,0.6c1.1,0,2.2,0,3.3,0
		c0.1,0.3,0.3,0.5,0.4,0.8c1.2,1.9,2.4,3.8,3.6,5.7c0.2,0.4,0.3,0.8,0.5,1.2c-0.3,2.6-0.5,5.3-0.9,8.5c2.7-1.1,5.5-3.2,6.6-2.5
		c2.4,1.4,3.8,4.3,5.9,6.9c-1.2,0.6-2,1-3.4,1.7c1.6,0.3,0.3,4.7,3.7,1.7c0.1-0.1,0.4-0.1,0.4-0.1c1.1,2.2,2.3,4.3,3.1,6.6
		c0.2,0.6-0.9,1.6-1.5,2.4c-0.5-0.7-1-1.4-1.6-2.1c-1.7-2.2-2.8-5.3-6.8-3.8c-0.6,0.2-1.6-0.9-2.4-0.9c-1.6,0-3.2,0.3-4.8,0.4
		c-1.5-1.8-2.9-3.6-4.4-5.5C382.1,212.8,378.7,208.4,375.4,203.9z"/>
	<path id="XMLID_943_" class="st1" d="M389.8,222.7c1.6-0.2,3.2-0.4,4.8-0.4c0.8,0,1.8,1.1,2.4,0.9c3.9-1.6,5.1,1.5,6.8,3.8
		c0.5,0.7,1.1,1.4,1.6,2.1c-1.9-0.2-3.8-0.4-5.7-0.7c-2.2-0.4-4.4-0.8-6.6-1.3C392,225.7,390.9,224.2,389.8,222.7z"/>
	<path id="XMLID_942_" class="st9" d="M393.3,230.5c-1.3,0.1-2.6,0.5-3.8,0.2c-1-0.2-2-1.1-2.5-1.9c-0.2-0.4,0.4-1.9,1-2.1
		c1-0.3,2.1-0.1,3.2,0.1c0.8,0.2,1.6,0.8,2.3,1.2C393.4,228.8,393.3,229.6,393.3,230.5z"/>
	<path id="XMLID_941_" class="st8" d="M375.4,207.6c0.6-0.1,1.2-0.1,1.8-0.2c1.9,2.6,3.8,5.2,5.7,7.7c-0.3,0.2-0.6,0.5-0.9,0.7
		c-0.6-0.5-1.2-1-1.8-1.5C378.6,212.1,377,209.9,375.4,207.6z"/>
	<path id="XMLID_937_" class="st1" d="M373,182c-1.4-1.1-3.8-2-4-3.3c-0.6-3.4-2.4-4.7-5.4-5.3c0.2-1.6,0.4-3.2,0.6-4.8
		c1.4-1.1,2.8-2.1,4.2-3.2c3.8,3.1,7.6,6.2,11.4,9.4c-0.4,1.6-0.7,3.1-1.1,4.7c-3.2-0.4-4.8,0.2-2.7,3.7c2.4,4.1,4.6,8.3,7,12.4
		c-0.9-0.2-2.2-0.1-2.6-0.7C377.9,190.7,375.5,186.3,373,182c0-0.1,0-0.3-0.1-0.4C373,181.8,373,181.9,373,182z"/>
	<path id="XMLID_378_" class="st15" d="M387.5,189.2c-0.2,0.9-0.4,1.7-0.6,2.6c-1.1,1.5-2.1,3-3.2,4.4c-0.2-0.2-0.4-0.4-0.6-0.6
		c-2.3-4.1-4.5-8.3-7-12.4c-2.1-3.5-0.5-4.2,2.7-3.7c0.4-1.6,0.7-3.2,1.1-4.7c2.2,1,4.5,2,6.8,3"/>
	<path id="XMLID_935_" class="st8" d="M368.5,165.4c-1.4,1.1-2.8,2.1-4.2,3.2c-0.4-0.1-0.8-0.1-1.2-0.2c-5.1,1.9-6.4,6.6-2.9,11
		c0,1,0,2.1,0,3.1l-0.3,0.3c0,0-0.4,0.2-0.4,0.2c-1.2-0.9-2.4-1.9-3.7-2.8c-1.5-7.1,2.2-14.7,8.1-15.9
		C365.3,164,366.9,165,368.5,165.4z"/>
	<path id="XMLID_933_" class="st8" d="M361.3,193c0.1-0.2,0.2-0.5,0.4-0.7c2.7,1.2,6.1,1.8,4.5,6.3c-0.2,0.7,2,2.2,3.2,3.5
		C365.7,202.8,364.2,201,361.3,193z"/>
	<path id="XMLID_932_" class="st8" d="M373.2,203.9c0.2,0.6,0.4,1.3,0.6,1.9C373.6,205.2,373.4,204.5,373.2,203.9z"/>
	<path id="XMLID_931_" class="st8" d="M374.2,206.5c0.2,0.3,0.5,0.5,0.7,0.8C374.7,207,374.5,206.7,374.2,206.5z"/>
	<path id="XMLID_930_" class="st12" d="M363.1,168.4c0.4,0.1,0.8,0.1,1.2,0.2c-0.2,1.6-0.4,3.2-0.6,4.8c0.2,2.8,0.4,5.6,0.6,8.4
		c-1.4,0.2-2.8,0.5-4.2,0.7c0-1,0-2.1,0-3.1c0.5-0.8,1.2-1.5,1.4-2.4C362.1,174.2,362.6,171.3,363.1,168.4z"/>
	<path id="XMLID_929_" class="st10" d="M363.4,185.6c-1.2,0.9-2.3,1.8-3.5,2.7C361.1,187.4,362.3,186.5,363.4,185.6z"/>
	<path id="XMLID_926_" class="st1" d="M597.7,62.6c-2.9-6.7-7.5-7.2-12.3-1.3c-0.3-2.1-0.6-4.2-0.8-6.3c0.9-0.5,1.9-1,2.8-1.5
		c2.5,0.4,5.1,1.4,7.5,1.1c3.9-0.5,3.9-0.9,6,3.5c-0.5-0.4-0.9-0.9-1.5-1.3c-0.6-0.4-1.2-0.7-2.9-0.8c0.7,2.6,1.5,5.2,2.2,7.8
		l-0.2,0.2l-0.2,0.2C598.1,63.7,597.9,63.1,597.7,62.6z"/>
	<path id="XMLID_925_" class="st11" d="M613.9,37.1c0.8,0.1,2.1,0,2.4,0.4c1.9,3.3,3.6,6.8,5.2,10.3c0.2,0.5-0.6,1.5-0.9,2.3
		C617.3,46.3,614.2,42.4,613.9,37.1z"/>
	<path id="XMLID_922_" class="st15" d="M507.9,106.4c1.1-0.7,2.5-2.1,3.4-1.8c3.5,1,4.5-1,5.4-3.6c0.8-2.1,2.1-3.1,4.5-1.9
		c1.2,0.6,2.7,0.6,4.1,0.9c-0.2,1.2-0.3,2.5-0.5,3.7c-1.8,0.6-3.7,1.2-5.5,1.8c-0.7-0.3-1.7-1-2-0.8c-6,3.7-11.8,7.5-17.8,11.3
		c0.7,0.1,1.5,0.3,2.3,0.4c-0.5,0.7-1.1,1.4-1.6,2.2c-1.9-0.5-3.7-1-5.6-1.6c1.7-1.2,3.3-2.5,5-3.7c1.8-1.5,3.5-3,5.3-4.6
		C507.4,109.7,508.5,109.1,507.9,106.4z"/>
	<path id="XMLID_921_" class="st8" d="M532.1,98.7c0,1,0,2,0,3c-1.5,0-3,0.1-4.5-0.2c-0.2,0,0-1.9,0-2.9
		C529.1,98.6,530.6,98.6,532.1,98.7z"/>
	<path id="XMLID_920_" class="st14" d="M462.2,154.3c-0.7,0-1.8-0.2-2,0.1c-1.1,2-2,4.1-2.8,6.3c-1.2,3.5-3.1,3.1-4.4,0.4
		c-1.3-2.8-1.6-5.9-2.4-9.2c0.2-0.1-0.8,0.4-1.7,0.8c-0.3-2.6-0.7-5.3-1-7.9c0.7-1,1.3-2.1,2.2-2.9c0.3-0.3,1.2-0.1,1.9-0.2
		c0.4,0.5,0.7,1,1.1,1.6c0.3,0.4,0.6,0.8,0.9,1.2c0,0.4-0.1,0.8-0.1,1.2c0,0.4-0.1,0.9-0.1,1.3c-0.6,3.9,0.8,5.9,4.9,5.4
		c1.2,0.4,2.4,0.9,3.6,1.3C462.2,154,462.2,154.2,462.2,154.3z"/>
	<path id="XMLID_377_" class="st2" d="M447.9,144.9c0.3,2.6,0.7,5.3,1,7.9c-1.5,4-2.9,8-4.4,12.1c-0.7-0.8-1.4-1.6-2.1-2.4
		c0-1.7-0.3-3.6,0.2-5.2c1.4-4.2,3.2-8.2,4.9-12.3L447.9,144.9z"/>
	<path id="XMLID_376_" class="st14" d="M466.7,151.1c0.4,0.8,1.2,1.5,1.2,2.3c0,1.3-0.5,2.6-0.8,3.9c-1.2-0.4-2.4-0.7-3.5-1.2
		c-0.6-0.3-0.9-1.1-1.4-1.7c0-0.2,0-0.3,0.1-0.5c0.1-0.9,0.2-1.9,0.3-3.1c1.3,0.1,2.5,0.2,3.8,0.3L466.7,151.1z"/>
	<path id="XMLID_375_" class="st14" d="M457,166.7c-2.9,1-4.1,5.6-8.2,3.9C451.5,169.4,454.3,168,457,166.7z"/>
	<path id="XMLID_374_" class="st14" d="M467,147.1c-0.1,1.3-0.2,2.7-0.3,4c0,0-0.4-0.1-0.4-0.1c0.1-1.6,0.1-3.1,0.2-4.7l0.2,0
		C466.8,146.5,466.9,146.8,467,147.1z"/>
	<path id="XMLID_373_" class="st4" d="M467,147.1c-0.1-0.3-0.2-0.5-0.3-0.8c0.6-0.2,1.2-0.5,1.9-0.7c0,0.3,0,0.6-0.1,1
		C468,146.7,467.5,146.9,467,147.1z"/>
	<path id="XMLID_372_" class="st4" d="M468.9,145.6c0.1,0.5,0.1,1,0.2,1.5c-0.2-0.2-0.4-0.3-0.6-0.5c0-0.3,0-0.6,0.1-1L468.9,145.6z
		"/>
	<path id="XMLID_371_" class="st11" d="M468.9,145.6l-0.4,0c-0.6,0.2-1.2,0.4-1.9,0.7l-0.2,0c-2-1.3-4-2.5-6-3.8
		c0.2-0.2,0.3-0.4,0.4-0.6c1.5-0.4,3.1-1.2,4.5-1.1c1.2,0.1,3.5-2.1,3.9,1.2c0,1.1,0,2.1,0.1,3.2l-0.2,0.2L468.9,145.6z"/>
	<path id="XMLID_370_" class="st15" d="M469.3,145.2c0-1.1,0-2.1-0.1-3.2c0.9-0.9,1.9-1.8,2.8-2.7c1.2,0.5,2.3,1,3.5,1.4
		c0.5,0.8,1.1,1.6,1.6,2.4c0.1,0.2,0.1,0.4,0.2,0.7C474.7,144.3,472,144.7,469.3,145.2z"/>
	<path id="XMLID_369_" class="st14" d="M477.2,143.1c-0.5-0.8-1.1-1.6-1.6-2.4c1-0.2,1.9-0.4,2.9-0.7c1,0,2,0,3.1,0
		C480,141.1,478.6,142.1,477.2,143.1z"/>
	<path id="XMLID_368_" class="st4" d="M557.6,77.7c-0.2,0.6-0.5,1.1-0.7,1.7C557.2,78.8,557.4,78.2,557.6,77.7z"/>
	<path id="XMLID_367_" class="st2" d="M569.8,68.6c0.9-0.2,1.8-0.4,2.7-0.6C571.6,68.2,570.7,68.4,569.8,68.6z"/>
	<path id="XMLID_366_" class="st2" d="M568.6,68.4c0.4,0.1,0.8,0.2,1.1,0.2C569.4,68.5,569,68.5,568.6,68.4z"/>
	<path id="XMLID_365_" class="st11" d="M597.7,62.6c0.2,0.5,0.4,1.1,0.7,1.6c-1.7,0-3.5,0.3-5-0.2c-1-0.4-1.4-2.1-2.1-3.2
		c1.4-0.1,2.9-0.5,4.2-0.2C596.3,60.8,597,61.9,597.7,62.6z"/>
	<path id="XMLID_364_" class="st11" d="M471.6,136.7c1-0.6,2-1.2,3-1.8c3.6-0.1,5.9,0.9,3.9,5.1c-1,0.2-1.9,0.4-2.9,0.7
		c-1.2-0.5-2.3-1-3.5-1.4C471.9,138.4,471.7,137.6,471.6,136.7z"/>
	<path id="XMLID_363_" class="st10" d="M488.5,133c-1.9-0.2-3.9-0.5-5.8-0.7c0.2-0.9,0.4-2.6,0.6-2.6c1.9,0.1,3.7,0.4,5.6,0.7
		C488.7,131.3,488.6,132.1,488.5,133z"/>
	<path id="XMLID_362_" class="st1" d="M507.9,106.4c0.5,2.7-0.5,3.3-2.9,2.4C506,108,507,107.2,507.9,106.4z"/>
	<path id="XMLID_361_" class="st1" d="M383.6,196.2c1.1-1.5,2.1-3,3.2-4.4l0,0c0.1,0.2,0.2,0.4,0.4,0.5c-0.1,1.3-0.2,2.6-0.3,3.9
		C385.8,196.2,384.7,196.2,383.6,196.2z"/>
	<path id="XMLID_360_" class="st1" d="M386.8,191.8c0.2-0.9,0.4-1.7,0.6-2.6c0,0.7-0.1,1.5-0.1,2.2
		C387.1,191.5,387,191.6,386.8,191.8L386.8,191.8z"/>
	<path id="XMLID_359_" class="st15" d="M386.9,191.8c0.1-0.2,0.3-0.3,0.5-0.4c0,0.3-0.1,0.6-0.1,0.9
		C387.1,192.2,386.9,192,386.9,191.8z"/>
	<path id="XMLID_358_" class="st14" d="M373,182c0-0.1,0-0.3-0.1-0.4C373,181.8,373,181.9,373,182L373,182z"/>
	<path id="XMLID_357_" class="st20" d="M363.1,168.4c-0.5,2.9-0.9,5.8-1.5,8.6c-0.2,0.9-0.9,1.6-1.4,2.4
		C356.7,175,357.9,170.3,363.1,168.4z"/>
	<path id="XMLID_356_" class="st13" d="M446.4,174.8c-0.4-0.6-0.8-1.3-1.2-1.9C445.6,173.5,446,174.2,446.4,174.8z"/>
	<path id="XMLID_355_" class="st4" d="M460.4,142.5c2,1.3,4,2.5,6,3.8c-0.1,1.6-0.1,3.1-0.2,4.7c-1.3-0.1-2.5-0.2-3.8-0.3
		c-0.1,1.3-0.2,2.2-0.3,3.1c-1.2-0.4-2.4-0.9-3.6-1.3c2.9-1.8,0.5-3.2-0.4-4.8c-1.3-2.3-2.8-2-4.6-0.7c0-0.4,0.1-0.9,0.1-1.3
		C456.1,144.7,458.2,143.6,460.4,142.5z"/>
	<path id="XMLID_354_" class="st8" d="M453.7,147.1c1.7-1.4,3.3-1.7,4.6,0.7c0.9,1.6,3.3,2.9,0.4,4.8
		C454.5,153,453.1,151,453.7,147.1z"/>
	<path id="XMLID_353_" class="st18" d="M460.4,142.5c-2.2,1.1-4.4,2.2-6.6,3.4c0-0.4,0.1-0.8,0.1-1.2c0.6-0.8,1.1-1.6,1.7-2.4
		c-0.2-0.1-0.4-0.3-0.5-0.4c-0.7,0.5-1.4,1-2.1,1.5c-0.4-0.5-0.7-1-1.1-1.6c1-1.1,2-2.2,3.1-3.3c1.9,1.1,3.9,2.3,5.8,3.4
		C460.8,142.1,460.6,142.3,460.4,142.5z"/>
	<path id="XMLID_352_" class="st2" d="M453.1,143.4c0.7-0.5,1.4-1,2.1-1.5c0.2,0.1,0.4,0.3,0.5,0.4c-0.6,0.8-1.1,1.6-1.7,2.4
		C453.7,144.2,453.4,143.8,453.1,143.4z"/>
	<path id="XMLID_351_" class="st18" d="M462,138.9c0,0.1,0,0.2,0,0.4C462,139.1,462,139,462,138.9L462,138.9z"/>
	<path id="XMLID_350_" class="st1" d="M539.4,98.7c1.8-0.2,4.1,2.2,5.2-1.1c1.3-0.1,2.7-0.2,4-0.3c0.6,3.2,1.3,6.5,2.2,11"/>
	<path id="XMLID_349_" class="st4" d="M576.7,78.2c0.5,1.3,1.4,2.7,1.5,4.1c0.1,0.8-1,2.4-1.5,2.4c-2.6-0.2-5.3-0.9-7.9-1.4
		c0.1-1.1,0.5-2.9,0.1-3.1c-2.1-1.1-4.2-3.7-6.9-0.9c-1.4-0.8-2.8-1.5-4.2-2.3c0.3-0.8,0.5-1.5,0.9-2.5c1.3,1,2.4,1.9,3.4,2.6
		c0.9-1.8,1.7-3.3,2.5-4.8c2.7,0.1,5.4,0.2,8,0.3c-1.6,1.3-2.1,2.5,0.1,3.6C574.1,76.9,575.4,77.6,576.7,78.2z"/>
	<path id="XMLID_348_" class="st4" d="M583,77.4c-1.6,0-3.2-0.1-4.8-0.1c0.5-2.7,1.1-5.5-3.1-5.6c-0.1-0.7-0.1-1.3-0.2-2
		c1.2-3.1,2.5-6.2,3.7-9.4c2.3,1.7,3.7,2.8,5.2,3.8c-1.8,2.3-3.3,4.5,0.5,6.3C586.3,73.2,583.7,75.1,583,77.4z"/>
	<path id="XMLID_347_" class="st1" d="M583,77.4c0.7-2.3,3.2-4.2,1.3-7c1.5-0.3,4,2.4,4.5-1.4c3.3-0.5,6.6-1.1,9.8-1.6
		c0.9,2.3,1.8,4.5,2.8,6.8c0.2,0.3,0.4,0.5,0.5,0.8c0,0.3-0.1,0.6-0.1,0.9c-1.3-0.1-2.8,0.2-3.8-0.4c-1.3-0.7-2.3-2-3.4-3.1
		c-1.1-0.6-2.2-1.1-4-2c-0.5,2.2-0.8,4-1.2,5.8C587.5,77.2,585.9,80.8,583,77.4z"/>
	<path id="XMLID_346_" class="st15" d="M551.4,96.5c-0.6,0.1-1.3,0.1-1.9,0.2c-0.4-1.9-0.8-3.8-1.2-5.7c1.6-0.4,3.1-0.8,4.7-1.2
		c1.4,0.5,2.9,0.9,4.3,1.4c0.1,0.6,0.2,1.3,0.3,1.9c-1.3,1.7-2.7,3.3-4,5l0,0C552.9,97.5,552.2,97,551.4,96.5z"/>
	<path id="XMLID_345_" class="st12" d="M548.3,91c0.4,1.9,0.8,3.8,1.2,5.7c-0.3,0.2-0.6,0.4-0.9,0.6c-1.3,0.1-2.7,0.2-4,0.3
		l-0.1,0.1c-0.3-0.4-0.6-0.8-0.9-1.3c-2.5-2.4-1.6-4.2,1-5.8C545.9,90.7,547.1,90.8,548.3,91z"/>
	<path id="XMLID_344_" class="st1" d="M566.1,83.2c0.5,1.2,1.3,2.4,1.3,3.6c0,1.4-0.3,3.5-1.3,4c-0.9,0.5-2.7-0.5-4.1-1
		c-0.9-0.4-1.6-1.1-2.4-1.7c-0.3-0.9-0.6-1.8-0.9-2.6c3.9,1.9,5.9,1,6.8-2.8C565.8,82.8,566,83,566.1,83.2z"/>
	<path id="XMLID_343_" class="st12" d="M558.7,85.5c0.3,0.9,0.6,1.8,0.9,2.6c-0.8,1-1.5,2-2.3,3c-1.4-0.5-2.9-0.9-4.3-1.4
		c-1.3-4.2-0.6-5.1,4-5.2C557.6,84.9,558.2,85.2,558.7,85.5z"/>
	<path id="XMLID_342_" class="st5" d="M589.5,76.2c0.4-1.8,0.7-3.6,1.2-5.8c1.7,0.9,2.8,1.5,4,2c-0.3,1.7-0.7,3.5-1,5.2
		C592.3,77.1,590.9,76.7,589.5,76.2z"/>
	<path id="XMLID_341_" class="st11" d="M575.1,71.7c4.2,0.2,3.6,2.9,3.1,5.6c-0.5,0.3-1,0.6-1.5,0.9c-1.3-0.6-2.6-1.3-3.9-1.9
		c-2.2-1.1-1.7-2.4-0.1-3.6C573.5,72.3,574.3,72,575.1,71.7z"/>
	<path id="XMLID_340_" class="st11" d="M566.1,83.2c-0.1-0.2-0.3-0.4-0.6-0.5c-1.1-1.1-2.3-2.3-3.4-3.4c2.7-2.8,4.8-0.2,6.9,0.9
		c0.4,0.2-0.1,2-0.1,3.1C568,83.3,567,83.2,566.1,83.2z"/>
	<path id="XMLID_339_" class="st2" d="M553.7,98c1.3-1.7,2.7-3.3,4-5c0.8,1.9,1.6,3.8,2.3,5.8c-0.3,0.4-0.7,0.8-1,1.2
		C557.2,99.3,555.5,98.6,553.7,98z"/>
	<path id="XMLID_338_" class="st2" d="M551.4,96.5c0.8,0.5,1.5,1,2.3,1.5C552.9,97.5,552.2,97,551.4,96.5z"/>
	<path id="XMLID_337_" class="st5" d="M587.3,53.6c6.7-6,13.3-12.1,20-18c1.4-1.2,3.3-1.8,5-2.6c0.5,1.4,1,2.8,1.5,4.2
		c0.3,5.3,3.4,9.2,6.6,13c2.9,2.8,5.7,5.5,8.6,8.3c-0.9,1.4-1.5,3.1-2.8,4c-5.6,4.2-11.7,7.2-18.7,8.3c-1.9,0.3-3.6,1.9-5.4,2.9
		c-0.3,0.2-0.6,0.4-0.8,0.6c-0.9-2.3-1.8-4.5-2.8-6.8c0-1.2,0.1-2.3,0.1-3.5c-0.7-2.6-1.5-5.2-2.2-7.8c1.7,0,2.3,0.3,2.9,0.8
		c0.5,0.4,1,0.9,1.5,1.3c-2.1-4.4-2.1-4-6-3.5C592.4,55,589.8,54,587.3,53.6z"/>
	<path id="XMLID_336_" class="st8" d="M613.8,37.2c-0.5-1.4-1-2.8-1.5-4.2c5.8,0.6,11.6,1.1,17.4,1.7c3.3,1.6,4.4,4.2,3.6,7.7
		c-1.3,5.4-2.9,10.8-4.3,16.1c-2.9-2.8-5.7-5.5-8.6-8.3c0.3-0.8,1.2-1.8,0.9-2.3c-1.6-3.5-3.3-6.9-5.2-10.3
		C616,37.1,614.6,37.3,613.8,37.2z"/>
	<path id="XMLID_335_" class="st19" d="M601.4,74.2c0.3-0.2,0.6-0.4,0.8-0.6c-0.1,0.4-0.2,0.9-0.3,1.3
		C601.7,74.7,601.6,74.5,601.4,74.2z"/>
	<path id="XMLID_334_" class="st4" d="M535.5,91.3c2.6-5.8,3.2-6,8-1.7c0.3,0.3,0.7,0.5,1.1,0.7l0,0.4c-2.6,1.5-3.5,3.4-1,5.8
		c0.3,0.4,0.6,0.8,0.9,1.3l0.1-0.1c-1.1,3.4-3.4,1-5.2,1.1"/>
	<path id="XMLID_333_" class="st8" d="M557.5,77.7c0.1-0.2,0.2-0.5,0.4-0.7c1.4,0.8,2.8,1.5,4.2,2.3c1.1,1.1,2.3,2.3,3.4,3.4
		c-0.9,3.9-2.9,4.7-6.8,2.8c-0.6-0.3-1.1-0.6-1.7-0.9c-0.1-1.7-0.2-3.3-0.2-5c0,0,0-0.2,0-0.2C557.1,78.8,557.3,78.3,557.5,77.7z"/>
	<path id="XMLID_332_" class="st15" d="M564.7,72.3c1.1-1.6,2.1-3.2,3.2-4.8c0.2,0.3,0.5,0.6,0.7,0.8c0.4,0.1,0.8,0.2,1.1,0.2l0,0
		c0.9-0.2,1.8-0.4,2.7-0.6c0.8,0.5,1.7,1.1,2.5,1.6c0.1,0.7,0.1,1.3,0.2,2c-0.8,0.3-1.6,0.7-2.4,1C570,72.6,567.3,72.5,564.7,72.3z"
		/>
	<path id="XMLID_331_" class="st12" d="M583.8,64.1c0.4,0,0.8-0.1,1.2-0.1c1.2,1.7,2.5,3.3,3.7,5c-0.5,3.8-2.9,1.1-4.5,1.4
		C580.5,68.6,582,66.4,583.8,64.1z"/>
	<path id="XMLID_330_" class="st4" d="M588.8,69c-1.2-1.7-2.5-3.3-3.7-5c0.1-0.9,0.2-1.8,0.3-2.6c4.7-5.9,9.3-5.4,12.3,1.3
		c-0.7-0.7-1.4-1.9-2.2-2c-1.3-0.3-2.8,0.1-4.2,0.2c0.7,1.1,1.1,2.8,2.1,3.2c1.5,0.6,3.3,0.2,5,0.2l0.2-0.2l0.2-0.2
		c0,1.2-0.1,2.3-0.1,3.5C595.3,67.9,592.1,68.5,588.8,69z"/>
	<path id="XMLID_329_" class="st4" d="M556.8,79.6c0.1,1.7,0.2,3.3,0.2,5c-4.7,0.2-5.3,1-4,5.2c-1.6,0.4-3.1,0.8-4.7,1.2
		c-1.2-0.1-2.5-0.2-3.7-0.3l0-0.4c1.4-3.5,2.8-7,4.1-10.5c0.7,1.1,1.3,2.2,2.2,3.6C552.9,82,554.9,80.8,556.8,79.6z"/>
	<path id="XMLID_328_" class="st1" d="M544.5,97.7c-0.3-0.4-0.6-0.8-0.9-1.3C544,96.8,544.3,97.2,544.5,97.7z"/>
	<path id="XMLID_327_" class="st1" d="M597.6,62.6c-2.9-6.7-7.5-7.2-12.3-1.3c-0.3-2.1-0.6-4.2-0.8-6.3c0.9-0.5,1.9-1,2.8-1.5
		c2.5,0.4,5.1,1.4,7.5,1.1c3.9-0.5,3.9-0.9,6,3.5c-0.5-0.4-0.9-0.9-1.5-1.3c-0.6-0.4-1.2-0.7-2.9-0.8c0.7,2.6,1.5,5.2,2.2,7.8
		l-0.2,0.2l-0.2,0.2C598,63.7,597.8,63.2,597.6,62.6z"/>
	<path id="XMLID_326_" class="st11" d="M613.8,37.2c0.8,0.1,2.1,0,2.4,0.4c1.9,3.3,3.6,6.8,5.2,10.3c0.2,0.5-0.6,1.5-0.9,2.3
		C617.2,46.3,614.1,42.5,613.8,37.2z"/>
	<path id="XMLID_325_" class="st4" d="M557.5,77.7c-0.2,0.6-0.5,1.1-0.7,1.7C557.1,78.8,557.3,78.3,557.5,77.7z"/>
	<path id="XMLID_324_" class="st2" d="M569.7,68.7c0.9-0.2,1.8-0.4,2.7-0.6C571.5,68.3,570.6,68.5,569.7,68.7z"/>
	<path id="XMLID_323_" class="st2" d="M568.5,68.4c0.4,0.1,0.8,0.2,1.1,0.2C569.3,68.6,568.9,68.5,568.5,68.4z"/>
	<path id="XMLID_322_" class="st11" d="M597.6,62.6c0.2,0.5,0.4,1.1,0.7,1.6c-1.7,0-3.5,0.3-5-0.2c-1-0.4-1.4-2.1-2.1-3.2
		c1.4-0.1,2.9-0.5,4.2-0.2C596.2,60.8,596.9,61.9,597.6,62.6z"/>
	<path id="XMLID_319_" class="st2" d="M624.2,65c-3.4,2.5-8.6,5.2-16.1,6.9c-7.8,5.2-200.4,132.9-220.7,141.1l-0.8,0.3l-5.1-6.9
		l0.1-0.5c0.8-5.3,3.5-22.6,7.4-24.8c2.2-1.3,179.9-112.3,197.7-128.4c0.1-0.1,0.4-0.4,0.9-0.8c22-20.4,24-20.2,25-20.1
		c12.5,1.2,19.7,2.7,21.2,4.5c2.8,3.3-1.9,18.1-3.5,22.5L630,59C629.9,59.2,628.3,61.9,624.2,65z M387.3,210.4
		c22.8-10,218.3-139.7,219.7-140.6l0.2-0.1l0.2,0c14.8-3.1,20.1-10.8,20.6-11.7c2.9-8.5,5.2-18.6,3.8-20.2
		c-0.6-0.7-5.4-2.3-19.6-3.7c-0.6,0.1-4.1,1.8-23.2,19.5c-0.4,0.4-0.7,0.7-0.9,0.8C570,70.7,394.8,180.2,390,183.1l-0.1,0
		c-2,1-4.7,12.4-6.1,22.6L387.3,210.4z"/>
	<path id="XMLID_318_" class="st2" d="M387.3,179.2l-8.1-3.6l-0.2-0.2c-0.1-0.1-10.7-13-17.5-9c-7,4.1-6.1,19-4.1,25.6
		c2,6.5,14.6,23.7,27.3,35.3c9.2,8.4,16.1,10.1,19.5,8.9c1.8-0.6,3-2.1,3.4-4.4c1.3-7.5-4.5-19.1-4.5-19.2l2-1
		c0.3,0.5,6.2,12.3,4.7,20.6c-0.4,2.3-1.4,4-3,5.2c-0.6,0.4-1.2,0.8-1.9,1c-5.2,1.8-13.4-1.7-21.8-9.4c-13.2-12-25.8-29.4-27.9-36.3
		c-2.2-7.5-3-23.4,5.1-28.2c8-4.7,18.7,7.4,20.3,9.3l5.5,2.4l4.8,4.8l-0.9,2.1L387.3,179.2z"/>
	<path id="XMLID_315_" class="st2" d="M371.6,215.7l-1.1,0.7c-0.5,0.3-47.3,31.1-131,73.6C155.1,332.9,70.7,356.1,59,357.8
		c-11.9,1.8-34.2-16.6-35.2-17.4l-2.1-1.7l2.7-0.3c30-3,80-21.6,156.2-52.7c74-30.3,172.9-93.3,173.9-93.9l1.2-0.8l0.5,1.3
		c3.2,8.9,14.4,22.2,14.5,22.4L371.6,215.7z M27.4,340.4c5.9,4.5,22.3,16.5,31.2,15.2c11.6-1.7,95.6-24.9,179.8-67.6
		c76.7-38.9,122.3-68,129.7-72.8c-2.6-3.1-10.3-13-13.6-20.7c-11.4,7.2-103.3,64.8-173.1,93.3C107.4,318.1,58,336.6,27.4,340.4z"/>
	<path id="XMLID_291_" class="st1" d="M438.3,168.6c0.6,3.2,1.3,6.5,2.2,11c-4.3-2.5-7.2-4.2-10.1-5.9c-0.4,0.4-0.7,0.7-1.1,1.1
		c0,1.7,0.1,3.5,0.1,5.2c-0.1,1.1-0.3,3.1-0.6,3.2c-1.3,0.1-3.1,0.1-4-0.6c-3-2.4-5.3-0.8-6.7,1.5c-0.7,1.2,0.3,3.5,0.6,6.3
		c-1.7-1.5-2.7-2.4-3.4-3c-2.9,0.4-5.4,0.7-8,1c0,0-0.1-0.4-0.1-0.4c2.8-1.6,1.7-3.5,0.5-5.4c3,2.5,5.1,0.9,7.1-1.4
		c3,1.2,4.8,0.4,4.8-3.1c1.8-1.2,3.7-2.4,5.5-3.5c1.7-0.6,3.3-1.3,5-1.9c0-0.4,0-0.8-0.1-1.2c-0.3-0.4-0.6-0.8-0.9-1.2
		c1.8-0.2,4.1,2.2,5.2-1.1C435.6,168.7,436.9,168.6,438.3,168.6z"/>
	<path id="XMLID_290_" class="st4" d="M466.4,149.5c0.5,1.3,1.4,2.7,1.5,4.1c0.1,0.8-1,2.4-1.5,2.4c-2.6-0.2-5.3-0.9-7.9-1.4
		c0.1-1.1,0.5-2.9,0.1-3.1c-2.1-1.1-4.2-3.7-6.9-0.9c-1.4-0.8-2.8-1.5-4.2-2.3c0.3-0.8,0.5-1.5,0.9-2.5c1.3,1,2.4,1.9,3.4,2.6
		c0.9-1.8,1.7-3.3,2.5-4.8c2.7,0.1,5.4,0.2,8,0.3c-1.6,1.3-2.1,2.5,0.1,3.6C463.8,148.2,465.1,148.8,466.4,149.5z"/>
	<path id="XMLID_289_" class="st15" d="M441,167.8c-0.6,0.1-1.3,0.1-1.9,0.2c-0.4-1.9-0.8-3.8-1.2-5.7c1.6-0.4,3.1-0.8,4.7-1.2
		c1.4,0.5,2.9,0.9,4.3,1.4c0.1,0.6,0.2,1.3,0.3,1.9c-1.3,1.7-2.7,3.3-4,5l0,0C442.6,168.8,441.8,168.3,441,167.8z"/>
	<path id="XMLID_288_" class="st12" d="M438,162.2c0.4,1.9,0.8,3.8,1.2,5.7c-0.3,0.2-0.6,0.4-0.9,0.6c-1.3,0.1-2.7,0.2-4,0.3
		l-0.1,0.1c-0.3-0.4-0.6-0.8-0.9-1.3c-2.5-2.4-1.6-4.2,1-5.8C435.5,162,436.7,162.1,438,162.2z"/>
	<path id="XMLID_287_" class="st1" d="M455.8,154.5c0.5,1.2,1.3,2.4,1.3,3.6c0,1.4-0.3,3.5-1.3,4c-0.9,0.5-2.7-0.5-4.1-1
		c-0.9-0.4-1.6-1.1-2.4-1.7c-0.3-0.9-0.6-1.8-0.9-2.6c3.9,1.9,5.9,1,6.8-2.8C455.4,154,455.6,154.2,455.8,154.5z"/>
	<path id="XMLID_286_" class="st12" d="M448.4,156.8c0.3,0.9,0.6,1.8,0.9,2.6c-0.8,1-1.5,2-2.3,3c-1.4-0.5-2.9-0.9-4.3-1.4
		c-1.3-4.2-0.6-5.1,4-5.2C447.3,156.1,447.8,156.4,448.4,156.8z"/>
	<path id="XMLID_282_" class="st15" d="M407.3,188.2c-0.3,2.1-0.6,4.2-0.8,6c-2.4-0.8-5-1.6-7.7-2.4c-0.3-0.4-0.6-0.7-0.9-1.1
		c-0.1-0.3-0.3-0.7-0.4-1c1.9-1,5.8,1.3,5.5-3.3c1.4,0.5,2.8,1,4.1,1.5L407.3,188.2z"/>
	<path id="XMLID_281_" class="st11" d="M455.8,154.5c-0.1-0.2-0.3-0.4-0.6-0.5c-1.1-1.1-2.3-2.3-3.4-3.4c2.7-2.8,4.8-0.2,6.9,0.9
		c0.4,0.2-0.1,2-0.1,3.1C457.6,154.5,456.7,154.5,455.8,154.5z"/>
	<path id="XMLID_280_" class="st2" d="M443.4,169.2c1.3-1.7,2.7-3.3,4-5c0.8,1.9,1.6,3.8,2.3,5.8c-0.3,0.4-0.7,0.8-1,1.2
		C446.9,170.5,445.1,169.9,443.4,169.2z"/>
	<path id="XMLID_279_" class="st2" d="M441,167.8c0.8,0.5,1.5,1,2.3,1.5C442.6,168.8,441.8,168.3,441,167.8z"/>
	<path id="XMLID_278_" class="st1" d="M449.6,178.3c0.9-0.3,1.9-0.6,2.8-0.8C451.4,177.7,450.5,178,449.6,178.3z"/>
	<path id="XMLID_277_" class="st4" d="M434.2,168.9L434.2,168.9c-1,3.3-3.4,0.9-5.2,1c-2.4,0-4.9,0-7.3,0c-1.5,0-3-0.1-4.5-0.1
		c0,1-0.1,2.9,0,2.9c1.5,0.2,3,0.2,4.5,0.2c1.1,0.5,2.2,0.9,3.3,1.4c-1.8,1.2-3.7,2.4-5.5,3.5c-1.7-1-3.3-1.9-5-2.9
		c0.2-1.2,0.3-2.5,0.5-3.7c0.3-1,0.3-2.2,0.9-2.8c1.5-1.5,4.5-4.1,4.9-3.9c3.4,2.8,3.6-0.2,4.5-2.1c2.6-5.8,3.2-6,8-1.7
		c0.3,0.3,0.7,0.5,1.1,0.7l0,0.4c-2.6,1.5-3.5,3.4-1,5.8C433.6,168.1,433.9,168.5,434.2,168.9z"/>
	<path id="XMLID_276_" class="st4" d="M414.7,181c-2,2.3-4.1,3.9-7.1,1.4c-2.4-0.2-5.1-2.7-7.1,0.9c-1.9,1.5-3.8,3-5.7,4.6
		c-1.1,0-2.2,0-3.3-0.1c-0.8-0.1-1.6-0.3-2.3-0.4c5.9-3.8,11.8-7.6,17.8-11.3c0.4-0.2,1.3,0.5,2,0.8
		C410.8,178.2,412.8,179.6,414.7,181z"/>
	<path id="XMLID_275_" class="st12" d="M414.7,181c-1.9-1.4-3.8-2.8-5.7-4.2c1.8-0.6,3.7-1.2,5.5-1.8c1.7,1,3.3,1.9,5,2.9
		C419.4,181.3,417.7,182.1,414.7,181z"/>
	<path id="XMLID_274_" class="st11" d="M400.5,183.2c2-3.6,4.7-1.1,7.1-0.9c1.3,1.9,2.4,3.9-0.5,5.4c-1.4-0.5-2.8-1-4.1-1.5
		C402.1,185.3,401.3,184.3,400.5,183.2z"/>
	<path id="XMLID_273_" class="st11" d="M421.7,170c2.4,0,4.9,0,7.3,0c0.3,0.4,0.6,0.8,0.9,1.2c0,0.4,0,0.8,0.1,1.2
		c-1.7,0.6-3.3,1.3-5,1.9c-1.1-0.5-2.2-0.9-3.3-1.4C421.7,171.9,421.7,171,421.7,170z"/>
	<path id="XMLID_272_" class="st4" d="M429.9,172.4c0-0.4,0-0.8-0.1-1.2C429.9,171.6,429.9,172,429.9,172.4z"/>
	<path id="XMLID_271_" class="st8" d="M447.2,149c0.1-0.2,0.2-0.5,0.4-0.7c1.4,0.8,2.8,1.5,4.2,2.3c1.1,1.1,2.3,2.3,3.4,3.4
		c-0.9,3.9-2.9,4.7-6.8,2.8c-0.6-0.3-1.1-0.6-1.7-0.9c-0.1-1.7-0.2-3.3-0.2-5c0,0,0-0.2,0-0.2C446.7,150.1,446.9,149.5,447.2,149z"
		/>
	<path id="XMLID_270_" class="st4" d="M446.4,150.8c0.1,1.7,0.2,3.3,0.2,5c-4.7,0.2-5.3,1-4,5.2c-1.6,0.4-3.1,0.8-4.7,1.2
		c-1.2-0.1-2.5-0.2-3.7-0.3l0-0.4c1.4-3.5,2.8-7,4.1-10.5c0.7,1.1,1.3,2.2,2.2,3.6C442.6,153.3,444.5,152,446.4,150.8z"/>
	<path id="XMLID_269_" class="st1" d="M434.2,168.9c-0.3-0.4-0.6-0.8-0.9-1.3C433.6,168.1,433.9,168.5,434.2,168.9z"/>
	<path id="XMLID_268_" class="st8" d="M400.5,183.2c0.8,1,1.7,2.1,2.5,3.1c0.3,4.6-3.6,2.4-5.5,3.3c-0.9-0.6-1.8-1.3-2.7-1.9
		C396.7,186.3,398.6,184.8,400.5,183.2z"/>
	<path id="XMLID_267_" class="st15" d="M397.5,177.7c1.1-0.7,2.5-2.1,3.4-1.8c3.5,1,4.5-1,5.4-3.6c0.8-2.1,2.1-3.1,4.5-1.9
		c1.2,0.6,2.7,0.6,4.1,0.9c-0.2,1.2-0.3,2.5-0.5,3.7c-1.8,0.6-3.7,1.2-5.5,1.8c-0.7-0.3-1.7-1-2-0.8c-6,3.7-11.8,7.5-17.8,11.3
		c0.7,0.1,1.5,0.3,2.3,0.4c-0.5,0.7-1.1,1.4-1.6,2.2c-1.9-0.5-3.7-1-5.6-1.6c1.7-1.2,3.3-2.5,5-3.7c1.8-1.5,3.5-3,5.3-4.6
		C396.9,181,398,180.3,397.5,177.7z"/>
	<path id="XMLID_266_" class="st8" d="M421.7,170c0,1,0,2,0,3c-1.5,0-3,0.1-4.5-0.2c-0.2,0,0-1.9,0-2.9
		C418.7,169.9,420.2,169.9,421.7,170z"/>
	<path id="XMLID_265_" class="st4" d="M447.2,149c-0.2,0.6-0.5,1.1-0.7,1.7C446.7,150.1,446.9,149.5,447.2,149z"/>
	<path id="XMLID_264_" class="st1" d="M397.5,177.7c0.5,2.7-0.5,3.3-2.9,2.4C395.5,179.3,396.5,178.5,397.5,177.7z"/>
	<path id="XMLID_263_" class="st1" d="M428.9,170c1.8-0.2,4.1,2.2,5.2-1.1c1.3-0.1,2.7-0.2,4-0.3c0.6,3.2,1.3,6.5,2.2,11"/>
	<path id="XMLID_262_" class="st4" d="M466.3,149.5c0.5,1.3,1.4,2.7,1.5,4.1c0.1,0.8-1,2.4-1.5,2.4c-2.6-0.2-5.3-0.9-7.9-1.4
		c0.1-1.1,0.5-2.9,0.1-3.1c-2.1-1.1-4.2-3.7-6.9-0.9c-1.4-0.8-2.8-1.5-4.2-2.3c0.3-0.8,0.5-1.5,0.9-2.5c1.3,1,2.4,1.9,3.4,2.6
		c0.9-1.8,1.7-3.3,2.5-4.8c2.7,0.1,5.4,0.2,8,0.3c-1.6,1.3-2.1,2.5,0.1,3.6C463.7,148.2,465,148.9,466.3,149.5z"/>
	<path id="XMLID_261_" class="st15" d="M441,167.8c-0.6,0.1-1.3,0.1-1.9,0.2c-0.4-1.9-0.8-3.8-1.2-5.7c1.6-0.4,3.1-0.8,4.7-1.2
		c1.4,0.5,2.9,0.9,4.3,1.4c0.1,0.6,0.2,1.3,0.3,1.9c-1.3,1.7-2.7,3.3-4,5l0,0C442.5,168.8,441.7,168.3,441,167.8z"/>
	<path id="XMLID_260_" class="st12" d="M437.9,162.2c0.4,1.9,0.8,3.8,1.2,5.7c-0.3,0.2-0.6,0.4-0.9,0.6c-1.3,0.1-2.7,0.2-4,0.3
		l-0.1,0.1c-0.3-0.4-0.6-0.8-0.9-1.3c-2.5-2.4-1.6-4.2,1-5.8C435.4,162,436.7,162.1,437.9,162.2z"/>
	<path id="XMLID_259_" class="st1" d="M455.7,154.5c0.5,1.2,1.3,2.4,1.3,3.6c0,1.4-0.3,3.5-1.3,4c-0.9,0.5-2.7-0.5-4.1-1
		c-0.9-0.4-1.6-1.1-2.4-1.7c-0.3-0.9-0.6-1.8-0.9-2.6c3.9,1.9,5.9,1,6.8-2.8C455.3,154.1,455.5,154.2,455.7,154.5z"/>
	<path id="XMLID_258_" class="st12" d="M448.3,156.8c0.3,0.9,0.6,1.8,0.9,2.6c-0.8,1-1.5,2-2.3,3c-1.4-0.5-2.9-0.9-4.3-1.4
		c-1.3-4.2-0.6-5.1,4-5.2C447.2,156.2,447.7,156.5,448.3,156.8z"/>
	<path id="XMLID_257_" class="st11" d="M455.7,154.5c-0.1-0.2-0.3-0.4-0.6-0.5c-1.1-1.1-2.3-2.3-3.4-3.4c2.7-2.8,4.8-0.2,6.9,0.9
		c0.4,0.2-0.1,2-0.1,3.1C457.5,154.5,456.6,154.5,455.7,154.5z"/>
	<path id="XMLID_256_" class="st2" d="M443.3,169.3c1.3-1.7,2.7-3.3,4-5c0.8,1.9,1.6,3.8,2.3,5.8c-0.3,0.4-0.7,0.8-1,1.2
		C446.8,170.6,445,169.9,443.3,169.3z"/>
	<path id="XMLID_255_" class="st2" d="M441,167.8c0.8,0.5,1.5,1,2.3,1.5C442.5,168.8,441.7,168.3,441,167.8z"/>
	<path id="XMLID_234_" class="st4" d="M425.1,162.5c2.6-5.8,3.2-6,8-1.7c0.3,0.3,0.7,0.5,1.1,0.7l0,0.4c-2.6,1.5-3.5,3.4-1,5.8
		c0.3,0.4,0.6,0.8,0.9,1.3l0.1-0.1c-1.1,3.4-3.4,1-5.2,1.1"/>
	<path id="XMLID_233_" class="st8" d="M447.1,149c0.1-0.2,0.2-0.5,0.4-0.7c1.4,0.8,2.8,1.5,4.2,2.3c1.1,1.1,2.3,2.3,3.4,3.4
		c-0.9,3.9-2.9,4.7-6.8,2.8c-0.6-0.3-1.1-0.6-1.7-0.9c-0.1-1.7-0.2-3.3-0.2-5c0,0,0-0.2,0-0.2C446.6,150.1,446.8,149.6,447.1,149z"
		/>
	<path id="XMLID_232_" class="st4" d="M446.4,150.8c0.1,1.7,0.2,3.3,0.2,5c-4.7,0.2-5.3,1-4,5.2c-1.6,0.4-3.1,0.8-4.7,1.2
		c-1.2-0.1-2.5-0.2-3.7-0.3l0-0.4c1.4-3.5,2.8-7,4.1-10.5c0.7,1.1,1.3,2.2,2.2,3.6C442.5,153.3,444.4,152.1,446.4,150.8z"/>
	<path id="XMLID_231_" class="st1" d="M434.1,168.9c-0.3-0.4-0.6-0.8-0.9-1.3C433.5,168.1,433.8,168.5,434.1,168.9z"/>
	<path id="XMLID_184_" class="st4" d="M447.1,149c-0.2,0.6-0.5,1.1-0.7,1.7C446.6,150.1,446.8,149.6,447.1,149z"/>
	<polyline id="XMLID_170_" class="st2" points="405.1,211.7 403.4,204.1 400.1,203.4 404,212.3 	"/>
</g>
</svg>
