<?xml version="1.0" encoding="utf-8"?>
<!-- Generator: Adobe Illustrator 19.0.0, SVG Export Plug-In . SVG Version: 6.00 Build 0)  -->
<svg version="1.1" id="Calque_1" xmlns="http://www.w3.org/2000/svg" xmlns:xlink="http://www.w3.org/1999/xlink" x="0px" y="0px"
	 viewBox="0 0 541.5 264.6" style="enable-background:new 0 0 541.5 264.6;" xml:space="preserve">
<style type="text/css">
	.st0{fill:#E42332;}
	.st1{fill:#C61620;}
	.st2{fill:#FC324B;}
	.st3{fill:#FFFFFF;}
</style>
<g id="XMLID_429_">
	<g id="XMLID_405_">
		<path id="XMLID_406_" class="st0" d="M527.2,185.6c11-13.7,3.9-35.6-10.3-46c-14.2-10.3-32.8-11.9-50.4-12
			c9.4-10.9,11.8-27.4,5.9-40.6C466.4,74,452.5,64.9,438,64.8c8.2-4.5,16.3-20.1,12.5-28.7c-6-13.9-22.3-33.3-53.6-18
			c-34.3,16.7-16.3,44.8-16.3,44.8s-33.4,2.4-49.8,7.6c-9.1,2.9-16.5,10.8-18.7,20.2c-15-4.5-32.3,0.6-42.5,12.4
			c-4.2,4.8-7.1,10.6-8.6,16.8c-2.4-5.8-5.9-11.3-10.2-15.8c-10.6-11.3-25.5-18-40.7-21.2c-18.2-3.8-40.2-1.6-50.7,13.8
			c-8.7,12.7-6.4,29.7-3.7,44.9c-21-7.6-45.8-3.7-63.4,10c-17.6,13.7-27.5,36.8-25.3,59c-11.7-3.3-24.6-4-35.7,0.9
			c-11.1,4.9-19.8,40.9-18.9,53h426.8c16,1.3,31.5-4.9,46.3-11c6.1-2.5,12.2-5.1,17.9-8.4c11.4-6.7,20.9-16.5,26.9-28.3
			C535.4,206.5,536.8,191.9,527.2,185.6z"/>
	</g>
	<path id="XMLID_404_" class="st1" d="M142.8,264.4H203c0.1-4.4-1.2-8.9-4.2-12.2c8,1.2,15.7-7.3,13.9-15.1
		c24.9,9.3,54.9,7.8,75.9-8.5c21-16.3,29.6-48.6,15.5-71.1c6.5,0.1,12.9-4,15.5-10.1c2.6-6,1.1-13.5-3.5-18.1
		c-4.4,13.2-22,19.8-34.1,13c6.7,19.4-2.1,42.9-19.9,53c-17.8,10.2-42.5,5.9-55.8-9.7c-0.8,11.3-8.9,21.2-19.1,26.1
		c-10.2,4.9-22,5.4-33.1,3.4c6.4,12.1,5.7,27.7-1.7,39.2C149.9,258.2,146.6,261.6,142.8,264.4z"/>
	<path id="XMLID_403_" class="st1" d="M527.2,185.4c11-13.7,3.9-35.6-10.3-46c-14.2-10.3-32.8-11.9-50.4-12
		c9.4-10.9,11.8-27.4,5.9-40.6c-5.9-13.1-19.9-22.2-34.3-22.4c8.2-4.5,16.3-20.1,12.5-28.7c-4-9.2-12.4-20.8-26.8-23.2
		c0.7,6.1,4.6,16.4,4,21.1c-1.6,10.9-9,20.8-19,25.3c14,4.2,21,21.2,18.4,35.5c-2.6,14.4-12.5,26.3-23,36.5c8-3.2,18,0.5,22.1,8.1
		c4,7.6,1.5,18-5.6,22.9c11.3,4.4,25.6-1.1,35.4,6c6.5,4.7,8.7,13.8,7.2,21.7c-1.4,7.9-5.8,15-10.3,21.7c7,3.5,8.7,13.4,5.3,20.4
		c-3.4,7-10.5,11.5-17.7,14.5c-16.6,6.7-34.9,7.1-52.6,9.1c-11.8,1.3-24,3.6-34.7,8.7h85.7c16,1.3,31.5-4.9,46.3-11
		c6.1-2.5,12.2-5.1,17.9-8.4c11.4-6.7,20.9-16.5,26.9-28.3C535.4,206.3,536.8,191.7,527.2,185.4z"/>
	<path id="XMLID_401_" class="st2" d="M212.9,142.7c7.3,1,14.7,3.5,19.6,8.9c2.4,2.6,4.1,5.9,6.8,8.1c2.7,2.3,7.1,3.2,9.6,0.7
		c1.1-1,1.6-2.5,2-3.9c6-22.2-23.2-48.2-44.3-48.4c-10.7-0.1-18.1,6.7-21.1,16.8C179.5,145,199.2,140.8,212.9,142.7z"/>
	<path id="XMLID_93_" class="st2" d="M89.5,210.5c-4.8,3.1-9.8,6.4-12.9,11.2c-3.1,4.8-4,11.5-0.6,16.2c2.2,3.1,5.9,4.7,9.6,5.8
		c3.9,1.1,8.3,1.7,12-0.1c4.2-2.1,6.4-6.7,7.4-11.3c1-4.5,1-9.3,2.3-13.7c11.8-3.6,21.5-13.2,25.5-24.8
		c5.7-16.6-11.3-28.9-26.2-21.8c-6.3,3-13,10-16.1,16.2C89.3,190.5,88,211.5,89.5,210.5z"/>
	<path id="XMLID_1_" class="st2" d="M364.3,85c-8.7,4.2-15.3,13.4-14.7,23c0.1,1.9,0.6,3.9,1.8,5.4c3.1,3.9,9.5,2.8,13.6-0.1
		c4.1-2.8,7.5-7,12.3-8.6c6.7-2.3,14.5,1.1,21-1.5c4.4-1.8,7.4-5.9,9.8-10C417.1,78.8,368.7,82.9,364.3,85z"/>
</g>
<g id="XMLID_17_">
	<path id="XMLID_18_" class="st3" d="M128.2,158.6c0.1,0.7,0.1,1.4,0.1,1.9c0,0.7,0,1.4-0.1,2c-0.1,0.7-0.2,1.3-0.4,1.9
		c-0.1,0.3-0.1,0.4-0.1,0.5c-0.1,0.2-0.1,0.3-0.2,0.5c0,0-0.1,0.2-0.2,0.5c0,0.1-0.1,0.2-0.3,0.4c-0.4,0.6-0.8,1.1-1.3,1.6
		c-0.5,0.5-1,0.9-1.6,1.2c-0.6,0.4-1.2,0.6-1.9,0.8l-0.1,0c0,0-0.1,0-0.1,0h0l-0.3,0.1l-0.2,0l-0.3,0.1c-0.2,0-0.4,0-0.5,0l-0.3,0
		h-0.1H120c-0.7,0-1.4-0.1-2.1-0.3c-0.6-0.2-1.3-0.4-1.9-0.7c-0.7-0.3-1.2-0.6-1.5-0.9c-0.6-0.4-1-0.8-1.2-1.2
		c-0.1-0.1-0.1-0.2-0.2-0.4c0-0.1-0.1-0.1-0.1-0.2c0,0,0-0.1-0.1-0.2c0-0.2-0.1-0.4-0.1-0.5c0-0.3,0.1-0.5,0.3-0.7
		c0.1-0.2,0.4-0.2,0.7-0.2c0.1,0,0.2,0,0.4,0.1c0.1,0,0.3,0.1,0.5,0.2c0,0,0.1,0,0.1,0c0.1,0,0.1,0,0.2,0.1c0.1,0,0.1,0,0.2,0
		c0.3,0.1,0.5,0.1,0.6,0.1c0.5,0,0.6-0.1,0.5-0.5c-0.1-0.5-0.2-0.9-0.2-1.2c0-0.1,0-0.2,0-0.2c0-0.1,0.1-0.2,0.1-0.2
		c0.1-0.1,0.2-0.2,0.3-0.3c0.1-0.1,0.3-0.1,0.5,0c0.1,0,0.2,0,0.2,0.1c0.1,0.1,0.2,0.1,0.2,0.2c0.1,0.1,0.2,0.3,0.5,0.5
		c0.2,0.2,0.3,0.4,0.5,0.5c0.2,0.2,0.4,0.4,0.7,0.5c0,0,0.1,0.1,0.2,0.1c0.1,0,0.1,0,0.2,0.1v0h0h0l0.1,0l0.1,0l0.1,0
		c0,0,0.1,0,0.2,0.1s0.1,0,0.1,0l0.2,0h0.1h0.1h0.2c0.1,0,0.1,0,0.2,0c0,0,0.1,0,0.1,0s0.1,0,0.1,0h0.1l0.1,0c0.2,0,0.4-0.1,0.7-0.2
		c0,0,0.1-0.1,0.2-0.1c0,0,0.1,0,0.1-0.1c0,0,0.1-0.1,0.1-0.1l0.1,0l0.1-0.1c0,0,0.1,0,0.1-0.1c0,0,0.1,0,0.1-0.1
		c0.2-0.1,0.3-0.3,0.5-0.5c0,0,0-0.1,0.1-0.1c0,0,0-0.1,0.1-0.1c0,0,0-0.1,0.1-0.1l0-0.1c0,0,0,0,0-0.1c0,0,0-0.1,0.1-0.2l0-0.1
		l0-0.1c0,0,0-0.1,0-0.2c0-0.1,0.1-0.2,0.1-0.4c0-0.3,0.1-0.6,0.1-0.9c0-0.3,0-0.7-0.1-1s-0.1-0.7-0.2-1.1s-0.2-0.7-0.3-1.1
		c0,0,0-0.1,0-0.2c0-0.1,0-0.1-0.1-0.1c0,0,0-0.1,0-0.1c0-0.1,0-0.1,0-0.2c-0.1-0.3-0.1-0.4-0.2-0.5c-0.4-1.5-1-2.9-1.7-4.4
		c0-0.1-0.2-0.4-0.4-0.8c-0.2-0.4-0.4-0.7-0.4-0.9c-0.3-0.7-0.5-1.3-0.4-1.7c0-0.6,0.3-0.8,0.9-0.6c0.6,0.2,0.8,0.3,0.9,0.3
		c0.6,0.2,1.1,0.3,1.5,0.1c0.8-0.2,1.3-0.8,1.7-1.7c0-0.2,0.1-0.3,0.3-0.3c0.1,0,0.3,0,0.4,0.2c0.2,0.1,0.3,0.3,0.5,0.6
		c0.5,0.8,0.8,2,1.1,3.5c0.2,1,0.4,2.2,0.5,3.5c0,0.4,0.1,0.9,0.2,1.7c0,0.2,0,0.5,0.1,0.9l0.1,0.4
		C128.2,158.3,128.2,158.4,128.2,158.6z"/>
	<path id="XMLID_20_" class="st3" d="M150.8,157.6v0.2l0,0.4v0.4l0,0.2v0.2v0.4c0,0.5-0.1,0.7-0.1,0.8c-0.1,1.1-0.4,2.1-0.8,3.1
		c-0.2,0.5-0.4,1-0.7,1.5c-0.2,0.5-0.5,0.9-0.8,1.4c-0.3,0.4-0.6,0.9-1.1,1.3c-0.4,0.4-0.8,0.8-1.3,1.1c-0.5,0.4-1,0.7-1.5,0.9
		c-0.5,0.3-1.1,0.5-1.6,0.6c-0.5,0.2-1.1,0.3-1.7,0.3c-0.6,0.1-1.2,0.1-1.8,0c-1.4-0.1-2.6-0.5-3.8-1.2c-0.6-0.3-1.1-0.7-1.6-1.1
		c-0.5-0.4-1-0.9-1.4-1.4c-0.8-1-1.5-2-2-3.2c-0.5-1.1-0.8-2.3-1-3.6c-0.1-0.6-0.1-1.2-0.1-1.9s0-1.3,0.1-1.9
		c0.1-0.6,0.2-1.2,0.4-1.9c0.2-0.7,0.4-1.3,0.6-1.9c0.6-1.3,1.3-2.5,2.3-3.4c0.5-0.5,1.1-1,1.7-1.4c0.7-0.4,1.3-0.7,2-1
		c0,0,0.1,0,0.1-0.1c0,0,0.1,0,0.1,0s0.1,0,0.2-0.1c0.1,0,0.3,0,0.4-0.1c0.2,0,0.4-0.1,0.6-0.1c0.2,0,0.4,0,0.5,0
		c0.1,0,0.3,0,0.4,0.1c0.4,0.1,0.4,0.3-0.1,0.6c-0.7,0.4-1.2,0.9-1.4,1.5c-0.1,0.3-0.1,0.5-0.1,0.7c0,0.2,0.1,0.4,0.2,0.5
		c0.1,0.2,0.4,0.4,0.6,0.5c0.1,0.1,0.3,0.1,0.4,0.2c0.1,0.1,0.3,0.1,0.5,0.2c0.2,0.1,0.4,0.2,0.5,0.3c0.1,0.1,0.2,0.1,0.2,0.2
		c0.1,0,0.1,0.1,0.2,0.1c0.2,0.2,0.3,0.4,0.3,0.6c0,0.1-0.1,0.2-0.1,0.3c-0.1,0.1-0.2,0.2-0.3,0.3c-0.2,0.1-0.4,0.3-0.7,0.4
		c-0.4,0.2-0.7,0.4-0.8,0.5c-0.3,0.2-0.6,0.4-0.9,0.6c-0.3,0.3-0.6,0.5-0.8,0.8c-0.3,0.4-0.6,0.8-0.8,1.3s-0.4,1-0.5,1.5
		c-0.1,0.5-0.2,1.1-0.2,1.7s0.1,1.1,0.2,1.6c0.1,0.6,0.3,1.1,0.5,1.6c0,0,0,0.1,0.1,0.2c0,0.1,0.1,0.2,0.1,0.2l0.1,0.2l0.1,0.2
		l0,0.1l0.1,0.1l0.1,0.2l0.1,0.2l0.1,0.1l0.1,0.1c0.7,0.9,1.5,1.4,2.4,1.7c0.5,0.1,0.9,0.2,1.5,0.2c0.3,0,0.5-0.1,0.7-0.1
		c0.3-0.1,0.5-0.1,0.7-0.2c1-0.4,1.8-1.1,2.4-2l0-0.1l0.1-0.1l0.1-0.2l0.1-0.2l0.1-0.1l0-0.1l0.1-0.2l0.1-0.2c0,0,0-0.1,0.1-0.1
		c0,0,0-0.1,0.1-0.2c0-0.1,0-0.1,0.1-0.1c0.2-0.5,0.3-1.1,0.4-1.7c0.1-0.5,0.1-1.1,0.1-1.7c0-0.6-0.1-1.1-0.3-1.7
		c-0.4-1.3-1-2.3-1.8-3.1c-0.3-0.3-0.6-0.5-1-0.7c-0.3-0.2-0.6-0.3-1-0.5c-0.3-0.1-0.5-0.3-0.7-0.4c-0.1-0.1-0.2-0.2-0.2-0.2
		c-0.1-0.1-0.1-0.2-0.1-0.2c0-0.2,0-0.3,0.1-0.4c0,0,0.1-0.1,0.2-0.2c0,0,0.1,0,0.1-0.1c0,0,0.1,0,0.1,0c0,0,0.1,0,0.2-0.1
		c0.5-0.2,1.1-0.2,1.8-0.1c0.1,0,0.2,0.1,0.3,0c0.1,0,0.1-0.1,0.1-0.1c0-0.1,0-0.3-0.2-0.6c-0.1-0.1-0.2-0.3-0.3-0.3
		c0-0.1-0.1-0.1-0.2-0.2l-0.1-0.1c0,0,0,0-0.1-0.1c-0.2-0.2-0.3-0.3-0.4-0.3c0,0-0.1-0.1-0.2-0.1c-0.1-0.1-0.1-0.1-0.2-0.1
		c0,0-0.1-0.1-0.2-0.1c-0.1,0-0.1-0.1-0.2-0.1c-0.1-0.1-0.2-0.1-0.3-0.2c0,0-0.1-0.1-0.1-0.1c-0.1,0-0.1-0.1-0.2-0.1l-0.2-0.2
		c-0.4-0.3-0.5-0.5-0.4-0.7c0.1-0.1,0.2-0.2,0.3-0.3c0.1-0.1,0.2-0.1,0.2-0.1c0.1-0.1,0.2-0.1,0.3-0.1c0.1,0,0.2,0,0.2-0.1
		c0.1,0,0.2,0,0.2,0c0.2,0,0.4,0,0.5,0c0.1,0,0.2,0,0.3,0c0.1,0,0.2,0,0.4,0c0.2,0,0.4,0.1,0.7,0.2c0.5,0.2,1,0.4,1.5,0.6
		c0.5,0.3,1,0.6,1.4,1c0.4,0.4,0.8,0.7,1.2,1.2c0,0,0,0.1,0.1,0.1c0,0,0,0.1,0.1,0.1c0,0,0.1,0.1,0.1,0.2c0,0,0.1,0.1,0.1,0.1
		c0.1,0.1,0.1,0.1,0.1,0.2c0,0,0.1,0.1,0.1,0.2c0,0.1,0.1,0.1,0.1,0.1c0.1,0.1,0.2,0.2,0.2,0.3c1.2,1.8,1.9,3.9,2.2,6.2
		c0,0,0,0.2,0,0.4V157.6z"/>
	<path id="XMLID_22_" class="st3" d="M159.2,165.9c0.1,0.5,0.1,0.9,0.2,1.3c0.1,0.5,0.1,0.9,0.1,1.4c0,0.5-0.1,1-0.2,1.4
		c-0.1,0.2-0.2,0.3-0.3,0.4c-0.1,0.1-0.2,0.2-0.3,0.3c-0.2,0.1-0.4,0-0.6-0.2c-0.2-0.2-0.4-0.3-0.6-0.5c-0.2-0.1-0.4-0.2-0.6-0.3
		c-0.4-0.2-0.8-0.3-1.3-0.3c-0.5,0-1,0.1-1.7,0.3c-0.2,0.1-0.5,0.2-0.9,0.3c-0.6,0.2-1,0.1-1.3-0.3c-0.1-0.1-0.1-0.2-0.2-0.3
		c0-0.1-0.1-0.2-0.1-0.3c0-0.2,0-0.4,0.1-0.7c0-0.1,0.1-0.3,0.2-0.7l0.2-0.6c0.3-1.1,0.6-2.3,0.8-3.5c0.2-1.2,0.3-2.4,0.4-3.6
		c0-0.3,0-0.6,0.1-1c0-0.3,0-0.6,0-0.9c0-0.3,0-0.5,0-0.9v-0.5c0-0.2,0-0.4,0-0.4l0-0.4l0-0.4c0-0.3-0.1-0.6-0.1-0.9
		c-0.1-0.6-0.2-1.2-0.3-1.7c-0.1-0.7-0.3-1.3-0.5-1.8c0-0.1-0.1-0.2-0.2-0.4c-0.1-0.2-0.1-0.4-0.2-0.5c-0.1-0.1-0.1-0.3-0.1-0.4
		c0-0.4,0.2-0.7,0.6-0.9c0.3-0.1,0.6-0.1,1,0.1c0.2,0.1,0.5,0.3,0.9,0.7c0.2,0.2,0.5,0.1,0.8-0.2c0.1-0.1,0.2-0.3,0.3-0.4
		c0,0,0.1-0.1,0.1-0.2c0-0.1,0.1-0.1,0.1-0.2c0,0,0-0.1,0.1-0.1c0.5-0.6,1-1,1.4-1c0.3,0,0.6,0,0.8,0.1c0.3,0.1,0.6,0.4,0.7,0.7
		c0.1,0.1,0.1,0.3,0.2,0.5c0,0.2,0,0.4,0,0.6c0,0.1,0,0.3,0,0.6c0,0.3,0,0.4,0,0.5c0,0.6,0,1.4-0.1,2.4c0,1,0,1.8-0.1,2.2
		c0,0.4,0,0.8,0,1.2c0,0.5,0,0.9,0,1.2c0,0.1,0,0.5,0,1.1c0,0.4,0,0.8,0,1.2c0,1.7,0.2,3.4,0.3,5.1
		C159,164.8,159.1,165.2,159.2,165.9z"/>
	<path id="XMLID_24_" class="st3" d="M181.7,147.8c0,0,0,0.1,0,0.2c0,0.1,0,0.2,0.1,0.4v0.2l0,0.2c0,0.1,0,0.2,0,0.4
		c0,0.3-0.1,0.5-0.1,0.7c0,0.3-0.1,0.8-0.2,1.4c-0.1,0.6-0.2,1.1-0.2,1.3c-0.1,0.5-0.1,0.9-0.2,1.3l0,0.3v0.3c0,0.1,0,0.3-0.1,0.6
		c0,0.8-0.1,1.7-0.1,2.6c0,1.5,0.1,3,0.2,4.7c0.1,1.2,0.3,2.7,0.5,4.7c0,0.1,0,0.2,0,0.3c0,0.1,0,0.3,0.1,0.4c0,0.1,0,0.3,0,0.4
		c0,0.2,0.1,0.4,0,0.6c0,0.2,0,0.4-0.1,0.6c-0.1,0.4-0.3,0.6-0.6,0.8c-0.2,0.1-0.5,0.2-0.8,0.2c-0.4,0-0.9-0.3-1.4-0.9
		c0,0-0.1-0.1-0.2-0.2c-0.1-0.1-0.2-0.2-0.3-0.3c-0.1-0.1-0.2-0.2-0.2-0.3c-0.2-0.1-0.3-0.2-0.4-0.2c-0.1,0-0.3,0-0.4,0.1
		c-0.2,0.2-0.3,0.4-0.4,0.4c-0.1,0.1-0.2,0.2-0.2,0.2c-0.1,0-0.1,0.1-0.2,0.1c-0.3,0.2-0.6,0.3-0.9,0.2c-0.2,0-0.3-0.1-0.4-0.3
		c-0.1-0.1-0.1-0.1-0.1-0.2c0,0,0-0.1-0.1-0.1c0,0,0-0.1,0-0.1c0-0.1,0-0.2,0-0.4l0-0.2c0,0,0-0.1,0-0.2c0,0,0-0.1,0.1-0.2
		c0-0.1,0-0.1,0-0.2c0-0.1,0-0.1,0.1-0.2c-0.1-0.1-0.3-0.6-0.8-1.5c-1.8-3.3-3.8-6.5-6.2-9.5c0,0,0,0.1,0,0.1s0,0.1,0,0.1
		c0,0.1,0,0.5,0,1.2c0,0.4,0,0.8,0,1.2c0,1.7,0.2,3.5,0.4,5.3c0,0.2,0.1,0.7,0.1,1.3c0,0.1,0,0.3,0.1,0.4s0,0.3,0.1,0.5
		c0,0.2,0,0.3,0.1,0.4c0.1,0.5,0.1,1,0.1,1.4c0,0.5-0.1,1-0.3,1.4c-0.1,0.2-0.1,0.3-0.2,0.4c-0.1,0.1-0.2,0.2-0.3,0.3
		c-0.3,0.1-0.5,0.1-0.7-0.2c-0.2-0.2-0.4-0.3-0.6-0.5s-0.4-0.2-0.6-0.3c-0.4-0.2-0.9-0.3-1.3-0.3c-0.5,0-1.1,0.1-1.7,0.3
		c-0.1,0-0.2,0.1-0.3,0.1s-0.2,0.1-0.3,0.1c-0.1,0-0.2,0.1-0.3,0.1c-0.6,0.2-1,0.1-1.3-0.3c-0.1-0.1-0.1-0.2-0.2-0.3
		c0-0.1-0.1-0.2-0.1-0.3c0-0.2,0-0.4,0.1-0.7c0-0.1,0.1-0.4,0.2-0.7l0.2-0.7c0.3-1.1,0.6-2.3,0.8-3.6c0.2-1.2,0.4-2.5,0.4-3.8
		c0-0.3,0-0.6,0-1c0-0.3,0-0.6,0-1c0-0.3,0-0.6,0-1l0-0.4c0-0.2,0-0.4,0-0.5l0-0.4l0-0.5c0-0.3-0.1-0.7-0.1-1
		c-0.1-0.6-0.2-1.2-0.3-1.8c-0.2-0.7-0.3-1.4-0.5-1.9c0-0.1-0.1-0.2-0.2-0.4c-0.1-0.2-0.1-0.4-0.2-0.5c-0.1-0.1-0.1-0.3-0.1-0.4
		c0-0.5,0.2-0.8,0.6-0.9c0.3-0.1,0.6-0.1,1,0.1c0.2,0.1,0.5,0.3,0.9,0.7c0.2,0.2,0.5,0.1,0.8-0.2c0.1-0.1,0.2-0.3,0.4-0.4
		c0,0,0.1-0.1,0.1-0.2c0-0.1,0.1-0.1,0.1-0.2c0,0,0.1-0.1,0.1-0.1c0.5-0.7,1-1,1.4-1.1c0.3,0,0.6,0,0.8,0.1c0.3,0.1,0.6,0.3,0.7,0.7
		c0.1,0.2,0.1,0.3,0.1,0.5c0,0.2,0,0.4,0,0.6c0,0.1,0,0.3,0,0.6c0,0.1,0,0.1,0,0.2c0.2,0.3,0.3,0.5,0.3,0.5c1.4,2.5,3,4.9,4.9,7.3
		c0.7,0.9,1.5,1.8,2.2,2.7c0-0.7-0.1-1.5-0.1-2.2c0-0.6-0.1-1.3-0.2-2c0-0.3-0.1-0.6-0.1-1.1c-0.1-0.5-0.1-0.8-0.1-0.9
		c-0.2-1.6-0.4-2.8-0.6-3.7c0,0-0.1-0.2-0.2-0.6c-0.1-0.2-0.1-0.4-0.2-0.6c0-0.2-0.1-0.5-0.1-0.6c0-0.1,0-0.2,0.1-0.3
		c0,0,0-0.1,0-0.1c0,0,0-0.1,0.1-0.1c0.3-0.4,0.7-0.5,1.2-0.4c0.2,0.1,0.5,0.2,0.9,0.3c0.3,0.1,0.6,0.2,0.8,0.2
		c0.3,0.1,0.6,0.1,0.9,0.1c0.5,0,0.9-0.2,1.2-0.3c0.4-0.2,0.8-0.5,1.1-0.9c0.2-0.2,0.4-0.3,0.6-0.2c0.1,0,0.2,0.1,0.3,0.3
		c0.1,0.1,0.2,0.3,0.2,0.5c0.1,0.3,0.2,0.5,0.2,0.8C181.7,147.7,181.7,147.8,181.7,147.8z"/>
	<path id="XMLID_26_" class="st3" d="M212.7,157.6v0.2l0,0.4v0.4l0,0.2v0.2v0.4c0,0.5-0.1,0.7-0.1,0.8c-0.1,1.1-0.4,2.1-0.8,3.1
		c-0.2,0.5-0.4,1-0.7,1.5c-0.2,0.5-0.5,0.9-0.8,1.4c-0.3,0.4-0.6,0.9-1.1,1.3c-0.4,0.4-0.8,0.8-1.3,1.1c-0.5,0.4-1,0.7-1.5,0.9
		c-0.5,0.3-1.1,0.5-1.6,0.6c-0.5,0.2-1.1,0.3-1.7,0.3c-0.6,0.1-1.2,0.1-1.8,0c-1.4-0.1-2.6-0.5-3.8-1.2c-0.6-0.3-1.1-0.7-1.6-1.1
		c-0.5-0.4-1-0.9-1.4-1.4c-0.8-1-1.5-2-2-3.2c-0.5-1.1-0.8-2.3-1-3.6c-0.1-0.6-0.1-1.2-0.1-1.9s0-1.3,0.1-1.9
		c0.1-0.6,0.2-1.2,0.4-1.9c0.2-0.7,0.4-1.3,0.6-1.9c0.6-1.3,1.3-2.5,2.3-3.4c0.5-0.5,1.1-1,1.7-1.4c0.7-0.4,1.3-0.7,2-1
		c0,0,0.1,0,0.1-0.1c0,0,0.1,0,0.1,0s0.1,0,0.2-0.1c0.1,0,0.3,0,0.4-0.1c0.2,0,0.4-0.1,0.6-0.1c0.2,0,0.4,0,0.5,0
		c0.1,0,0.3,0,0.4,0.1c0.4,0.1,0.4,0.3-0.1,0.6c-0.7,0.4-1.2,0.9-1.4,1.5c-0.1,0.3-0.1,0.5-0.1,0.7c0,0.2,0.1,0.4,0.2,0.5
		c0.1,0.2,0.4,0.4,0.6,0.5c0.1,0.1,0.3,0.1,0.4,0.2c0.1,0.1,0.3,0.1,0.5,0.2c0.2,0.1,0.4,0.2,0.5,0.3c0.1,0.1,0.2,0.1,0.2,0.2
		c0.1,0,0.1,0.1,0.2,0.1c0.2,0.2,0.3,0.4,0.3,0.6c0,0.1-0.1,0.2-0.1,0.3c-0.1,0.1-0.2,0.2-0.3,0.3c-0.2,0.1-0.4,0.3-0.7,0.4
		c-0.4,0.2-0.7,0.4-0.8,0.5c-0.3,0.2-0.6,0.4-0.9,0.6c-0.3,0.3-0.6,0.5-0.8,0.8c-0.3,0.4-0.6,0.8-0.8,1.3s-0.4,1-0.5,1.5
		c-0.1,0.5-0.2,1.1-0.2,1.7s0.1,1.1,0.2,1.6c0.1,0.6,0.3,1.1,0.5,1.6c0,0,0,0.1,0.1,0.2c0,0.1,0.1,0.2,0.1,0.2l0.1,0.2l0.1,0.2
		l0,0.1l0.1,0.1l0.1,0.2l0.1,0.2l0.1,0.1l0.1,0.1c0.7,0.9,1.5,1.4,2.4,1.7c0.5,0.1,0.9,0.2,1.5,0.2c0.3,0,0.5-0.1,0.7-0.1
		c0.3-0.1,0.5-0.1,0.7-0.2c1-0.4,1.8-1.1,2.4-2l0-0.1l0.1-0.1l0.1-0.2l0.1-0.2l0.1-0.1l0-0.1l0.1-0.2l0.1-0.2c0,0,0-0.1,0.1-0.1
		c0,0,0-0.1,0.1-0.2c0-0.1,0-0.1,0.1-0.1c0.2-0.5,0.3-1.1,0.4-1.7c0.1-0.5,0.1-1.1,0.1-1.7c0-0.6-0.1-1.1-0.3-1.7
		c-0.4-1.3-1-2.3-1.8-3.1c-0.3-0.3-0.6-0.5-1-0.7c-0.3-0.2-0.6-0.3-1-0.5c-0.3-0.1-0.5-0.3-0.7-0.4c-0.1-0.1-0.2-0.2-0.2-0.2
		c-0.1-0.1-0.1-0.2-0.1-0.2c0-0.2,0-0.3,0.1-0.4c0,0,0.1-0.1,0.2-0.2c0,0,0.1,0,0.1-0.1c0,0,0.1,0,0.1,0c0,0,0.1,0,0.2-0.1
		c0.5-0.2,1.1-0.2,1.8-0.1c0.1,0,0.2,0.1,0.3,0c0.1,0,0.1-0.1,0.1-0.1c0-0.1,0-0.3-0.2-0.6c-0.1-0.1-0.2-0.3-0.3-0.3
		c0-0.1-0.1-0.1-0.2-0.2l-0.1-0.1c0,0,0,0-0.1-0.1c-0.2-0.2-0.3-0.3-0.4-0.3c0,0-0.1-0.1-0.2-0.1c-0.1-0.1-0.1-0.1-0.2-0.1
		c0,0-0.1-0.1-0.2-0.1c-0.1,0-0.1-0.1-0.2-0.1c-0.1-0.1-0.2-0.1-0.3-0.2c0,0-0.1-0.1-0.1-0.1c-0.1,0-0.1-0.1-0.2-0.1l-0.2-0.2
		c-0.4-0.3-0.5-0.5-0.4-0.7c0.1-0.1,0.2-0.2,0.3-0.3c0.1-0.1,0.2-0.1,0.2-0.1c0.1-0.1,0.2-0.1,0.3-0.1c0.1,0,0.2,0,0.2-0.1
		c0.1,0,0.2,0,0.2,0c0.2,0,0.4,0,0.5,0c0.1,0,0.2,0,0.3,0c0.1,0,0.2,0,0.4,0c0.2,0,0.4,0.1,0.7,0.2c0.5,0.2,1,0.4,1.5,0.6
		c0.5,0.3,1,0.6,1.4,1c0.4,0.4,0.8,0.7,1.2,1.2c0,0,0,0.1,0.1,0.1c0,0,0,0.1,0.1,0.1c0,0,0.1,0.1,0.1,0.2c0,0,0.1,0.1,0.1,0.1
		c0.1,0.1,0.1,0.1,0.1,0.2c0,0,0.1,0.1,0.1,0.2c0,0.1,0.1,0.1,0.1,0.1c0.1,0.1,0.2,0.2,0.2,0.3c1.2,1.8,1.9,3.9,2.2,6.2
		c0,0,0,0.2,0,0.4V157.6z"/>
	<path id="XMLID_28_" class="st3" d="M232,149.3c0.3,1,0.4,2.3,0.5,3.8c0,1.4,0,2.9-0.2,4.5c-0.2,1.4-0.5,2.8-0.9,4.3
		c-0.1,0.3-0.2,0.7-0.3,1.1c-0.1,0.4-0.2,0.7-0.3,1.1c-0.1,0.4-0.3,0.7-0.4,1.1c-0.2,0.4-0.4,0.8-0.6,1.2c-0.2,0.4-0.5,0.7-0.7,1.1
		l-0.2,0.3c0,0-0.1,0.1-0.2,0.3c0,0-0.1,0.1-0.3,0.3l-0.1,0.1c0,0-0.1,0-0.1,0.1c-0.2,0.1-0.3,0.2-0.3,0.2l-0.3,0.2l-0.3,0.2
		c0,0-0.1,0.1-0.3,0.2c-0.5,0.3-0.9,0.5-1.4,0.7l-0.2,0.1l-0.2,0.1c-0.1,0-0.2,0.1-0.4,0.1c-0.1,0-0.2,0-0.4,0.1l-0.2,0l-0.2,0
		c-0.6,0-1.1,0-1.7-0.1c0,0-0.2-0.1-0.4-0.1l-0.2,0c0,0-0.1-0.1-0.2-0.1c-0.2-0.1-0.3-0.1-0.4-0.1c-0.1-0.1-0.3-0.1-0.4-0.2
		c-0.1,0-0.1-0.1-0.2-0.1l-0.2-0.1c-0.2-0.1-0.3-0.2-0.3-0.2c-0.1-0.1-0.2-0.2-0.3-0.2l-0.3-0.3c-0.4-0.3-0.7-0.7-1-1
		c0-0.1-0.2-0.2-0.4-0.5c0,0-0.1-0.1-0.2-0.3c-0.1-0.1-0.1-0.2-0.1-0.3l-0.2-0.3l-0.1-0.2c0,0-0.1-0.2-0.3-0.5
		c-0.2-0.3-0.2-0.5-0.3-0.5l-0.1-0.3l-0.1-0.3l-0.2-0.5c-0.1-0.3-0.2-0.4-0.2-0.5c-0.1-0.4-0.3-0.7-0.4-1.1c0-0.1-0.1-0.2-0.2-0.5
		c-0.1-0.2-0.1-0.4-0.2-0.6c0,0,0-0.1-0.1-0.1c0,0,0-0.1,0-0.1c0,0,0-0.1-0.1-0.1c0-0.1,0-0.1,0-0.1l-0.1-0.5
		c-0.4-1.4-0.7-2.8-0.9-4.3c-0.2-1.6-0.4-3.2-0.4-4.9c0-0.2,0-0.5,0-1c0-0.2,0-0.5,0-1c0-0.2,0-0.4,0-0.5c0-0.2,0-0.3,0-0.5
		c0-0.2,0.1-0.4,0.1-0.5c0-0.1,0-0.2,0-0.2l0.1-0.2c0.1-0.6,0.3-1,0.5-1.3c0.2-0.3,0.4-0.5,0.6-0.5c0.3,0,0.5,0.3,0.6,1
		c0,0,0,0.1,0,0.2c0,0.1,0,0.2,0.1,0.2c0,0.2,0,0.3,0.1,0.5c0,0,0,0.1,0,0.2c0,0.1,0,0.2,0,0.3c0,0,0,0.1,0,0.2c0,0.1,0,0.1,0,0.2
		c0,0.1,0,0.1,0,0.2c0.1,0.5,0.3,0.6,0.7,0.1c0.1-0.1,0.2-0.2,0.3-0.3c0.1-0.1,0.1-0.1,0.1-0.2c0-0.1,0.1-0.2,0.1-0.2
		c0.2-0.3,0.4-0.5,0.4-0.6c0.1-0.2,0.3-0.3,0.4-0.5c0.2-0.2,0.3-0.3,0.4-0.3c0.3-0.2,0.6-0.2,0.8-0.1c0.2,0.2,0.4,0.4,0.5,0.7
		c0.1,0.2,0.1,0.4,0.2,0.6c0,0.3,0,0.5,0,0.8c0,0.3-0.1,0.9-0.3,1.8c0,0.1-0.1,0.4-0.2,0.9c0,0.3-0.1,0.5-0.1,0.5c0,0.2,0,0.3,0,0.4
		c-0.3,2.9-0.1,5.7,0.7,8.4c0,0.1,0.1,0.5,0.3,1c0,0.1,0.1,0.4,0.4,1l0.1,0.2l0.1,0.2c0,0,0.1,0.1,0.1,0.2c0,0.1,0.1,0.2,0.1,0.2
		c0.1,0.3,0.3,0.6,0.4,0.8c0.2,0.3,0.3,0.5,0.5,0.6c0,0,0,0.1,0.1,0.1c0,0,0,0,0.1,0l0,0.1l0.1,0c0,0,0.1,0.1,0.2,0.2
		c0.1,0.1,0.2,0.1,0.3,0.1c0.1,0,0.2,0.1,0.4,0c0,0,0.1,0,0.2-0.1h0c0,0,0,0,0.1,0c0,0,0,0,0.1,0c0,0,0,0,0.1,0
		c0.2-0.1,0.4-0.2,0.5-0.4c0,0,0.1,0,0.1-0.1c0,0,0-0.1,0.1-0.1l0-0.1c0,0,0,0,0.1-0.1c0,0,0-0.1,0-0.1c0,0,0-0.1,0.1-0.1
		c0,0,0,0,0.1-0.1c0.1-0.2,0.3-0.5,0.4-0.8c0.2-0.5,0.4-1.2,0.6-2.1c0-0.2,0.1-0.4,0.1-0.6c0-0.4,0.1-0.6,0.1-0.6
		c0-0.3,0.1-0.7,0.1-1.2c0.2-1.6,0.1-3.2-0.2-4.6c0-0.3-0.1-0.6-0.2-1.1c0-0.2-0.1-0.6-0.3-1.1c0-0.1-0.1-0.3-0.1-0.5
		c-0.1-0.2-0.1-0.4-0.1-0.5c-0.1-0.5-0.2-0.8-0.3-1c0-0.1,0-0.2-0.1-0.3c0-0.1,0-0.2,0-0.3c0-0.2,0-0.3,0-0.5
		c0.1-0.3,0.2-0.3,0.5-0.2c1.2,0.5,2.1,0.6,2.7,0.2c0.2-0.1,0.4-0.4,0.5-0.6c0.1-0.1,0.1-0.3,0.2-0.5c0-0.2,0.1-0.4,0.1-0.6
		c0-0.2,0-0.4,0-0.6c0-0.3,0-0.5,0-0.7c0-0.4,0.1-0.7,0.2-0.7c0.1,0,0.2,0,0.4,0.1c0.1,0,0.2,0.1,0.3,0.2c0.1,0.1,0.2,0.2,0.3,0.3
		c0.4,0.4,0.7,0.9,1,1.5C231.5,148,231.8,148.6,232,149.3z"/>
	<path id="XMLID_30_" class="st3" d="M252.9,168.5c0.1,0.1,0.1,0.2,0.2,0.3c0.1,0.2,0.2,0.4,0.2,0.5c0,0.2-0.2,0.3-0.4,0.4
		c-0.2,0.1-0.5,0.1-0.7,0.1c-0.1,0-0.1,0-0.2,0c-0.1,0-0.1,0-0.2-0.1c-0.1,0-0.2-0.1-0.4-0.1c-0.3-0.1-0.7-0.4-1.2-0.7
		c-0.4-0.3-0.8-0.6-1.1-1c-0.3-0.3-0.6-0.6-1-1c-0.5-0.5-1-1.1-1.7-1.9c-0.2-0.2-0.4-0.5-0.8-1c-0.4-0.4-0.6-0.7-0.8-1
		c-0.6-0.7-1-1.2-1.2-1.5c0,0-0.1,0-0.1,0.1c-0.1,0-0.1,0.1-0.2,0.1c0.1,1,0.3,1.9,0.4,2.9c0.1,0.6,0.3,1.3,0.5,2
		c0.2,0.9,0.3,1.6,0.2,2c0,0.1-0.1,0.2-0.1,0.3l0,0v0c0,0,0,0-0.1,0c0,0-0.1,0-0.1,0.1c-0.2,0.1-0.3,0.1-0.5,0.1c0,0-0.1,0-0.1-0.1
		c-0.1,0-0.1,0-0.1-0.1c-0.1,0-0.2,0-0.2-0.1c-0.2-0.1-0.4-0.1-0.5-0.1c-0.3-0.1-0.7-0.1-1,0c-0.4,0.1-0.8,0.3-1.2,0.6
		c-0.1,0.1-0.2,0.2-0.3,0.3c-0.1,0.2-0.2,0.3-0.3,0.3c-0.2,0.2-0.3,0.4-0.4,0.4c-0.1,0-0.1,0-0.2-0.1c-0.1,0-0.1-0.1-0.2-0.1
		l-0.1-0.1c0,0,0-0.1-0.1-0.1c-0.2-0.4-0.4-0.8-0.4-1.4c0-0.1,0-0.2,0-0.3c0-0.1,0-0.2,0-0.3c0-0.1,0-0.2,0-0.3c0-0.1,0-0.3,0-0.3
		c0.1-1.2,0.2-2.2,0.3-3.2c0,0,0-0.2,0-0.5c-0.2,0.1-0.5,0.2-0.7,0.2c-0.9,0.2-1.4,0.2-1.6-0.2c-0.1-0.2,0-0.5,0.4-0.9
		c0.1-0.1,0.5-0.4,1.3-1c0.3-0.3,0.3-0.5-0.2-0.6c-0.2-0.1-0.4-0.1-0.7-0.2s-0.5-0.1-0.6-0.1c-0.9-0.2-1.3-0.6-1.3-1
		c0-0.6,0.4-1.1,1.2-1.5c0.3-0.1,0.8-0.3,1.4-0.4c0.1,0,0.3-0.1,0.5-0.1c0.2,0,0.4-0.1,0.4-0.1c-0.1-0.9-0.2-1.7-0.3-2.5
		c0,0,0,0-0.1,0c0,0-0.1,0.1-0.2,0.1c-0.1,0.1-0.3,0.1-0.4,0.1c-0.2,0-0.4-0.1-0.4-0.4c0-0.1,0-0.2-0.1-0.3c0-0.2-0.1-0.3-0.1-0.3
		c0-0.2-0.1-0.4-0.2-0.6c-0.2-0.4-0.4-0.7-0.7-0.9c-0.2-0.1-0.5-0.2-0.7-0.2c-0.3,0-0.6,0-0.9,0.1c-0.4,0.1-0.7,0.2-1.1,0.3
		c-0.3,0.1-0.6,0.1-0.7,0c-0.2-0.1-0.2-0.4,0-0.9c0.2-0.8,0.8-1.6,1.7-2.4c0.1-0.1,0.2-0.2,0.3-0.3c0.1-0.1,0.1-0.1,0.2-0.1l0.2-0.1
		c0.2-0.2,0.3-0.2,0.3-0.3c0,0,0.1-0.1,0.3-0.2c0.1,0,0.2-0.1,0.3-0.2c0.1,0,0.2-0.1,0.3-0.2c0,0,0.1,0,0.2-0.1
		c0.1,0,0.1-0.1,0.2-0.1c0.1,0,0.2-0.1,0.3-0.2c1.1-0.6,2.3-1,3.6-1.3l0.5-0.1l0.2,0l0.2,0c0.3,0,0.5-0.1,0.8-0.1
		c0.6-0.1,1.2-0.1,1.8-0.2c0.3,0,0.6,0,1,0c0.3,0,0.6,0,1,0c0.3,0,0.7,0.1,1,0.1c0.3,0.1,0.7,0.1,1,0.2c0.3,0.1,0.7,0.3,1.1,0.4
		c0.1,0.1,0.2,0.1,0.2,0.1l0.3,0.1c0,0,0.1,0.1,0.3,0.2c0.1,0,0.2,0.1,0.3,0.2c0.1,0.1,0.3,0.2,0.5,0.4c0.2,0.2,0.4,0.3,0.5,0.4
		c0.3,0.4,0.6,0.7,0.8,1c0.2,0.4,0.4,0.8,0.5,1.2s0.2,0.8,0.2,1.3c0,0.4,0,0.8-0.1,1.3c0,0.2-0.1,0.4-0.2,0.6c0,0.1-0.1,0.2-0.1,0.3
		l0,0.1l-0.1,0.1c-0.2,0.6-0.6,1.2-1,1.8c-0.4,0.5-0.8,1-1.2,1.5c0,0-0.2,0.2-0.4,0.3c0,0-0.2,0.2-0.4,0.3c-0.1,0-0.2,0.1-0.4,0.3
		c-0.1,0.1-0.2,0.2-0.4,0.3c-0.4,0.3-0.8,0.5-1.2,0.8c0.1,0.1,0.1,0.3,0.2,0.4c0.4,0.7,0.9,1.4,1.5,2c0.7,0.7,1.4,1.2,2.1,1.6
		c0.4,0.2,0.8,0.3,1.1,0.3c0,0,0.1,0,0.2,0.1c0.1,0,0.2,0,0.2,0c0.1,0,0.2,0.1,0.2,0.1c0,0,0,0,0,0.1c0,0,0,0.1,0,0.1
		c0,0,0,0.1,0,0.2c0,0.2,0,0.4-0.1,0.5c0,0-0.1,0.3-0.3,0.8c-0.1,0.4-0.2,0.7-0.3,1c-0.1,0.4,0,0.8,0.1,1.2
		C252.8,168.3,252.9,168.4,252.9,168.5z M245.7,151.4c-0.5,0-1,0.2-1.6,0.3c-0.2,0-0.4,0.1-0.6,0.2c0,0.1,0,0.3-0.1,0.6
		c0,0.3-0.1,0.4-0.1,0.5c-0.1,1.3-0.1,2.4-0.2,3.5c0.6-0.2,1.1-0.3,1.5-0.5c0.5-0.2,0.9-0.4,1.3-0.6c0.4-0.3,0.8-0.5,1.1-0.8
		c0.3-0.3,0.6-0.7,0.9-1c0.1-0.2,0.2-0.4,0.3-0.5c0-0.1,0.1-0.1,0.1-0.2v0h0v0l0-0.1c0-0.2,0-0.4,0-0.6c0-0.2-0.2-0.3-0.4-0.5
		c0,0-0.1,0-0.1-0.1c0,0-0.1,0-0.1,0c0,0-0.1,0-0.1-0.1c-0.2,0-0.3-0.1-0.5-0.1C246.7,151.3,246.2,151.3,245.7,151.4z"/>
	<path id="XMLID_33_" class="st3" d="M281.8,158.9l0.1,0.3c0.3,1.5,0.2,3-0.2,4.4c-0.2,0.7-0.5,1.4-0.9,2.1c0,0-0.1,0.1-0.1,0.2
		c0,0.1-0.1,0.2-0.1,0.2c-0.1,0.1-0.2,0.3-0.3,0.4c-0.2,0.4-0.4,0.7-0.6,0.9c-0.5,0.6-1,1.1-1.5,1.5c-0.1,0.1-0.2,0.1-0.2,0.2
		l-0.3,0.2c0,0-0.1,0.1-0.1,0.1l-0.2,0.1c-0.1,0.1-0.2,0.1-0.3,0.2c-0.4,0.2-0.8,0.4-1.3,0.5c-0.3,0.1-0.6,0.1-0.9,0.1
		c-0.3,0-0.6,0-0.9-0.1c-0.1,0-0.2,0-0.4-0.1c0,0-0.1,0-0.2-0.1c-0.1,0-0.1-0.1-0.2-0.1c-0.2-0.1-0.5-0.2-0.8-0.4
		c-0.2-0.2-0.5-0.3-0.7-0.5c-0.1-0.1-0.2-0.2-0.3-0.3l-0.2-0.2l-0.1-0.1c-0.1-0.1-0.4-0.4-0.8-0.8l-0.1-0.1l-0.1-0.1
		c0,0,0,0-0.1-0.1c0,0,0,0-0.1-0.1h0h0c0,0,0,0,0,0.1h0c-0.2,0.1-0.3,0.2-0.5,0.3c-0.2,0.1-0.4,0.2-0.5,0.4
		c-0.2,0.1-0.4,0.3-0.6,0.4c-0.3,0.3-0.6,0.4-0.7,0.5c-0.2,0.1-0.4,0.2-0.5,0.3c-0.1,0.1-0.2,0.1-0.3,0c0-0.1,0-0.2,0-0.4
		c0.1-0.4,0.2-0.7,0.3-0.9c0.1-0.3,0.1-0.5,0.1-0.7c0-0.5-0.1-0.8-0.4-1c-0.3-0.3-1-0.2-1.9,0.2c-0.5,0.2-1,0.5-1.4,0.7
		c0,0-0.1,0-0.1,0.1c0,0-0.1,0-0.1,0.1c0,0-0.1,0-0.1,0.1c0,0-0.1,0.1-0.2,0.1c-0.2,0.1-0.3,0.1-0.3,0c-0.1-0.2,0-0.6,0.4-1.3
		c0.3-0.6,0.8-1.2,1.4-1.7c0.6-0.6,1.3-1.1,2-1.6c0.1,0,0.2-0.1,0.3-0.2l0.2-0.1l0.2-0.1l0.2-0.1l0.2-0.1c0.1,0,0.3-0.1,0.5-0.2
		c0.7-0.3,1.3-0.4,2-0.4c0.7,0,1.3,0.1,1.9,0.4l0.1,0.1h0v0h0.1l0.2,0.1c0.2,0.1,0.3,0.2,0.4,0.2c0.2,0.2,0.5,0.4,0.7,0.6
		c0.1,0.1,0.3,0.3,0.4,0.4c0.1,0.1,0.2,0.2,0.3,0.3c0.1,0.2,0.2,0.4,0.4,0.6c0.1,0.2,0.2,0.3,0.3,0.4l0.1,0.1l0.1,0.1l0,0v0
		c0,0,0.1,0.1,0.1,0.1c0.1,0,0.1,0.1,0.2,0.1s0.1,0,0.2,0l0.1-0.1c0,0,0.1-0.1,0.1-0.1l0.1-0.1c0,0,0.1,0,0.1-0.1
		c0.4-0.3,0.8-0.8,1.1-1.3l0.2-0.4c0,0,0-0.1,0.1-0.1l0-0.1c0,0,0,0,0-0.1c0,0,0-0.1,0.1-0.1l0.1-0.2c0,0,0-0.1,0.1-0.2
		c0,0,0.1-0.2,0.2-0.4c0.1-0.3,0.1-0.6,0.2-0.8c0,0,0-0.1,0-0.1s0-0.1,0-0.2c0-0.1,0-0.1,0-0.1c0,0,0-0.1,0-0.1c0,0,0-0.1,0-0.1
		v-0.1c0,0,0-0.1,0-0.1v-0.2l0-0.2V160l0-0.1v-0.2l-0.1-0.2v-0.1l0-0.1c0,0,0-0.1,0-0.1l0-0.1l0-0.2c0,0,0,0,0,0c0,0,0,0,0-0.1
		l0-0.1c0-0.1,0-0.1-0.1-0.2c0-0.1-0.1-0.2-0.1-0.3c-0.1-0.2-0.2-0.3-0.3-0.4h0l0,0c0,0-0.1,0-0.1-0.1c-0.1,0-0.1,0-0.1-0.1
		c0,0-0.1,0-0.1,0c-0.2,0-0.3-0.1-0.4-0.1c-0.2,0-0.3,0-0.5,0.1c-0.2,0.1-0.4,0.2-0.7,0.3c-0.2,0.1-0.5,0.3-0.9,0.6
		c-0.1,0-0.2,0.1-0.3,0.2c-0.1,0.1-0.2,0.2-0.4,0.3c-0.1,0.1-0.2,0.2-0.3,0.3c-0.4,0.3-0.8,0.5-1.2,0.7c-0.5,0.3-1,0.5-1.5,0.6
		c-0.6,0.2-1.2,0.2-1.8,0.1c0,0-0.2,0-0.4-0.1c-0.1,0-0.2,0-0.2-0.1l-0.2,0c-0.3-0.1-0.6-0.2-0.9-0.4c-0.6-0.3-1.1-0.7-1.5-1.2
		c-0.4-0.4-0.7-0.9-0.9-1.5c-0.2-0.5-0.3-1-0.5-1.5c-0.1-0.5-0.2-1-0.2-1.4c0-0.5,0-1,0-1.4c0-0.3,0.1-0.5,0.1-0.7
		c0,0,0-0.1,0.1-0.4c0-0.2,0.1-0.3,0.1-0.3c0.2-1,0.6-1.9,1-2.6c0.1-0.2,0.2-0.5,0.4-0.7c0,0,0.1-0.1,0.1-0.2c0-0.1,0.1-0.1,0.1-0.2
		l0.1-0.2c0,0,0.1-0.1,0.1-0.2l0.1-0.1l0.1-0.1c0.1-0.1,0.2-0.2,0.2-0.2c0.2-0.2,0.3-0.3,0.4-0.3c0.2-0.2,0.5-0.4,0.9-0.5
		c0.8-0.3,1.6-0.5,2.5-0.4c0.3,0,0.5,0.1,0.6,0.1c0.2,0,0.3,0.1,0.3,0.1l0.2,0.1c0.4,0.1,0.7,0.2,1,0.4c0.2,0.1,0.5,0.3,0.8,0.4
		c0.4,0.3,0.6,0.4,0.6,0.4c0.2,0.1,0.3,0.2,0.5,0.2c0.1,0,0.2,0.1,0.3,0.1c0,0,0,0,0.1,0h0c0.1,0,0.1,0,0.2,0c0.1,0,0.2,0,0.3,0
		c0.2,0,0.5,0,0.7-0.1c0.4-0.1,0.8-0.2,1.3-0.4c0.4-0.2,0.6-0.3,0.7-0.3c0.1,0,0.1,0,0.2-0.1c0.1,0,0.2,0,0.2,0
		c0.1,0,0.1,0.1,0.2,0.1c0,0,0.1,0.1,0.1,0.1c0,0.2,0,0.3,0,0.5c0,0.1-0.1,0.2-0.2,0.4c-0.1,0.1-0.2,0.3-0.3,0.4
		c-0.2,0.3-0.5,0.5-0.9,0.6c-0.2,0.1-0.3,0.2-0.3,0.3s-0.1,0.1-0.1,0.2s0.1,0.1,0.2,0.1c0.1,0,0.2,0.1,0.4,0.1c0.3,0,0.7,0,1.1-0.1
		c0.3-0.1,0.6-0.2,1-0.3c0.3-0.1,0.5-0.3,0.8-0.4c0.1,0,0.3-0.2,0.7-0.5c0.1-0.1,0.1-0.1,0.2-0.2c0.1-0.1,0.2-0.1,0.2-0.1
		c0.1,0,0.2,0,0.3,0.1c0,0.1,0.1,0.3,0.1,0.5c0,0.1,0,0.3,0,0.4c0,0.1-0.1,0.3-0.1,0.4c-0.1,0.4-0.4,0.8-0.7,1.1
		c-0.4,0.4-0.8,0.8-1.4,1.2c-0.3,0.1-0.6,0.3-0.9,0.4c-0.3,0.1-0.6,0.2-0.9,0.3c-0.3,0.1-0.7,0.1-1,0.2c-0.3,0-0.6,0.1-1,0.1
		c-0.7,0-1.3-0.1-2-0.3c-0.1,0-0.2-0.1-0.2-0.1c-0.1,0-0.2-0.1-0.3-0.1c-0.1,0-0.2-0.1-0.3-0.1c-0.1,0-0.2-0.1-0.2-0.1
		c-0.2-0.1-0.3-0.2-0.4-0.2L272,152c0,0,0,0-0.1,0c0,0-0.1-0.1-0.1-0.1c-0.2-0.1-0.5-0.3-0.8-0.5c-0.3-0.2-0.5-0.4-0.5-0.4
		c-0.2-0.1-0.3-0.2-0.4-0.3c0,0-0.1,0-0.1,0c0,0-0.1,0-0.1,0c0,0,0,0-0.1,0l-0.1,0h0h0v0h0h0c0,0,0,0-0.1,0c-0.1,0-0.1,0-0.2,0
		c-0.1,0-0.1,0-0.2,0.1c0,0,0,0-0.1,0c0,0,0,0-0.1,0v0h0l0,0l0,0c0,0,0,0-0.1,0.1c0,0-0.1,0.1-0.1,0.2c-0.1,0.1-0.1,0.3-0.2,0.4
		c-0.2,0.3-0.3,0.7-0.5,1.1c0,0.1-0.1,0.2-0.1,0.3l0,0v0v0c0,0,0,0.1,0,0.1c0,0.2-0.1,0.3-0.1,0.5c0,0.4-0.1,0.8,0,1.1
		c0,0.4,0.1,0.7,0.2,1c0.1,0.2,0.1,0.3,0.2,0.4c0,0.1,0.1,0.2,0.2,0.3c0.1,0.1,0.1,0.2,0.2,0.2c0.1,0.1,0.2,0.1,0.2,0.1h0.1l0,0h0
		c0,0,0,0,0.1,0c0,0,0,0,0.1,0c0,0,0,0,0.1,0c0,0,0.1,0,0.3,0c0.2,0,0.5-0.1,0.8-0.3c0.3-0.2,0.6-0.4,1.1-0.7c0.7-0.5,1.1-0.8,1.3-1
		c0.7-0.4,1.2-0.7,1.8-0.9c0.4-0.2,0.9-0.3,1.3-0.3c0.1,0,0.2,0,0.3,0c0.1,0,0.2,0,0.4,0h0.2l0.2,0c0.1,0,0.2,0,0.3,0
		c0.1,0,0.2,0,0.3,0.1l0.2,0l0.2,0.1c0.1,0,0.2,0.1,0.3,0.1c0,0,0.1,0.1,0.3,0.1l0.2,0.1c0.1,0,0.1,0.1,0.1,0.1
		c0.2,0.1,0.3,0.2,0.3,0.2c0.2,0.1,0.4,0.2,0.6,0.4c0.3,0.3,0.6,0.6,0.9,1c0.2,0.3,0.5,0.7,0.6,1.1c0,0.1,0.1,0.2,0.1,0.3
		c0,0,0,0.1,0,0.1l0.1,0.1l0.1,0.3c0,0,0.1,0.1,0.1,0.3l0.1,0.3l0.1,0.3L281.8,158.9z"/>
	<path id="XMLID_35_" class="st3" d="M304.4,157.6v0.2l0,0.4v0.4l0,0.2v0.2v0.4c0,0.5-0.1,0.7-0.1,0.8c-0.1,1.1-0.4,2.1-0.8,3.1
		c-0.2,0.5-0.4,1-0.7,1.5c-0.2,0.5-0.5,0.9-0.8,1.4c-0.3,0.4-0.6,0.9-1.1,1.3c-0.4,0.4-0.8,0.8-1.3,1.1c-0.5,0.4-1,0.7-1.5,0.9
		c-0.5,0.3-1.1,0.5-1.6,0.6c-0.5,0.2-1.1,0.3-1.7,0.3c-0.6,0.1-1.2,0.1-1.8,0c-1.4-0.1-2.6-0.5-3.8-1.2c-0.6-0.3-1.1-0.7-1.6-1.1
		c-0.5-0.4-1-0.9-1.4-1.4c-0.8-1-1.5-2-2-3.2c-0.5-1.1-0.8-2.3-1-3.6c-0.1-0.6-0.1-1.2-0.1-1.9s0-1.3,0.1-1.9
		c0.1-0.6,0.2-1.2,0.4-1.9c0.2-0.7,0.4-1.3,0.6-1.9c0.6-1.3,1.3-2.5,2.3-3.4c0.5-0.5,1.1-1,1.7-1.4c0.7-0.4,1.3-0.7,2-1
		c0,0,0.1,0,0.1-0.1c0,0,0.1,0,0.1,0s0.1,0,0.2-0.1c0.1,0,0.3,0,0.4-0.1c0.2,0,0.4-0.1,0.6-0.1c0.2,0,0.4,0,0.5,0
		c0.1,0,0.3,0,0.4,0.1c0.4,0.1,0.4,0.3-0.1,0.6c-0.7,0.4-1.2,0.9-1.4,1.5c-0.1,0.3-0.1,0.5-0.1,0.7c0,0.2,0.1,0.4,0.2,0.5
		c0.1,0.2,0.4,0.4,0.6,0.5c0.1,0.1,0.3,0.1,0.4,0.2c0.1,0.1,0.3,0.1,0.5,0.2c0.2,0.1,0.4,0.2,0.5,0.3c0.1,0.1,0.2,0.1,0.2,0.2
		c0.1,0,0.1,0.1,0.2,0.1c0.2,0.2,0.3,0.4,0.3,0.6c0,0.1-0.1,0.2-0.1,0.3c-0.1,0.1-0.2,0.2-0.3,0.3c-0.2,0.1-0.4,0.3-0.7,0.4
		c-0.4,0.2-0.7,0.4-0.8,0.5c-0.3,0.2-0.6,0.4-0.9,0.6c-0.3,0.3-0.6,0.5-0.8,0.8c-0.3,0.4-0.6,0.8-0.8,1.3c-0.2,0.5-0.4,1-0.5,1.5
		c-0.1,0.5-0.2,1.1-0.2,1.7s0.1,1.1,0.2,1.6c0.1,0.6,0.3,1.1,0.5,1.6c0,0,0,0.1,0.1,0.2c0,0.1,0.1,0.2,0.1,0.2l0.1,0.2l0.1,0.2
		l0,0.1l0.1,0.1l0.1,0.2l0.1,0.2l0.1,0.1l0.1,0.1c0.7,0.9,1.5,1.4,2.4,1.7c0.5,0.1,0.9,0.2,1.5,0.2c0.3,0,0.5-0.1,0.7-0.1
		c0.3-0.1,0.5-0.1,0.7-0.2c1-0.4,1.8-1.1,2.4-2l0-0.1l0.1-0.1l0.1-0.2l0.1-0.2l0.1-0.1l0-0.1l0.1-0.2l0.1-0.2c0,0,0-0.1,0.1-0.1
		c0,0,0-0.1,0.1-0.2c0-0.1,0-0.1,0.1-0.1c0.2-0.5,0.3-1.1,0.4-1.7c0.1-0.5,0.1-1.1,0.1-1.7c0-0.6-0.1-1.1-0.3-1.7
		c-0.4-1.3-1-2.3-1.8-3.1c-0.3-0.3-0.6-0.5-1-0.7c-0.3-0.2-0.6-0.3-1-0.5c-0.3-0.1-0.5-0.3-0.7-0.4c-0.1-0.1-0.2-0.2-0.2-0.2
		c-0.1-0.1-0.1-0.2-0.1-0.2c0-0.2,0-0.3,0.1-0.4c0,0,0.1-0.1,0.2-0.2c0,0,0.1,0,0.1-0.1c0,0,0.1,0,0.1,0c0,0,0.1,0,0.2-0.1
		c0.5-0.2,1.1-0.2,1.8-0.1c0.1,0,0.2,0.1,0.3,0c0.1,0,0.1-0.1,0.1-0.1c0-0.1,0-0.3-0.2-0.6c-0.1-0.1-0.2-0.3-0.3-0.3
		c0-0.1-0.1-0.1-0.2-0.2l-0.1-0.1c0,0,0,0-0.1-0.1c-0.2-0.2-0.3-0.3-0.4-0.3c0,0-0.1-0.1-0.2-0.1c-0.1-0.1-0.1-0.1-0.2-0.1
		c0,0-0.1-0.1-0.2-0.1c-0.1,0-0.1-0.1-0.2-0.1c-0.1-0.1-0.3-0.1-0.3-0.2c0,0-0.1-0.1-0.1-0.1c-0.1,0-0.1-0.1-0.2-0.1l-0.2-0.2
		c-0.4-0.3-0.5-0.5-0.4-0.7c0.1-0.1,0.2-0.2,0.3-0.3c0.1-0.1,0.2-0.1,0.2-0.1c0.1-0.1,0.2-0.1,0.3-0.1c0.1,0,0.2,0,0.2-0.1
		c0.1,0,0.2,0,0.2,0c0.2,0,0.4,0,0.5,0c0.1,0,0.2,0,0.3,0c0.1,0,0.2,0,0.4,0c0.2,0,0.4,0.1,0.7,0.2c0.5,0.2,1,0.4,1.5,0.6
		c0.5,0.3,1,0.6,1.4,1c0.4,0.4,0.8,0.7,1.2,1.2c0,0,0,0.1,0.1,0.1c0,0,0,0.1,0.1,0.1c0,0,0.1,0.1,0.1,0.2c0,0,0.1,0.1,0.1,0.1
		c0.1,0.1,0.1,0.1,0.1,0.2c0,0,0.1,0.1,0.1,0.2c0,0.1,0.1,0.1,0.1,0.1c0.1,0.1,0.2,0.2,0.2,0.3c1.2,1.8,1.9,3.9,2.2,6.2
		c0,0,0,0.2,0,0.4V157.6z"/>
	<path id="XMLID_37_" class="st3" d="M323,162.9c0.3-0.1,0.4,0,0.5,0.2c0.1,0.2,0,0.6-0.2,1.1c-0.3,0.7-0.7,1.4-1.2,2.1
		c-0.3,0.4-0.6,0.8-1,1.1c-0.4,0.4-0.8,0.7-1.2,1c-0.5,0.3-1,0.6-1.5,0.8c-0.5,0.2-1.1,0.4-1.7,0.5c-1.1,0.2-2.2,0.2-3.3,0
		c-1-0.2-1.9-0.6-2.8-1.1c-0.9-0.5-1.6-1.1-2.3-1.8c-0.4-0.4-0.7-0.8-0.9-1.2c-0.1-0.2-0.3-0.4-0.4-0.6c-0.1-0.2-0.2-0.4-0.3-0.6
		c-0.3-0.7-0.6-1.6-0.8-2.5c-0.2-0.7-0.3-1.4-0.3-2.2c-0.1-0.7-0.1-1.5-0.1-2.2c0-0.7,0.1-1.4,0.2-2.2c0.1-0.8,0.3-1.6,0.5-2.3
		c0.3-0.8,0.7-1.6,1.1-2.2c0.2-0.4,0.5-0.7,0.8-1.1c0.3-0.4,0.7-0.7,1.1-1c0.4-0.3,0.9-0.5,1.3-0.7c0.1,0,0.2-0.1,0.4-0.1
		c0.1,0,0.2-0.1,0.3-0.1c0.1,0,0.2-0.1,0.4-0.1c0,0,0.2,0,0.3-0.1c0.3,0,0.7-0.1,1.3-0.1c0,0,0.2,0,0.5,0c0-0.1-0.1-0.1-0.1-0.2
		c-0.3-0.3-0.4-0.5-0.4-0.5c0,0,0-0.1,0-0.1c0,0,0-0.1,0.1-0.1c0.1-0.1,0.2-0.2,0.3-0.2c0.2-0.1,0.5-0.2,0.7-0.2
		c0.1,0,0.4,0,0.6,0.1c0.1,0,0.1,0,0.2,0c0.1,0,0.2-0.1,0.3-0.2c0.1-0.1,0.2-0.2,0.2-0.2c0,0,0.1-0.1,0.2-0.2
		c0.1-0.1,0.1-0.2,0.1-0.2c0.4-0.4,0.7-0.7,1-0.8c0.5-0.2,0.9-0.2,1.1,0c0.1,0.1,0.1,0.1,0.2,0.2s0.1,0.2,0.1,0.4s0,0.2,0,0.3
		c0.1,0.7,0.3,1.2,0.5,1.7c0.2,0.5,0.5,1,0.9,1.4c0.2,0.3,0.4,0.5,0.6,0.6c0.2,0.2,0.5,0.3,0.7,0.4c0.2,0.1,0.5,0.1,0.7,0.1
		c0,0,0.1,0,0.1,0h0c0.1,0,0.1,0,0.1,0c0.1,0,0.1,0,0.2,0.1s0,0.2,0,0.4c0,0.2-0.1,0.4-0.2,0.5c-0.2,0.3-0.2,0.4-0.2,0.4
		c-0.1,0.2-0.2,0.3-0.2,0.4c-0.2,0.3-0.3,0.6-0.4,0.9c-0.1,0.4-0.2,0.8-0.2,1.3c0,0.2,0,0.4,0.1,0.7c0,0.5-0.1,0.8-0.4,0.9
		c-0.2,0-0.3,0.1-0.5,0c-0.2,0-0.3-0.1-0.5-0.2c-0.2-0.1-0.4-0.3-0.7-0.7c-0.3-0.3-0.5-0.6-0.8-0.9c-0.2,0.1-0.6,0.1-0.9,0.1
		c-0.3,0-0.8-0.1-1.4-0.3c-0.6-0.1-1-0.2-1.1-0.2c-0.5-0.1-1-0.2-1.5-0.2h-0.1l-0.1,0h-0.1h0h0h0c0,0-0.1,0-0.1,0
		c-0.1,0-0.3,0-0.4,0c-0.2,0-0.4,0.1-0.6,0.3c-0.2,0.1-0.4,0.4-0.6,0.6c-0.4,0.6-0.6,1.3-0.8,2.2c-0.2,0.9-0.2,1.8-0.1,2.7
		c0.1,0.9,0.2,1.8,0.5,2.6c0.1,0.4,0.3,0.8,0.5,1.1c0,0.1,0.1,0.1,0.2,0.2l0.1,0.1c0,0,0,0.1,0.1,0.1c0.1,0.1,0.2,0.2,0.3,0.4
		c0.5,0.5,1.1,0.8,1.7,1c0.3,0.1,0.6,0.1,0.9,0.1c0.1,0,0.3,0,0.4,0c0.1,0,0.2-0.1,0.4-0.1l0.1-0.1c0,0,0,0,0.1,0c0,0,0.1,0,0.1,0
		c0.1,0,0.1-0.1,0.2-0.2c0.1-0.1,0.1-0.1,0.2-0.2c0,0,0-0.1,0.1-0.1c0,0,0,0,0.1,0c0.1-0.1,0.1-0.1,0.1-0.2c0,0,0.3-0.6,0.9-1.6
		c0.2-0.4,0.4-0.7,0.6-1c0.3-0.4,0.6-0.7,0.9-1c0.4-0.3,0.7-0.4,0.8-0.3c0.1,0.1,0.2,0.3,0.2,0.6c0,0.4,0.1,0.8,0.1,1.1
		c0.1,0.7,0.4,1.2,0.7,1.5c0.3,0.3,0.7,0.4,1.1,0.4C321.9,163.1,322.4,163,323,162.9z"/>
	<path id="XMLID_39_" class="st3" d="M332,165.9c0.1,0.5,0.1,0.9,0.2,1.3c0.1,0.5,0.1,0.9,0.1,1.4c0,0.5-0.1,1-0.2,1.4
		c-0.1,0.2-0.2,0.3-0.3,0.4c-0.1,0.1-0.2,0.2-0.3,0.3c-0.2,0.1-0.4,0-0.6-0.2c-0.2-0.2-0.4-0.3-0.6-0.5c-0.2-0.1-0.4-0.2-0.6-0.3
		c-0.4-0.2-0.8-0.3-1.3-0.3c-0.5,0-1,0.1-1.7,0.3c-0.2,0.1-0.5,0.2-0.9,0.3c-0.6,0.2-1,0.1-1.3-0.3c-0.1-0.1-0.1-0.2-0.2-0.3
		s-0.1-0.2-0.1-0.3c0-0.2,0-0.4,0.1-0.7c0-0.1,0.1-0.3,0.2-0.7l0.2-0.6c0.3-1.1,0.6-2.3,0.8-3.5c0.2-1.2,0.3-2.4,0.4-3.6
		c0-0.3,0-0.6,0.1-1c0-0.3,0-0.6,0-0.9c0-0.3,0-0.5,0-0.9v-0.5c0-0.2,0-0.4,0-0.4l0-0.4l0-0.4c0-0.3-0.1-0.6-0.1-0.9
		c-0.1-0.6-0.2-1.2-0.3-1.7c-0.1-0.7-0.3-1.3-0.5-1.8c0-0.1-0.1-0.2-0.2-0.4c-0.1-0.2-0.1-0.4-0.2-0.5c-0.1-0.1-0.1-0.3-0.1-0.4
		c0-0.4,0.2-0.7,0.6-0.9c0.3-0.1,0.6-0.1,1,0.1c0.2,0.1,0.5,0.3,0.9,0.7c0.2,0.2,0.5,0.1,0.8-0.2c0.1-0.1,0.2-0.3,0.3-0.4
		c0,0,0.1-0.1,0.1-0.2c0-0.1,0.1-0.1,0.1-0.2c0,0,0-0.1,0.1-0.1c0.5-0.6,1-1,1.4-1c0.3,0,0.6,0,0.8,0.1c0.3,0.1,0.6,0.4,0.7,0.7
		c0.1,0.1,0.1,0.3,0.2,0.5c0,0.2,0,0.4,0,0.6c0,0.1,0,0.3,0,0.6c0,0.3,0,0.4,0,0.5c0,0.6,0,1.4-0.1,2.4c0,1,0,1.8-0.1,2.2
		c0,0.4,0,0.8,0,1.2c0,0.5,0,0.9,0,1.2c0,0.1,0,0.5,0,1.1c0,0.4,0,0.8,0,1.2c0,1.7,0.2,3.4,0.3,5.1
		C331.9,164.8,331.9,165.2,332,165.9z"/>
	<path id="XMLID_41_" class="st3" d="M355.2,161.6c0.3,0.3,0.4,0.5,0.5,0.7c0,0.1,0.1,0.2,0,0.3c0,0,0,0.1,0,0.1c0,0,0,0.1,0,0.1
		c-0.1,0.3-0.2,0.5-0.4,0.6c0,0-0.1,0.1-0.1,0.1c-0.1,0-0.1,0.1-0.1,0.1c0,0-0.1,0-0.1,0.1c-0.1,0-0.1,0.1-0.2,0.1
		c-0.2,0.1-0.4,0.3-0.6,0.4c-0.4,0.3-0.8,0.6-1,0.9c-0.4,0.5-0.5,1.1-0.5,1.8c0,0.2,0.1,0.4,0.1,0.6c0,0.1,0,0.2,0.1,0.3l0,0.2
		l0,0.1c0.1,0.4,0.1,0.7,0,0.8c-0.1,0.1-0.2,0.2-0.3,0.2c-0.2,0-0.4,0-0.7,0c-0.1,0-0.2-0.1-0.3-0.1c-0.1,0-0.2-0.1-0.3-0.1
		c-0.2-0.1-0.4-0.2-0.6-0.4c-0.1,0-0.2-0.1-0.3-0.2c-0.1-0.1-0.2-0.2-0.3-0.2c-0.1-0.1-0.2-0.2-0.3-0.3c0,0-0.1-0.1-0.2-0.3
		c-0.3-0.3-0.5-0.7-0.8-1.2c-0.2-0.3-0.4-0.7-0.5-1.1c-0.4-0.8-0.7-1.7-1.1-2.7c0,0,0-0.1,0-0.1c-1.6,0.2-3.1,0.7-4.5,1.3
		c0,0-0.1,0-0.1,0.1c-0.3,0.9-0.6,1.7-0.8,2.6c0,0.1-0.1,0.2-0.1,0.3c0,0.1-0.1,0.3-0.1,0.4c0,0.1-0.1,0.3-0.1,0.3
		c0,0.1-0.1,0.3-0.2,0.6c-0.1,0.3-0.1,0.5-0.2,0.6c-0.2,0.5-0.3,0.9-0.4,1.1c-0.1,0.2-0.2,0.4-0.3,0.5c-0.1,0.1-0.1,0.1-0.2,0.2
		c-0.1,0.1-0.1,0.1-0.2,0.2c-0.3,0.2-0.5,0.3-0.7,0.3c-0.3,0-0.4-0.2-0.5-0.5c-0.4-0.9-1-1.5-1.8-2c-0.4-0.3-1-0.5-1.7-0.6
		c-0.1,0-0.3-0.1-0.5-0.1c-0.2,0-0.4-0.1-0.4-0.1c-0.6-0.1-0.9-0.4-1-0.9c0-0.2,0-0.4,0-0.5c0,0,0-0.1,0-0.1c0,0,0-0.1,0.1-0.1
		c0.1-0.1,0.1-0.2,0.2-0.2c0.1-0.1,0.2-0.2,0.4-0.4c0.3-0.2,0.4-0.4,0.4-0.4c0.2-0.2,0.6-0.6,1-1.1c0.1-0.1,0.1-0.2,0.2-0.3l0.2-0.3
		c0.2-0.3,0.4-0.5,0.5-0.6c0.1-0.2,0.3-0.4,0.4-0.6c0.1-0.1,0.2-0.2,0.2-0.3l0.2-0.3c0.1-0.2,0.3-0.5,0.4-0.7
		c0.1-0.2,0.2-0.4,0.4-0.7c0.4-0.8,0.8-1.7,1.2-2.7c-0.1,0-0.1,0-0.2,0c-0.2,0-0.3-0.1-0.5-0.1c-0.3-0.1-0.5-0.3-0.5-0.5
		c0-0.2,0-0.3,0.1-0.5c0-0.1,0.1-0.2,0.2-0.2c0.1-0.1,0.2-0.2,0.2-0.2c0.1-0.1,0.3-0.2,0.6-0.5c0.3-0.2,0.5-0.4,0.6-0.5
		c0.3-0.2,0.2-0.5-0.2-0.8c-0.1-0.1-0.3-0.2-0.6-0.3c-0.3-0.2-0.4-0.3-0.4-0.3c-0.2-0.1-0.3-0.2-0.4-0.3c-0.1-0.1-0.2-0.2-0.3-0.4
		c-0.1-0.3-0.2-0.6-0.2-0.9s0.1-0.6,0.2-0.8c0.1-0.3,0.3-0.5,0.5-0.6c0.1-0.1,0.4-0.2,0.8-0.2c0.5,0,0.8-0.1,0.9-0.1
		c0.3-0.1,0.7-0.2,1.1-0.4l0.1,0l0,0c0,0,0.1,0,0.3-0.1l0.5-0.3c0.1-0.1,0.3-0.2,0.6-0.3c0.2-0.1,0.4-0.2,0.5-0.3
		c0.7-0.5,1.4-0.8,2-1c0.7-0.2,1.3-0.4,1.9-0.4c0.3,0,0.6-0.1,0.9,0c0.3,0,0.6,0.1,0.9,0.2c0.2,0,0.3,0.1,0.4,0.2c0,0,0.1,0,0.2,0.1
		c0.1,0.1,0.2,0.1,0.2,0.1c0,0,0.1,0.1,0.1,0.1l0.1,0.1l0.2,0.2c0.1,0.1,0.2,0.2,0.3,0.3l0.1,0.2c0.1,0.1,0.1,0.1,0.1,0.2l0.1,0.2
		l0.1,0.1l0,0.1c0.1,0.2,0.2,0.4,0.2,0.4c0.1,0.2,0.1,0.4,0.2,0.4c0.2,0.6,0.3,1.3,0.4,2c0.1,0.6,0.1,1.5,0.1,2.7c0,0.4,0,0.6,0,0.7
		v0.2l0,0.1v0v0v0.1l0.1,0.3c0,0,0,0.1,0,0.1s0,0.1,0,0.2c0.2,0.8,0.6,1.6,1,2.4c0.5,0.8,1,1.5,1.6,2.1c0.1,0.1,0.2,0.3,0.4,0.4
		S355.2,161.5,355.2,161.6z M343.9,160.2c0.3-0.1,0.6-0.2,0.9-0.3c0.5-0.2,1-0.4,1.5-0.6c-0.2-0.9-0.3-1.7-0.3-2.4
		c0-0.2,0-0.5-0.1-0.8V156c-0.5,0.9-0.9,1.7-1.2,2.4c-0.1,0.3-0.3,0.5-0.4,0.9C344.1,159.6,344,159.9,343.9,160.2L343.9,160.2z"/>
	<path id="XMLID_44_" class="st3" d="M374.8,162c0.1,0.1,0.1,0.2,0.2,0.3c0.1,0.2,0.1,0.4,0,0.6c-0.1,0.3-0.4,0.5-0.8,0.6
		c-0.2,0-0.4,0.1-0.5,0.2c-0.1,0-0.1,0-0.2,0.1c0,0-0.1,0-0.3,0.1c-0.2,0.1-0.3,0.4-0.3,0.8c0,0.3,0,0.4,0,0.5c0,0.2,0,0.3,0,0.4
		c0,0.3-0.1,0.5-0.2,0.8c-0.1,0.2-0.2,0.5-0.4,0.7c0,0-0.2,0.2-0.5,0.6c-0.1,0.1-0.1,0.2-0.2,0.2c0,0-0.1,0.1-0.1,0.2h0c0,0,0,0,0,0
		c0,0,0,0,0-0.1l0,0c0,0,0,0,0-0.1l0-0.1c0-0.1-0.1-0.1-0.1-0.1c-0.2-0.1-0.4-0.3-0.8-0.3c-0.3-0.1-0.7-0.1-1.1-0.1
		c-0.8,0-1.6,0.1-2.4,0.4c-0.5,0.1-0.9,0.3-1.4,0.5c-0.4,0.2-0.9,0.4-1.4,0.7c-0.3,0.2-0.7,0.5-1.4,0.9c-0.6,0.4-1.2,0.6-1.7,0.5
		c-0.3,0-0.4-0.1-0.6-0.3c-0.1-0.2-0.2-0.4-0.1-0.7c0-0.1,0-0.2,0.1-0.3c-0.1-0.1-0.2-0.1-0.3-0.1c-0.1,0-0.3,0.1-0.5,0.2
		c-0.2,0.1-0.3,0.3-0.4,0.4c-0.1,0.1-0.2,0.2-0.3,0.4c-0.1,0.2-0.3,0.3-0.3,0.4c-0.1,0.1-0.2,0.3-0.3,0.3c-0.3,0.3-0.5,0.4-0.8,0.4
		c-0.3,0-0.6-0.1-0.9-0.3c-0.1-0.1-0.3-0.3-0.4-0.4c-0.1-0.1-0.1-0.2-0.2-0.3c0-0.1-0.1-0.2-0.1-0.4c0-0.1,0-0.1,0-0.2
		c0-0.1,0-0.1,0-0.2c0-0.1,0-0.2,0-0.4c0-0.1,0-0.2,0-0.4c0,0,0-0.1,0-0.2c0,0,0-0.1,0-0.2c0-0.1,0.1-0.2,0.1-0.3c0,0,0-0.2,0.1-0.3
		c0-0.1,0.1-0.2,0.1-0.3c0-0.1,0.1-0.2,0.1-0.3c0.1-0.5,0.3-0.9,0.4-1.3c0-0.1,0.1-0.3,0.2-0.6c0.1-0.3,0.2-0.5,0.2-0.6
		c0.1-0.2,0.1-0.4,0.2-0.5c0.1-0.2,0.1-0.4,0.2-0.5c0-0.1,0.1-0.2,0.1-0.3s0.1-0.2,0.1-0.2l0.1-0.3l0.1-0.3c0.3-1.4,0.5-2.8,0.5-4.4
		c0-1.7-0.3-3.4-0.7-4.9c-0.2-0.8-0.5-1.6-0.8-2.3c-0.1-0.2-0.1-0.3-0.2-0.5c-0.1-0.2-0.2-0.4-0.2-0.5c0-0.1-0.1-0.2-0.1-0.3
		c0-0.1,0-0.2-0.1-0.3c0-0.2-0.1-0.4-0.1-0.6c0-0.1,0-0.2,0-0.2c0-0.1,0-0.1,0-0.2c0-0.1,0.1-0.2,0.2-0.3c0.2-0.2,0.4-0.3,0.6-0.2
		c0.5,0.1,0.9,0.2,1.4,0.2c0.5,0,0.9-0.1,1.3-0.3c0.3-0.1,0.5-0.3,0.7-0.4c0.2-0.2,0.4-0.4,0.6-0.6c0.2-0.2,0.4-0.4,0.6-0.8
		c0.4-0.5,0.8-0.6,1.3-0.2c0.2,0.2,0.4,0.4,0.5,0.7c0.1,0.3,0.2,0.6,0.3,0.9c0,0.2,0.1,0.5,0.1,1c0,0.5,0,0.8,0,0.9
		c0.1,1.2,0.1,2.7,0,4.4c0,1.4-0.1,2.9-0.2,4.4s-0.2,2.9-0.4,4.4l-0.1,0.5v0.2c0.6-0.1,1.3-0.2,2-0.3c0.6-0.1,1.4-0.3,2.5-0.5
		c1.2-0.2,2.2-0.4,2.8-0.4c0.7-0.1,1.3-0.1,1.9-0.1c0,0,0.1,0,0.1,0c0,0,0.1,0,0.1,0s0.1,0,0.1,0c0,0,0.1,0,0.1,0c0.2,0,0.3,0,0.4,0
		c0.2,0,0.3,0.1,0.4,0.1c0.1,0,0.2,0.1,0.2,0.1c0.1,0,0.1,0.1,0.2,0.1C374.6,161.8,374.7,161.9,374.8,162z"/>
	<path id="XMLID_46_" class="st3" d="M393.9,158.9l0.1,0.3c0.3,1.5,0.2,3-0.2,4.4c-0.2,0.7-0.5,1.4-0.8,2.1c0,0-0.1,0.1-0.1,0.2
		c0,0.1-0.1,0.2-0.1,0.2c-0.1,0.1-0.2,0.3-0.3,0.4c-0.2,0.4-0.4,0.7-0.6,0.9c-0.5,0.6-1,1.1-1.5,1.5c-0.1,0.1-0.2,0.1-0.2,0.2
		l-0.3,0.2c0,0-0.1,0.1-0.1,0.1l-0.2,0.1c-0.1,0.1-0.2,0.1-0.3,0.2c-0.4,0.2-0.8,0.4-1.3,0.5c-0.3,0.1-0.6,0.1-0.9,0.1
		c-0.3,0-0.6,0-0.9-0.1c-0.1,0-0.2,0-0.4-0.1c0,0-0.1,0-0.2-0.1c-0.1,0-0.1-0.1-0.2-0.1c-0.3-0.1-0.5-0.2-0.8-0.4
		c-0.2-0.2-0.5-0.3-0.7-0.5c-0.1-0.1-0.2-0.2-0.3-0.3l-0.2-0.2l-0.1-0.1c-0.1-0.1-0.4-0.4-0.8-0.8l-0.1-0.1l-0.1-0.1
		c0,0,0,0-0.1-0.1c0,0,0,0-0.1-0.1h0h0c0,0,0,0,0,0.1h0c-0.2,0.1-0.3,0.2-0.5,0.3c-0.2,0.1-0.4,0.2-0.5,0.4
		c-0.2,0.1-0.4,0.3-0.6,0.4c-0.3,0.3-0.6,0.4-0.7,0.5c-0.2,0.1-0.4,0.2-0.5,0.3s-0.2,0.1-0.3,0c0-0.1,0-0.2,0-0.4
		c0.1-0.4,0.2-0.7,0.3-0.9c0.1-0.3,0.1-0.5,0.1-0.7c0-0.5-0.1-0.8-0.4-1c-0.3-0.3-1-0.2-1.9,0.2c-0.5,0.2-1,0.5-1.4,0.7
		c0,0-0.1,0-0.1,0.1c0,0-0.1,0-0.1,0.1c0,0-0.1,0-0.1,0.1c0,0-0.1,0.1-0.2,0.1c-0.2,0.1-0.3,0.1-0.3,0c-0.1-0.2,0-0.6,0.4-1.3
		c0.3-0.6,0.8-1.2,1.4-1.7c0.6-0.6,1.3-1.1,2-1.6c0.1,0,0.2-0.1,0.3-0.2l0.2-0.1l0.2-0.1l0.2-0.1l0.2-0.1c0.1,0,0.3-0.1,0.5-0.2
		c0.7-0.3,1.3-0.4,2-0.4c0.7,0,1.3,0.1,1.9,0.4l0.1,0.1h0v0h0.1l0.2,0.1c0.2,0.1,0.3,0.2,0.4,0.2c0.2,0.2,0.5,0.4,0.7,0.6
		c0.1,0.1,0.3,0.3,0.4,0.4c0.1,0.1,0.2,0.2,0.3,0.3c0.1,0.2,0.2,0.4,0.4,0.6c0.1,0.2,0.2,0.3,0.3,0.4l0.1,0.1l0.1,0.1l0,0v0
		c0,0,0.1,0.1,0.1,0.1c0.1,0,0.1,0.1,0.2,0.1c0.1,0,0.1,0,0.2,0l0.1-0.1c0,0,0.1-0.1,0.1-0.1l0.1-0.1c0,0,0.1,0,0.1-0.1
		c0.4-0.3,0.8-0.8,1.1-1.3l0.2-0.4c0,0,0-0.1,0.1-0.1l0-0.1c0,0,0,0,0-0.1c0,0,0-0.1,0.1-0.1l0.1-0.2c0,0,0-0.1,0.1-0.2
		c0,0,0.1-0.2,0.2-0.4c0.1-0.3,0.1-0.6,0.2-0.8c0,0,0-0.1,0-0.1c0,0,0-0.1,0-0.2c0-0.1,0-0.1,0-0.1c0,0,0-0.1,0-0.1s0-0.1,0-0.1
		v-0.1c0,0,0-0.1,0-0.1v-0.2l0-0.2V160l0-0.1v-0.2l-0.1-0.2v-0.1l0-0.1c0,0,0-0.1,0-0.1l0-0.1l0-0.2c0,0,0,0,0,0c0,0,0,0,0-0.1
		l0-0.1c0-0.1,0-0.1-0.1-0.2c0-0.1-0.1-0.2-0.1-0.3c-0.1-0.2-0.2-0.3-0.3-0.4h0l0,0c0,0-0.1,0-0.1-0.1c-0.1,0-0.1,0-0.1-0.1
		c0,0-0.1,0-0.1,0c-0.2,0-0.3-0.1-0.4-0.1c-0.2,0-0.3,0-0.5,0.1c-0.2,0.1-0.4,0.2-0.7,0.3c-0.2,0.1-0.5,0.3-0.9,0.6
		c-0.1,0-0.2,0.1-0.3,0.2c-0.1,0.1-0.2,0.2-0.4,0.3c-0.1,0.1-0.2,0.2-0.3,0.3c-0.4,0.3-0.8,0.5-1.2,0.7c-0.5,0.3-1,0.5-1.5,0.6
		c-0.6,0.2-1.2,0.2-1.8,0.1c0,0-0.2,0-0.4-0.1c-0.1,0-0.2,0-0.2-0.1l-0.2,0c-0.3-0.1-0.6-0.2-0.8-0.4c-0.6-0.3-1.1-0.7-1.5-1.2
		c-0.4-0.4-0.7-0.9-0.9-1.5c-0.2-0.5-0.3-1-0.5-1.5c-0.1-0.5-0.2-1-0.2-1.4c0-0.5,0-1,0-1.4c0-0.3,0.1-0.5,0.1-0.7
		c0,0,0-0.1,0.1-0.4c0-0.2,0.1-0.3,0.1-0.3c0.2-1,0.6-1.9,1-2.6c0.1-0.2,0.3-0.5,0.4-0.7c0,0,0.1-0.1,0.1-0.2c0-0.1,0.1-0.1,0.1-0.2
		l0.1-0.2c0,0,0.1-0.1,0.1-0.2l0.1-0.1l0.1-0.1c0.1-0.1,0.2-0.2,0.2-0.2c0.2-0.2,0.3-0.3,0.4-0.3c0.2-0.2,0.5-0.4,0.9-0.5
		c0.8-0.3,1.6-0.5,2.5-0.4c0.3,0,0.5,0.1,0.6,0.1c0.2,0,0.3,0.1,0.3,0.1l0.2,0.1c0.4,0.1,0.7,0.2,1,0.4c0.2,0.1,0.5,0.3,0.8,0.4
		c0.4,0.3,0.6,0.4,0.6,0.4c0.2,0.1,0.3,0.2,0.5,0.2c0.1,0,0.2,0.1,0.3,0.1c0,0,0,0,0.1,0h0c0.1,0,0.1,0,0.2,0c0.1,0,0.2,0,0.3,0
		c0.2,0,0.5,0,0.7-0.1c0.4-0.1,0.9-0.2,1.3-0.4c0.4-0.2,0.6-0.3,0.7-0.3c0.1,0,0.1,0,0.2-0.1c0.1,0,0.2,0,0.2,0
		c0.1,0,0.1,0.1,0.2,0.1c0,0,0.1,0.1,0.1,0.1c0,0.2,0,0.3,0,0.5c0,0.1-0.1,0.2-0.2,0.4s-0.2,0.3-0.3,0.4c-0.3,0.3-0.5,0.5-0.9,0.6
		c-0.2,0.1-0.3,0.2-0.3,0.3s-0.1,0.1-0.1,0.2c0,0,0.1,0.1,0.2,0.1c0.1,0,0.2,0.1,0.4,0.1c0.3,0,0.7,0,1.1-0.1c0.3-0.1,0.6-0.2,1-0.3
		c0.3-0.1,0.5-0.3,0.8-0.4c0.1,0,0.3-0.2,0.7-0.5c0.1-0.1,0.1-0.1,0.2-0.2c0.1-0.1,0.2-0.1,0.2-0.1c0.1,0,0.2,0,0.3,0.1
		c0,0.1,0.1,0.3,0.1,0.5c0,0.1,0,0.3,0,0.4c0,0.1-0.1,0.3-0.1,0.4c-0.1,0.4-0.4,0.8-0.7,1.1c-0.4,0.4-0.8,0.8-1.4,1.2
		c-0.3,0.1-0.6,0.3-0.8,0.4c-0.3,0.1-0.6,0.2-0.9,0.3c-0.3,0.1-0.7,0.1-1,0.2c-0.3,0-0.6,0.1-1,0.1c-0.7,0-1.3-0.1-2-0.3
		c-0.1,0-0.2-0.1-0.2-0.1c-0.1,0-0.2-0.1-0.3-0.1c-0.1,0-0.2-0.1-0.3-0.1c-0.1,0-0.2-0.1-0.2-0.1c-0.2-0.1-0.3-0.2-0.4-0.2l-0.2-0.1
		c0,0,0,0-0.1,0c0,0-0.1-0.1-0.1-0.1c-0.2-0.1-0.5-0.3-0.8-0.5c-0.3-0.2-0.5-0.4-0.5-0.4c-0.2-0.1-0.3-0.2-0.4-0.3c0,0-0.1,0-0.1,0
		c0,0-0.1,0-0.1,0c0,0,0,0-0.1,0l-0.1,0h0h0v0h0h0c0,0,0,0-0.1,0c-0.1,0-0.1,0-0.2,0c-0.1,0-0.1,0-0.2,0.1c0,0,0,0-0.1,0
		c0,0,0,0-0.1,0v0h0l0,0l0,0c0,0,0,0-0.1,0.1c0,0-0.1,0.1-0.1,0.2c-0.1,0.1-0.1,0.3-0.2,0.4c-0.2,0.3-0.3,0.7-0.5,1.1
		c0,0.1-0.1,0.2-0.1,0.3l0,0v0v0c0,0,0,0.1,0,0.1c0,0.2-0.1,0.3-0.1,0.5c0,0.4-0.1,0.8,0,1.1c0,0.4,0.1,0.7,0.2,1
		c0.1,0.2,0.1,0.3,0.2,0.4c0,0.1,0.1,0.2,0.2,0.3c0.1,0.1,0.1,0.2,0.2,0.2c0.1,0.1,0.2,0.1,0.2,0.1h0.1l0,0h0c0,0,0,0,0.1,0
		c0,0,0,0,0.1,0s0,0,0.1,0c0,0,0.1,0,0.3,0c0.2,0,0.5-0.1,0.8-0.3c0.3-0.2,0.6-0.4,1.1-0.7c0.7-0.5,1.1-0.8,1.3-1
		c0.7-0.4,1.2-0.7,1.8-0.9c0.4-0.2,0.8-0.3,1.3-0.3c0.1,0,0.2,0,0.3,0c0.1,0,0.2,0,0.4,0h0.2l0.2,0c0.1,0,0.2,0,0.3,0
		c0.1,0,0.2,0,0.3,0.1l0.2,0l0.2,0.1c0.1,0,0.2,0.1,0.3,0.1c0,0,0.1,0.1,0.3,0.1l0.2,0.1c0.1,0,0.1,0.1,0.1,0.1
		c0.2,0.1,0.3,0.2,0.3,0.2c0.2,0.1,0.4,0.2,0.6,0.4c0.3,0.3,0.6,0.6,0.9,1c0.2,0.3,0.5,0.7,0.6,1.1c0,0.1,0.1,0.2,0.1,0.3
		c0,0,0,0.1,0,0.1l0.1,0.1l0.1,0.3c0,0,0.1,0.1,0.1,0.3l0.1,0.3l0.1,0.3L393.9,158.9z"/>
	<path id="XMLID_48_" class="st3" d="M423.1,148.1c0,0.1,0.1,0.2,0.1,0.3c0,0.1,0,0.2,0,0.3c0,0.1,0,0.1,0,0.2c0,0.1,0,0.1,0,0.2
		c0,0.1,0,0.2-0.1,0.3c0,0,0,0.1,0,0.1s0,0.1-0.1,0.1c0,0.1,0,0.1,0,0.2c-0.1,0.4-0.2,0.7-0.2,0.7c-0.3,1.1-0.5,2.3-0.7,3.7
		c-0.2,1.3-0.3,2.6-0.3,3.9c0,0.7,0,1.3,0,2c0,0.3,0,0.6,0,1c0,0.5,0,0.8,0.1,1c0,0.7,0,1.4,0.1,2.1c0,0.7,0.1,1.4,0.2,1.9
		c0.1,0.8,0.2,1.5,0.3,2c0,0.1,0.1,0.2,0.1,0.4c0.1,0.2,0.1,0.4,0.2,0.5c0,0.1,0.1,0.3,0.1,0.4c0,0.4-0.2,0.6-0.6,0.8
		c-0.3,0.1-0.7,0.1-1-0.1c-0.2-0.1-0.5-0.3-0.9-0.7c-0.1-0.1-0.3-0.2-0.4-0.1c-0.1,0-0.3,0.1-0.4,0.3c-0.1,0.1-0.3,0.3-0.4,0.4
		c0,0-0.1,0.1-0.2,0.2c-0.1,0.1-0.1,0.2-0.2,0.2c-0.1,0.1-0.1,0.1-0.2,0.2c-0.1,0.1-0.1,0.2-0.2,0.2c-0.1,0.1-0.2,0.2-0.3,0.3
		c-0.3,0.2-0.5,0.4-0.8,0.4c-0.3,0-0.6-0.1-0.9-0.2c-0.2-0.1-0.3-0.2-0.4-0.3c-0.1-0.2-0.2-0.3-0.3-0.5c-0.1-0.2-0.1-0.4-0.1-0.6
		c0-0.2,0-0.4,0-0.6c0-0.1,0-0.3,0.1-0.6c0-0.3,0.1-0.5,0.1-0.5c0-0.3,0.1-1.2,0.3-2.5c0.1-1,0.2-1.7,0.2-2.3c0-0.2,0-0.4,0-0.5
		v-0.3l0-0.3c0-0.3,0-0.7,0-1.2c0-0.5,0-1-0.1-1.6c-0.5-0.1-1.1-0.1-1.6-0.1c-0.5,0-0.9,0.1-1.3,0.1c-0.5,0.1-0.9,0.2-1.3,0.3
		c-0.2,0.1-0.5,0.1-0.7,0.2c0.1,1.6,0.2,3.2,0.3,4.8c0,0.2,0.1,0.7,0.2,1.4c0,0.2,0.1,0.4,0.1,0.7c0,0.3,0.1,0.5,0.1,0.7
		c0.1,0.5,0.1,1,0.1,1.4c0,0.5-0.1,1-0.2,1.4c-0.1,0.2-0.2,0.3-0.3,0.5c-0.1,0.1-0.2,0.2-0.3,0.3c-0.3,0.1-0.5,0.1-0.7-0.2
		c-0.2-0.2-0.4-0.3-0.6-0.5c-0.2-0.1-0.4-0.3-0.6-0.3c-0.4-0.2-0.9-0.3-1.3-0.3c-0.5,0-1.1,0.1-1.8,0.3c0,0-0.4,0.1-0.9,0.3
		c-0.6,0.2-1,0.1-1.3-0.4c-0.1-0.1-0.1-0.2-0.2-0.3s-0.1-0.2-0.1-0.3c0-0.2,0-0.4,0.1-0.7c0-0.1,0.1-0.4,0.2-0.7c0-0.1,0-0.1,0-0.2
		s0-0.1,0.1-0.2c0,0,0-0.1,0.1-0.2s0-0.1,0-0.2c0.3-1.1,0.6-2.4,0.8-3.7c0.2-1.3,0.4-2.5,0.5-3.8c0-0.3,0-0.6,0-1c0-0.3,0-0.6,0-1
		c0-0.3,0-0.6,0-1l0-0.5c0-0.2,0-0.4,0-0.4l0-0.5l-0.1-0.5c0-0.3-0.1-0.7-0.1-1c-0.1-0.6-0.2-1.2-0.3-1.8c-0.2-0.7-0.3-1.4-0.5-1.9
		c0-0.1-0.1-0.2-0.2-0.4c-0.1-0.2-0.2-0.4-0.2-0.5c0-0.1-0.1-0.3-0.1-0.5c0-0.5,0.2-0.8,0.6-0.9c0.3-0.1,0.7-0.1,1.1,0.1
		c0.2,0.1,0.5,0.3,0.9,0.7c0.2,0.2,0.5,0.1,0.8-0.2c0.1-0.1,0.3-0.3,0.4-0.5c0,0,0.1-0.1,0.1-0.1c0-0.1,0.1-0.1,0.1-0.2
		c0,0,0.1-0.1,0.1-0.1c0.5-0.7,1-1,1.5-1.1c0.3,0,0.6,0,0.8,0.1c0.3,0.1,0.6,0.4,0.7,0.7c0.1,0.2,0.1,0.3,0.1,0.5c0,0.2,0,0.4,0,0.6
		c0,0.1,0,0.3,0,0.6c0,0.3,0,0.5,0,0.6c0,0.6,0,1.4-0.1,2.5s-0.1,1.9-0.1,2.4v0c0.4,0,0.7,0.1,1,0.1c0.8,0.1,1.6,0.2,2.2,0.2
		c0.5,0,0.9,0.1,1.4,0.1c-0.1-0.6-0.1-1.2-0.2-1.9c0-0.1,0-0.3-0.1-0.4c0-0.2-0.1-0.3-0.1-0.5s-0.1-0.3-0.1-0.4
		c0-0.3-0.1-0.6-0.1-0.7c0-0.3-0.1-0.6-0.1-0.7c-0.1-0.5-0.1-1-0.1-1.5c0-0.2,0-0.5,0.1-0.8c0-0.1,0-0.1,0-0.2c0-0.1,0-0.2,0-0.2
		c0-0.1,0.1-0.3,0.1-0.4c0.1-0.2,0.2-0.3,0.3-0.5s0.2-0.2,0.3-0.3c0.2-0.1,0.5,0,0.7,0.2c0.1,0.1,0.2,0.2,0.3,0.3
		c0.1,0.1,0.2,0.1,0.3,0.2c0.2,0.1,0.4,0.3,0.6,0.4c0.4,0.2,0.9,0.3,1.4,0.3c0.5,0,1-0.1,1.8-0.3c0.5-0.1,0.8-0.2,0.9-0.3
		c0.6-0.1,1,0,1.3,0.4C423,147.9,423.1,148,423.1,148.1z"/>
	<path id="XMLID_50_" class="st3" d="M443,166.2c0.7,0.2,0.9,0.6,0.6,1.2c-0.3,0.5-0.8,1-1.6,1.5c-0.5,0.3-1.2,0.6-2.2,1
		c-1.1,0.4-2.2,0.6-3.2,0.8c-0.6,0.1-1.2,0.1-1.8,0.1c-0.2,0-0.4,0-0.5,0c-0.2,0-0.3,0-0.5,0l-0.2,0l-0.2,0l-0.2,0l-0.3-0.1l-0.1,0
		c0,0-0.1,0-0.1,0l-0.3-0.1l-0.2-0.1l-0.1,0l-0.1,0c-0.2-0.1-0.3-0.1-0.5-0.2c-0.1,0-0.2-0.1-0.5-0.2c-0.6-0.4-1.2-0.8-1.7-1.4
		c-0.1-0.1-0.2-0.3-0.3-0.4c0-0.1-0.1-0.2-0.3-0.4c0,0-0.1-0.2-0.3-0.4c0-0.1-0.1-0.2-0.1-0.2l-0.1-0.2c-0.1-0.2-0.2-0.5-0.4-0.9
		l-0.1-0.4c0-0.1,0-0.1,0-0.2l-0.1-0.2c-0.1-0.5-0.2-1-0.3-1.6l0-0.2V163l-0.1-0.4c0-0.4,0-0.6,0-0.7c0-0.3,0-0.6-0.1-0.9
		c0-0.1,0-0.2-0.1-0.3c0-0.2-0.1-0.3-0.1-0.5c-0.1-0.4-0.2-0.7-0.3-1c-0.2-0.4-0.4-0.7-0.8-1c-0.2-0.1-0.4-0.3-0.6-0.4
		c-0.4-0.3-0.5-0.6-0.3-0.9c0-0.1,0.1-0.1,0.2-0.2c0.1,0,0.1-0.1,0.2-0.2c0.1,0,0.2-0.1,0.3-0.1c0.1,0,0.1,0,0.2-0.1
		c0.1,0,0.2,0,0.3-0.1c0.1,0,0.2,0,0.3,0c0.1,0,0.2,0,0.3,0c0.1,0,0.2,0,0.2,0c0,0,0.1,0,0.1,0c-0.1-0.6-0.1-1.3-0.2-2
		c0-0.6-0.1-1-0.1-1.4c0-0.1,0-0.3-0.1-0.6c-0.1-0.3-0.1-0.5-0.1-0.6c0-0.1-0.1-0.4-0.2-0.9c-0.2,0-0.4,0-0.5-0.1
		c-0.7-0.1-1.1-0.1-1.2-0.2c-0.2-0.1-0.3-0.2-0.4-0.3s-0.1-0.3-0.1-0.4c0-0.2,0.2-0.4,0.5-0.5c0.1,0,0.4-0.2,0.8-0.3
		c0.2-0.1,0.3-0.3,0.2-0.6c0,0,0-0.1-0.1-0.2c0-0.1,0-0.1-0.1-0.2s0-0.1-0.1-0.2c0-0.1,0-0.1-0.1-0.2c-0.1-0.3-0.1-0.5-0.1-0.6
		c0-0.2,0.1-0.4,0.2-0.6s0.2-0.4,0.3-0.5c0.1-0.1,0.1-0.2,0.2-0.2c0.1,0,0.2-0.1,0.3-0.1c0.1,0,0.2,0,0.4,0.1
		c0.1,0.1,0.3,0.1,0.4,0.2c0.2,0.1,0.3,0.2,0.3,0.2c0.8,0.4,1.7,0.8,2.7,1.1c1,0.3,1.9,0.5,2.8,0.6c0.5,0.1,1,0.1,1.6,0.1
		c0.5,0,1.1,0,1.6-0.1c0.5-0.1,1-0.2,1.5-0.3c0.6-0.2,1-0.2,1.1-0.2c0,0,0.1,0,0.1,0.1c0,0,0,0,0.1,0.1c0,0,0,0.1,0,0.1
		c0.1,0.2,0.1,0.4,0.2,0.5c0,0,0,0.1,0,0.1c0,0,0,0,0,0.1c0,0,0,0,0,0.1c0,0,0,0.1,0,0.2c0,0.2,0,0.4,0,0.5c0,0.4,0.1,0.7,0.1,1
		c0,0.2,0.1,0.4,0.2,0.6c0.1,0.2,0.3,0.4,0.4,0.5c0.1,0.1,0.3,0.3,0.6,0.4c0.2,0.1,0.3,0.3,0.4,0.4c0,0.2,0,0.4-0.2,0.6
		c0,0-0.1,0.1-0.2,0.1c0,0-0.1,0.1-0.1,0.1c-0.1,0.1-0.2,0.1-0.4,0.2c0,0-0.1,0-0.2,0c-0.1,0-0.1,0-0.2,0.1c-0.1,0-0.1,0-0.2,0
		l-0.1,0c0,0,0,0-0.1,0c-0.3,0-0.7,0-1.3-0.1c-0.6-0.1-1.6-0.3-2.8-0.6c-1.2-0.3-1.8-0.4-2-0.5c0,0.2,0,0.5-0.1,0.7
		c0,0.3,0,0.5-0.1,0.7c0,0.2,0,0.4-0.1,0.7c0,0.3,0,0.5,0,0.7c0,0.5-0.1,1-0.1,1.4v0.4v0.1c0.9,0.1,1.8,0.1,2.6,0.2
		c0.5,0,0.8,0,1.1,0c0.5,0,0.8,0,0.9,0c0.3,0.1,0.4,0.4,0.3,0.7c0,0.3-0.1,0.5-0.4,0.6c-0.1,0.1-0.3,0.2-0.6,0.4
		c-0.1,0.1-0.2,0.3-0.1,0.6c0,0.1,0.1,0.2,0.1,0.4c0,0.2,0.1,0.3,0.1,0.3c0.1,0.5,0.1,0.9,0,1.2c-0.2,0.5-0.4,0.8-0.6,0.9
		c-0.1,0-0.2,0-0.3,0c-0.1,0-0.2-0.1-0.3-0.2c-0.1-0.1-0.2-0.1-0.2-0.2c-0.8-0.4-1.7-0.7-2.7-0.8c0,0.4,0,0.7,0.1,1.1
		c0.1,0.5,0.1,0.8,0.2,1.2c0.1,0.4,0.3,0.7,0.4,1l0,0.1l0,0v0h0c0,0,0,0,0,0.1h0v0l0,0l0.1,0c0,0,0,0,0.1,0l0,0
		c0.1,0.1,0.3,0.1,0.4,0.1h0c0,0,0,0,0.1,0l0.1,0h0h0c0.1,0,0.2,0,0.4-0.1c0.5-0.1,1.1-0.5,1.7-1c1-0.8,1.7-1.2,2.2-1.4
		c0.3-0.2,0.6-0.2,0.9-0.1c0.3,0.1,0.4,0.3,0.4,0.6c0,1.1,0.2,2,0.8,2.7c0.3,0.4,0.9,0.7,1.6,0.9C442.2,166,442.6,166.1,443,166.2z"
		/>
	<path id="XMLID_52_" class="st3" d="M462.2,168.5c0.1,0.1,0.1,0.2,0.2,0.3c0.1,0.2,0.2,0.4,0.2,0.5c0,0.2-0.2,0.3-0.4,0.4
		c-0.2,0.1-0.5,0.1-0.7,0.1c-0.1,0-0.1,0-0.2,0c-0.1,0-0.1,0-0.2-0.1c-0.1,0-0.2-0.1-0.4-0.1c-0.3-0.1-0.7-0.4-1.2-0.7
		c-0.4-0.3-0.8-0.6-1.1-1c-0.3-0.3-0.6-0.6-1-1c-0.5-0.5-1-1.1-1.7-1.9c-0.2-0.2-0.4-0.5-0.8-1s-0.6-0.7-0.8-1
		c-0.6-0.7-1-1.2-1.2-1.5c0,0-0.1,0-0.1,0.1c-0.1,0-0.1,0.1-0.2,0.1c0.1,1,0.3,1.9,0.4,2.9c0.1,0.6,0.3,1.3,0.5,2
		c0.2,0.9,0.3,1.6,0.2,2c0,0.1-0.1,0.2-0.1,0.3l0,0v0c0,0,0,0-0.1,0c0,0-0.1,0-0.1,0.1c-0.2,0.1-0.3,0.1-0.5,0.1c0,0-0.1,0-0.1-0.1
		c-0.1,0-0.1,0-0.1-0.1c-0.1,0-0.2,0-0.2-0.1c-0.2-0.1-0.4-0.1-0.5-0.1c-0.3-0.1-0.7-0.1-1,0c-0.4,0.1-0.8,0.3-1.2,0.6
		c-0.1,0.1-0.2,0.2-0.3,0.3c-0.1,0.2-0.2,0.3-0.3,0.3c-0.2,0.2-0.3,0.4-0.4,0.4c-0.1,0-0.1,0-0.2-0.1c-0.1,0-0.1-0.1-0.2-0.1
		l-0.1-0.1c0,0,0-0.1-0.1-0.1c-0.3-0.4-0.4-0.8-0.4-1.4c0-0.1,0-0.2,0-0.3c0-0.1,0-0.2,0-0.3c0-0.1,0-0.2,0-0.3c0-0.1,0-0.3,0-0.3
		c0.1-1.2,0.2-2.2,0.3-3.2c0,0,0-0.2,0-0.5c-0.2,0.1-0.5,0.2-0.7,0.2c-0.9,0.2-1.4,0.2-1.6-0.2c-0.1-0.2,0-0.5,0.4-0.9
		c0.1-0.1,0.5-0.4,1.3-1c0.3-0.3,0.3-0.5-0.2-0.6c-0.2-0.1-0.4-0.1-0.7-0.2s-0.5-0.1-0.6-0.1c-0.9-0.2-1.3-0.6-1.3-1
		c0-0.6,0.4-1.1,1.2-1.5c0.3-0.1,0.8-0.3,1.4-0.4c0.1,0,0.3-0.1,0.5-0.1s0.4-0.1,0.4-0.1c-0.1-0.9-0.2-1.7-0.3-2.5c0,0,0,0-0.1,0
		c0,0-0.1,0.1-0.2,0.1c-0.1,0.1-0.3,0.1-0.4,0.1c-0.2,0-0.4-0.1-0.4-0.4c0-0.1,0-0.2-0.1-0.3c0-0.2-0.1-0.3-0.1-0.3
		c0-0.2-0.1-0.4-0.2-0.6c-0.2-0.4-0.4-0.7-0.7-0.9c-0.2-0.1-0.5-0.2-0.7-0.2c-0.3,0-0.6,0-0.9,0.1c-0.4,0.1-0.7,0.2-1.1,0.3
		c-0.3,0.1-0.6,0.1-0.7,0c-0.2-0.1-0.2-0.4,0-0.9c0.2-0.8,0.8-1.6,1.7-2.4c0.1-0.1,0.2-0.2,0.3-0.3c0.1-0.1,0.1-0.1,0.2-0.1l0.2-0.1
		c0.2-0.2,0.3-0.2,0.3-0.3c0,0,0.1-0.1,0.3-0.2c0.1,0,0.2-0.1,0.3-0.2c0.1,0,0.2-0.1,0.3-0.2c0,0,0.1,0,0.2-0.1
		c0.1,0,0.1-0.1,0.2-0.1c0.1,0,0.2-0.1,0.3-0.2c1.1-0.6,2.3-1,3.6-1.3l0.5-0.1l0.2,0l0.2,0c0.3,0,0.5-0.1,0.8-0.1
		c0.6-0.1,1.2-0.1,1.8-0.2c0.3,0,0.6,0,1,0c0.3,0,0.6,0,1,0c0.3,0,0.7,0.1,1,0.1c0.3,0.1,0.7,0.1,1,0.2c0.3,0.1,0.7,0.3,1.1,0.4
		c0.1,0.1,0.2,0.1,0.2,0.1l0.3,0.1c0,0,0.1,0.1,0.3,0.2c0.1,0,0.2,0.1,0.3,0.2c0.1,0.1,0.3,0.2,0.5,0.4s0.4,0.3,0.5,0.4
		c0.3,0.4,0.6,0.7,0.8,1c0.2,0.4,0.4,0.8,0.5,1.2c0.1,0.4,0.2,0.8,0.2,1.3c0,0.4,0,0.8-0.1,1.3c0,0.2-0.1,0.4-0.2,0.6
		c0,0.1-0.1,0.2-0.1,0.3l0,0.1l-0.1,0.1c-0.3,0.6-0.6,1.2-1,1.8c-0.4,0.5-0.8,1-1.2,1.5c0,0-0.2,0.2-0.4,0.3c0,0-0.2,0.2-0.4,0.3
		c-0.1,0-0.2,0.1-0.4,0.3c-0.1,0.1-0.2,0.2-0.4,0.3c-0.4,0.3-0.8,0.5-1.2,0.8c0.1,0.1,0.1,0.3,0.2,0.4c0.4,0.7,0.9,1.4,1.5,2
		c0.7,0.7,1.4,1.2,2.1,1.6c0.4,0.2,0.8,0.3,1.1,0.3c0,0,0.1,0,0.2,0.1c0.1,0,0.2,0,0.2,0c0.1,0,0.2,0.1,0.2,0.1c0,0,0,0,0,0.1
		c0,0,0,0.1,0,0.1c0,0,0,0.1,0,0.2c0,0.2,0,0.4-0.1,0.5c0,0-0.1,0.3-0.3,0.8c-0.1,0.4-0.2,0.7-0.3,1c-0.1,0.4,0,0.8,0.1,1.2
		C462.1,168.3,462.1,168.4,462.2,168.5z M455,151.4c-0.5,0-1,0.2-1.6,0.3c-0.2,0-0.4,0.1-0.6,0.2c0,0.1,0,0.3-0.1,0.6
		c0,0.3-0.1,0.4-0.1,0.5c-0.1,1.3-0.1,2.4-0.2,3.5c0.6-0.2,1.1-0.3,1.5-0.5c0.5-0.2,0.9-0.4,1.3-0.6c0.4-0.3,0.8-0.5,1.1-0.8
		c0.3-0.3,0.6-0.7,0.9-1c0.1-0.2,0.2-0.4,0.3-0.5c0-0.1,0.1-0.1,0.1-0.2v0h0v0l0-0.1c0-0.2,0-0.4,0-0.6c0-0.2-0.2-0.3-0.4-0.5
		c0,0-0.1,0-0.1-0.1c0,0-0.1,0-0.1,0c0,0-0.1,0-0.1-0.1c-0.2,0-0.3-0.1-0.5-0.1C456,151.3,455.5,151.3,455,151.4z"/>
	<path id="XMLID_55_" class="st3" d="M482.4,166.2c0.7,0.2,0.9,0.6,0.6,1.2c-0.3,0.5-0.8,1-1.6,1.5c-0.5,0.3-1.2,0.6-2.2,1
		c-1.1,0.4-2.2,0.6-3.2,0.8c-0.6,0.1-1.2,0.1-1.8,0.1c-0.2,0-0.4,0-0.5,0c-0.2,0-0.3,0-0.5,0l-0.2,0l-0.2,0l-0.2,0l-0.3-0.1l-0.1,0
		c0,0-0.1,0-0.1,0l-0.3-0.1l-0.2-0.1l-0.1,0l-0.1,0c-0.2-0.1-0.3-0.1-0.5-0.2c-0.1,0-0.3-0.1-0.5-0.2c-0.6-0.4-1.2-0.8-1.7-1.4
		c-0.1-0.1-0.2-0.3-0.3-0.4c0-0.1-0.1-0.2-0.3-0.4c0,0-0.1-0.2-0.3-0.4c0-0.1-0.1-0.2-0.1-0.2l-0.1-0.2c-0.1-0.2-0.2-0.5-0.4-0.9
		l-0.1-0.4c0-0.1,0-0.1,0-0.2l-0.1-0.2c-0.1-0.5-0.2-1-0.3-1.6l0-0.2V163l-0.1-0.4c0-0.4,0-0.6,0-0.7c0-0.3,0-0.6-0.1-0.9
		c0-0.1,0-0.2-0.1-0.3c0-0.2-0.1-0.3-0.1-0.5c-0.1-0.4-0.2-0.7-0.3-1c-0.2-0.4-0.4-0.7-0.8-1c-0.2-0.1-0.4-0.3-0.6-0.4
		c-0.4-0.3-0.5-0.6-0.3-0.9c0-0.1,0.1-0.1,0.2-0.2c0.1,0,0.1-0.1,0.2-0.2c0.1,0,0.2-0.1,0.3-0.1c0.1,0,0.1,0,0.2-0.1
		c0.1,0,0.2,0,0.3-0.1c0.1,0,0.2,0,0.3,0c0.1,0,0.2,0,0.3,0c0.1,0,0.2,0,0.2,0c0,0,0.1,0,0.1,0c-0.1-0.6-0.1-1.3-0.2-2
		c0-0.6-0.1-1-0.1-1.4c0-0.1,0-0.3-0.1-0.6c-0.1-0.3-0.1-0.5-0.1-0.6c0-0.1-0.1-0.4-0.2-0.9c-0.2,0-0.4,0-0.5-0.1
		c-0.7-0.1-1.1-0.1-1.2-0.2c-0.2-0.1-0.3-0.2-0.4-0.3c-0.1-0.2-0.1-0.3-0.1-0.4c0-0.2,0.2-0.4,0.5-0.5c0.1,0,0.4-0.2,0.8-0.3
		c0.2-0.1,0.3-0.3,0.2-0.6c0,0,0-0.1-0.1-0.2c0-0.1,0-0.1-0.1-0.2s0-0.1-0.1-0.2s0-0.1-0.1-0.2c-0.1-0.3-0.1-0.5-0.1-0.6
		c0-0.2,0.1-0.4,0.2-0.6c0.1-0.2,0.2-0.4,0.3-0.5c0.1-0.1,0.1-0.2,0.2-0.2c0.1,0,0.2-0.1,0.3-0.1c0.1,0,0.2,0,0.4,0.1
		s0.3,0.1,0.4,0.2c0.2,0.1,0.3,0.2,0.3,0.2c0.8,0.4,1.7,0.8,2.7,1.1c1,0.3,1.9,0.5,2.8,0.6c0.5,0.1,1,0.1,1.6,0.1
		c0.5,0,1.1,0,1.6-0.1c0.5-0.1,1-0.2,1.5-0.3c0.6-0.2,1-0.2,1.1-0.2c0,0,0.1,0,0.1,0.1c0,0,0,0,0.1,0.1c0,0,0,0.1,0,0.1
		c0.1,0.2,0.1,0.4,0.2,0.5c0,0,0,0.1,0,0.1c0,0,0,0,0,0.1c0,0,0,0,0,0.1c0,0,0,0.1,0,0.2c0,0.2,0,0.4,0,0.5c0,0.4,0.1,0.7,0.1,1
		c0,0.2,0.1,0.4,0.2,0.6c0.1,0.2,0.3,0.4,0.4,0.5c0.1,0.1,0.3,0.3,0.6,0.4c0.2,0.1,0.3,0.3,0.4,0.4c0,0.2,0,0.4-0.2,0.6
		c0,0-0.1,0.1-0.2,0.1c0,0-0.1,0.1-0.1,0.1c-0.1,0.1-0.2,0.1-0.4,0.2c0,0-0.1,0-0.2,0c-0.1,0-0.1,0-0.2,0.1c-0.1,0-0.1,0-0.2,0
		l-0.1,0c0,0,0,0-0.1,0c-0.3,0-0.7,0-1.3-0.1c-0.6-0.1-1.6-0.3-2.8-0.6c-1.2-0.3-1.8-0.4-2-0.5c0,0.2,0,0.5-0.1,0.7
		c0,0.3,0,0.5-0.1,0.7c0,0.2,0,0.4-0.1,0.7c0,0.3,0,0.5,0,0.7c0,0.5-0.1,1-0.1,1.4v0.4v0.1c0.9,0.1,1.8,0.1,2.6,0.2
		c0.5,0,0.8,0,1.1,0c0.5,0,0.8,0,0.9,0c0.3,0.1,0.4,0.4,0.3,0.7c0,0.3-0.1,0.5-0.4,0.6c-0.1,0.1-0.3,0.2-0.6,0.4
		c-0.1,0.1-0.2,0.3-0.1,0.6c0,0.1,0.1,0.2,0.1,0.4c0,0.2,0.1,0.3,0.1,0.3c0.1,0.5,0.1,0.9,0,1.2c-0.2,0.5-0.4,0.8-0.6,0.9
		c-0.1,0-0.2,0-0.3,0s-0.2-0.1-0.3-0.2c-0.1-0.1-0.2-0.1-0.2-0.2c-0.8-0.4-1.7-0.7-2.7-0.8c0,0.4,0,0.7,0.1,1.1
		c0.1,0.5,0.1,0.8,0.2,1.2c0.1,0.4,0.2,0.7,0.4,1l0,0.1l0,0v0h0c0,0,0,0,0,0.1h0v0l0,0l0.1,0c0,0,0,0,0.1,0l0,0
		c0.1,0.1,0.3,0.1,0.4,0.1h0c0,0,0,0,0.1,0l0.1,0h0h0c0.1,0,0.2,0,0.4-0.1c0.5-0.1,1.1-0.5,1.7-1c1-0.8,1.7-1.2,2.2-1.4
		c0.3-0.2,0.6-0.2,0.9-0.1c0.3,0.1,0.4,0.3,0.4,0.6c0,1.1,0.2,2,0.8,2.7c0.3,0.4,0.9,0.7,1.6,0.9C481.6,166,481.9,166.1,482.4,166.2
		z"/>
	<path id="XMLID_57_" class="st3" d="M483.7,156.9c-0.5-0.4-0.7-0.8-0.9-1.4c-0.1-0.3-0.1-0.6-0.1-0.9c0-0.3,0.1-0.6,0.2-0.9
		c0.1-0.3,0.3-0.6,0.6-0.8c0.3-0.3,0.6-0.4,0.9-0.4c0.3,0,0.5,0,0.6,0.2c0.1,0.1,0.1,0.3,0,0.4c-0.1,0.2-0.2,0.5-0.1,0.8
		c0,0.2,0.1,0.5,0.2,0.8c0,0,0,0,0,0.1c0.1,0,0.1,0,0.2,0s0.1,0,0.2,0c0,0,0-0.1,0-0.1c0-0.1,0-0.1,0-0.2c0,0,0-0.2-0.1-0.4
		c0-0.2-0.1-0.4,0-0.5c0-0.2,0.1-0.3,0.2-0.4c0-0.1,0.1-0.1,0.2-0.2c0.1,0,0.2-0.1,0.3-0.1c0.1,0,0.2,0,0.3,0.1
		c0.1,0,0.3,0.1,0.3,0.2c0.1,0.1,0.3,0.3,0.4,0.5c0.3,0.4,0.5,0.9,0.5,1.4c0,0.2,0,0.5,0,0.7c0,0.2-0.1,0.4-0.2,0.6
		c-0.2,0.4-0.5,0.7-0.9,1s-0.8,0.3-1.3,0.3C484.6,157.4,484.2,157.2,483.7,156.9z M487.2,160.5c0.3,0.4,0.5,0.9,0.5,1.4
		c0,0.2,0,0.5,0,0.7c0,0.2-0.1,0.4-0.2,0.6c-0.2,0.4-0.5,0.7-0.9,1c-0.4,0.2-0.8,0.3-1.3,0.3c-0.5,0-1-0.2-1.5-0.5
		c-0.5-0.4-0.7-0.8-0.9-1.4c-0.1-0.3-0.1-0.6-0.1-0.9c0-0.3,0.1-0.6,0.2-1c0.1-0.3,0.3-0.6,0.6-0.8c0.3-0.2,0.6-0.4,0.9-0.4
		c0.3,0,0.5,0,0.6,0.2c0.1,0.1,0.1,0.2,0,0.4c-0.1,0.2-0.2,0.5-0.1,0.8c0,0.2,0.1,0.4,0.2,0.7v0.1c0.1,0,0.1,0,0.2,0s0.1,0,0.2,0
		c0,0,0-0.1,0-0.1s0-0.1,0-0.2c0,0,0-0.2-0.1-0.5c0-0.2-0.1-0.4,0-0.5c0-0.2,0.1-0.3,0.2-0.4c0-0.1,0.1-0.1,0.2-0.2
		c0.1,0,0.2-0.1,0.3,0c0.1,0,0.2,0,0.3,0.1c0.1,0.1,0.2,0.1,0.3,0.2C486.9,160,487,160.2,487.2,160.5z"/>
</g>
</svg>
